<svg xmlns="http://www.w3.org/2000/svg" xmlns:xlink="http://www.w3.org/1999/xlink" viewBox="0 0 231.297 190.8081"><defs><style>.a,.d{fill:none;}.b{clip-path:url(#a);}.c{fill:#0033c3;}.c,.f{fill-rule:evenodd;}.d{stroke:#fff;stroke-miterlimit:10;stroke-width:3.4634px;}.e,.f{fill:#fff;}</style><clipPath id="a"><rect class="a" x="37.2509" y="17.0065" width="156.7952" height="156.7952"/></clipPath></defs><title>BC Pie</title><g class="b"><g class="b"><g class="b"><path class="c" d="M63.28,17.0065h104.9a26.1893,26.1893,0,0,1,25.8674,26.1007V148.0146a25.9252,25.9252,0,0,1-25.8674,25.7871H63.28a26.0638,26.0638,0,0,1-26.028-25.7871V43.1071A26.3276,26.3276,0,0,1,63.28,17.0065"/><path class="c" d="M66.4672,20.8307H166.25c19.6759,0,23.9725,12.0828,23.9725,22.9055v99.7753c0,14.84-5.1054,26.4659-23.9725,26.4659H66.4672c-18.7351,0-25.3913-8.7-25.3913-26.4659V43.7362c0-18.2628,6.6562-22.9055,25.3913-22.9055"/><path class="d" d="M66.4672,20.8307H166.25c19.6759,0,23.9725,12.0828,23.9725,22.9055v99.7753c0,14.84-5.1054,26.4659-23.9725,26.4659H66.4672c-18.7351,0-25.3913-8.7-25.3913-26.4659V43.7362C41.0759,25.4734,47.7321,20.8307,66.4672,20.8307Z"/><rect class="e" x="62.1087" y="74.3705" width="36.3306" height="7.6486"/><rect class="e" x="64.0208" y="87.7555" width="34.4185" height="7.6485"/><rect class="e" x="62.1087" y="101.1405" width="36.3306" height="5.7364"/><rect class="e" x="75.4936" y="112.6133" width="22.9456" height="7.6485"/><rect class="e" x="134.7699" y="74.3705" width="36.3306" height="7.6486"/><rect class="e" x="136.682" y="87.7555" width="34.4185" height="7.6485"/><rect class="e" x="134.7699" y="101.1405" width="36.3306" height="5.7364"/><rect class="e" x="148.1548" y="112.6133" width="22.9456" height="7.6485"/><path class="f" d="M111.4173,117.01c-0.88.88-1.5049,0.5832-1.5049-.6635V80.8382c0-1.2467.6253-1.5431,1.5049-.6635L128.1868,96.99a2.2743,2.2743,0,0,1,.0229,3.2047Z"/></g></g></g></svg>