<svg xmlns="http://www.w3.org/2000/svg" xmlns:xlink="http://www.w3.org/1999/xlink" viewBox="0 0 231.297 190.8081"><defs><style>.a,.e{fill:none;}.b{clip-path:url(#a);}.c{clip-path:url(#c);}.d{fill:#00c3ff;}.d,.f{fill-rule:evenodd;}.e{stroke:#fff;stroke-miterlimit:10;stroke-width:3.4634px;}.f{fill:#fff;}</style><clipPath id="a"><rect class="a" x="37.2509" y="17.0065" width="156.7952" height="156.7952"/></clipPath><clipPath id="c"><rect class="a" x="37.2509" y="17.0065" width="156.7952" height="156.7952"/></clipPath></defs><title>BC Pie</title><g class="b"><g class="b"><g class="c"><path class="d" d="M63.2791,17.0065h104.9a26.1893,26.1893,0,0,1,25.8674,26.1007V148.0146a25.9252,25.9252,0,0,1-25.8674,25.7871h-104.9a26.0663,26.0663,0,0,1-26.028-25.7871V43.1072a26.33,26.33,0,0,1,26.028-26.1007"/><path class="d" d="M66.47,20.8308h99.7772c19.68,0,23.9744,12.0828,23.9744,22.9055v99.7753c0,14.84-5.1035,26.4659-23.9744,26.4659H66.47c-18.7351,0-25.3951-8.7-25.3951-26.4659V43.7362c0-18.2628,6.66-22.9055,25.3951-22.9055"/><path class="e" d="M66.47,20.8308h99.7772c19.68,0,23.9744,12.0828,23.9744,22.9055v99.7753c0,14.84-5.1035,26.4659-23.9744,26.4659H66.47c-18.7351,0-25.3951-8.7-25.3951-26.4659V43.7362C41.0746,25.4734,47.7346,20.8308,66.47,20.8308Z"/><path class="f" d="M93.5574,95.7081a10.5531,10.5531,0,1,1-10.5531-10.555,10.5561,10.5561,0,0,1,10.5531,10.555"/><path class="f" d="M126.4521,95.7081a10.5531,10.5531,0,1,1-10.5531-10.555,10.5561,10.5561,0,0,1,10.5531,10.555"/><path class="f" d="M159.3468,95.7081a10.5531,10.5531,0,1,1-10.5531-10.555,10.5561,10.5561,0,0,1,10.5531,10.555"/></g></g></g></svg>