<svg xmlns="http://www.w3.org/2000/svg" xmlns:xlink="http://www.w3.org/1999/xlink" viewBox="0 0 231.297 190.8081"><defs><style>.a,.d{fill:none;}.b{clip-path:url(#a);}.c{fill:#900066;fill-rule:evenodd;}.d{stroke:#fff;stroke-miterlimit:10;stroke-width:3.4634px;}.e{fill:#fff;}</style><clipPath id="a"><rect class="a" x="37.2509" y="17.0065" width="156.7952" height="156.7952"/></clipPath></defs><title>BC Pie</title><g class="b"><g class="b"><g class="b"><path class="c" d="M63.28,17.0065h104.9a26.1856,26.1856,0,0,1,25.8655,26.0968V148.0165A25.9243,25.9243,0,0,1,168.18,173.8017H63.28a26.0688,26.0688,0,0,1-26.03-25.7852V43.1033A26.33,26.33,0,0,1,63.28,17.0065"/><path class="c" d="M66.4706,20.8307h99.7772c19.68,0,23.9744,12.0847,23.9744,22.9074v99.7734c0,14.84-5.1035,26.4659-23.9744,26.4659H66.4706c-18.7351,0-25.3951-8.7-25.3951-26.4659V43.7381c0-18.2666,6.66-22.9074,25.3951-22.9074"/><path class="d" d="M66.4706,20.8307h99.7772c19.68,0,23.9744,12.0847,23.9744,22.9074v99.7734c0,14.84-5.1035,26.4659-23.9744,26.4659H66.4706c-18.7351,0-25.3951-8.7-25.3951-26.4659V43.7381C41.0756,25.4715,47.7355,20.8307,66.4706,20.8307Z"/><path class="e" d="M158.1129,60.8471a5.501,5.501,0,0,1,1.5144,4.0212V76.2819H71.669V64.8684a5.4871,5.4871,0,0,1,1.5163-4.0212,5.1842,5.1842,0,0,1,3.7612-1.7745H88.8782V51.3916a3.0509,3.0509,0,0,1,.34-2.1607,2.07,2.07,0,0,1,1.7687-.95c0.805,0,.9446.3193,1.4609,0.95,0.52,0.6348.2543,1.3557,0.2543,2.1607v7.6811h45.8913V51.3916a3.0565,3.0565,0,0,1,.3633-2.1607,2.086,2.086,0,0,1,1.7783-.95c0.805,0,.9274.3193,1.4475,0.95,0.5182,0.6348.2352,1.3557,0.2352,2.1607v7.6811H154.35a5.1982,5.1982,0,0,1,3.7631,1.7745M71.669,82.0183h87.9583v49.1974a6.0611,6.0611,0,0,1-1.5144,4.2526,5.4711,5.4711,0,0,1-3.7631,2.002H76.9465a5.4555,5.4555,0,0,1-3.7612-2.002,6.0454,6.0454,0,0,1-1.5163-4.2526V82.0183Zm5.7364,15.2971H98.4389V87.7547H77.4054v9.5607Zm0,17.2092H98.4389V103.0518H77.4054v11.4728Zm0,17.2092H98.4389V120.2611H77.4054v11.4728Zm18.477-64.1005c0-2.0747-1.2677-3.6866-3.18-4.84v4.84c0,0.8069.1568,1.4685-.3633,1.9867a2.2354,2.2354,0,0,1-1.7783.7763,1.6243,1.6243,0,0,1-1.4456-.7763c-0.52-.5182-0.2371-1.18-0.2371-1.9867v-4.84c-1.9121,1.153-3.2028,2.765-3.2028,4.84a5.244,5.244,0,0,0,5.2029,5.528,4.76,4.76,0,0,0,3.6254-1.6425,5.0836,5.0836,0,0,0,1.3787-3.8855m8.2929,29.6821h22.9456V87.7547H104.1753v9.5607Zm0,17.2092h22.9456V103.0518H104.1753v11.4728Zm0,17.2092h22.9456V120.2611H104.1753v11.4728Zm28.682-34.4185h21.0335V87.7547H132.8574v9.5607Zm0,17.2092h21.0335V103.0518H132.8574v11.4728Zm0,17.2092h21.0335V120.2611H132.8574v11.4728Zm12.7635-64.1005c0-2.0747-1.2907-3.6866-3.2028-4.84v4.84c0,0.8069.18,1.4685-.34,1.9867a2.2146,2.2146,0,0,1-1.7668.7763,1.6525,1.6525,0,0,1-1.4628-.7763c-0.52-.5182-0.2543-1.18-0.2543-1.9867v-4.84c-1.9121,1.153-3.18,2.765-3.18,4.84a5.2594,5.2594,0,0,0,5.2182,5.528,4.742,4.742,0,0,0,3.6178-1.6425,5.0777,5.0777,0,0,0,1.371-3.8855"/></g></g></g></svg>