<svg xmlns="http://www.w3.org/2000/svg" xmlns:xlink="http://www.w3.org/1999/xlink" viewBox="0 0 231.297 190.8081"><defs><style>.a,.e{fill:none;}.b{clip-path:url(#a);}.c{clip-path:url(#c);}.d{fill:#ff9000;fill-rule:evenodd;}.e{stroke:#fff;stroke-miterlimit:10;stroke-width:3.4634px;}.f{fill:#fff;}</style><clipPath id="a"><rect class="a" x="37.2509" y="17.0065" width="156.7952" height="156.7952"/></clipPath><clipPath id="c"><rect class="a" x="37.2509" y="17.0065" width="156.7952" height="156.7952"/></clipPath></defs><title>BC Pie</title><g class="b"><g class="b"><g class="c"><path class="d" d="M63.28,17.0065h104.9a26.1859,26.1859,0,0,1,25.8674,26.0968V148.0146A25.9276,25.9276,0,0,1,168.18,173.8017H63.28a26.0663,26.0663,0,0,1-26.028-25.7871V43.1033A26.3243,26.3243,0,0,1,63.28,17.0065"/><path class="d" d="M66.4672,20.8308H166.25c19.6759,0,23.9725,12.0847,23.9725,22.9055v99.7753c0,14.84-5.1054,26.4659-23.9725,26.4659H66.4672c-18.7351,0-25.3913-8.7021-25.3913-26.4659V43.7362c0-18.2647,6.6562-22.9055,25.3913-22.9055"/><path class="e" d="M66.4672,20.8308H166.25c19.6759,0,23.9725,12.0847,23.9725,22.9055v99.7753c0,14.84-5.1054,26.4659-23.9725,26.4659H66.4672c-18.7351,0-25.3913-8.7021-25.3913-26.4659V43.7362C41.0759,25.4715,47.7321,20.8308,66.4672,20.8308Z"/><path class="f" d="M73.4165,104.45a9.8427,9.8427,0,1,1-9.8456-9.8456,9.8412,9.8412,0,0,1,9.8456,9.8456"/><path class="f" d="M99.9172,104.45a9.8456,9.8456,0,1,1-9.8456-9.8456,9.8449,9.8449,0,0,1,9.8456,9.8456"/><path class="f" d="M126.418,104.45a9.8427,9.8427,0,1,1-9.8456-9.8456,9.8412,9.8412,0,0,1,9.8456,9.8456"/><path class="f" d="M152.9187,104.45a9.8456,9.8456,0,1,1-9.8456-9.8456,9.8449,9.8449,0,0,1,9.8456,9.8456"/><path class="f" d="M179.4194,104.45a9.8427,9.8427,0,1,1-9.8456-9.8456,9.8412,9.8412,0,0,1,9.8456,9.8456"/><path class="f" d="M115.8474,60.6315c0.5526-1.1205,1.4628-1.1205,2.0135,0l2.9256,5.9238a4.8645,4.8645,0,0,0,3.264,2.373l6.5433,0.9484c1.2391,0.18,1.5182,1.0459.62,1.92l-4.7325,4.61a4.9031,4.9031,0,0,0-1.2467,3.8415l1.1224,6.5127c0.21,1.2333-.5277,1.7649-1.6368,1.1836L118.8781,84.87a4.8985,4.8985,0,0,0-4.04,0l-5.8492,3.0747c-1.109.5813-1.8414,0.05-1.6291-1.1836l1.1148-6.5127a4.8878,4.8878,0,0,0-1.2448-3.8415l-4.7344-4.61c-0.8987-.8738-0.6138-1.74.6253-1.92l6.5376-.9484a4.86,4.86,0,0,0,3.2659-2.373Z"/></g></g></g></svg>