<svg xmlns="http://www.w3.org/2000/svg" xmlns:xlink="http://www.w3.org/1999/xlink" viewBox="0 0 231.297 190.8081"><defs><style>.a,.f{fill:none;}.b{clip-path:url(#a);}.c,.e{fill:#330090;}.c{fill-rule:evenodd;}.d{fill:#fff;}.f{stroke:#fff;stroke-miterlimit:10;stroke-width:5.6867px;}</style><clipPath id="a"><rect class="a" x="37.2509" y="17.0065" width="156.7952" height="156.7952"/></clipPath></defs><title>BC Pie</title><g class="b"><g class="b"><g class="b"><path class="c" d="M63.9773,17.0065H168.8782c14.1949,0,25.1681,11.9654,25.1681,26.1554V148.0725c0,14.1777-10.9732,25.7291-25.1681,25.7291H63.9773c-14.1924,0-26.7262-11.5514-26.7262-25.7291V43.1619c0-14.19,12.5338-26.1554,26.7262-26.1554"/><path class="c" d="M67.1679,19.4564H166.946c19.6778,0,24.6511,13.5162,24.6511,24.3375V143.57c0,14.8392-5.7794,25.3322-24.6511,25.3322H67.1679c-18.7346,0-25.0162-7.5678-25.0162-25.3322V43.7939c0-18.2642,6.2816-24.3375,25.0162-24.3375"/><path class="d" d="M166.946,171.3517H67.1679c-18.884,0-27.4661-8.1558-27.4661-27.7821V43.7939c0-18.5557,7.0509-24.3375,27.4661-24.3375H166.946c21.3952,0,24.6511,13.0164,24.6511,24.3375V143.57c0,19.0947-7.2322,27.7821-24.6511,27.7821M67.1679,21.9063c-18.4357,0-25.0162,5.407-25.0162,21.8876V143.57c0,17.6689,8.1166,25.3322,25.0162,25.3322H166.946c15.2581,0,22.2012-8.3518,22.2012-25.3322V43.7939c0-13.93-7.5629-21.8876-22.2012-21.8876H67.1679Z"/><path class="e" d="M81.8346,95.405h97.0268a2.935,2.935,0,0,1,2.935,2.935v21.0816a2.9326,2.9326,0,0,1-2.9326,2.9326H81.8346a2.935,2.935,0,0,1-2.935-2.935V98.34A2.935,2.935,0,0,1,81.8346,95.405Z"/><path class="d" d="M106.4833,92.9536h-3.0845V83.84a22.0523,22.0523,0,1,0-44.0987,0v9.1137H55.64c-1.2519,0-3.69,1.1319-3.69,2.3862v35.0168c0,1.2544,2.4377,4.2457,3.69,4.2457h50.8433c1.2519,0,1.8154-2.9914,1.8154-4.2457V95.34c0-1.2544-.5635-2.3862-1.8154-2.3862M69.1,84.3838C69.1,77.208,72.9438,71.38,80.1246,71.38S91.1492,77.208,91.1492,84.3838v8.57H69.1v-8.57Z"/><path class="d" d="M140.1477,85.6044V76.2456c0-7.1783,5.0689-13.0042,12.25-13.0042s12.25,5.8259,12.25,13.0042V92.9541H126.94c-1.2519,0-1.492,1.1294-1.492,2.3838v35.0192c0,1.2544.24,4.2457,1.492,4.2457h50.8458c1.2495,0,1.5606-2.9914,1.5606-4.2457V95.3379c0-1.2544-.3111-2.3838-1.5606-2.3838h-3.3393V75.7018a22.0523,22.0523,0,1,0-44.0986,0v9.9026h9.8Z"/><polyline class="e" points="113.283 105.239 103.981 105.239 103.981 98.766 76.037 113.907 103.981 129.047 103.981 121.374 113.283 121.374 113.001 121.374 129.531 121.374 129.531 129.047 157.475 113.907 129.531 98.766 129.531 105.239 113.001 105.239"/><polyline class="f" points="113.283 105.239 103.981 105.239 103.981 98.766 76.037 113.907 103.981 129.047 103.981 121.374 113.283 121.374 113.001 121.374 129.531 121.374 129.531 129.047 157.475 113.907 129.531 98.766 129.531 105.239 113.001 105.239"/></g></g></g></svg>