<svg xmlns="http://www.w3.org/2000/svg" viewBox="0 0 231.297 190.8081"><defs><style>.a{fill:#3498db;}</style></defs><title>BC Pie</title><path class="a" d="M22.2159,101.4445q2.8154-2.5649,4.5771-4.2754,1.7593-1.7095,3.0176-3.127A34.5184,34.5184,0,0,0,32.1,91.1828q1.03-1.4429,2.4395-3.42,1.4077-1.9761,3.4209-4.8369,2.0112-2.8579,5.23-7.1348a18.4564,18.4564,0,0,1,1.459-1.87,11.3643,11.3643,0,0,1,1.7861-1.63,9.1609,9.1609,0,0,1,2.1621-1.1758,7.3118,7.3118,0,0,1,2.6406-.4551,9.7593,9.7593,0,0,1,3.7227.5615,4.5857,4.5857,0,0,1,1.9111,1.3633,3.4216,3.4216,0,0,1,.7041,1.6826,13.6287,13.6287,0,0,1,.1006,1.5234,5.5078,5.5078,0,0,1-.9551,2.833,29.7672,29.7672,0,0,1-2.1133,2.9922q-1.1572,1.4429-2.1875,2.6455a5.5786,5.5786,0,0,0-1.1826,1.791,18.5626,18.5626,0,0,0,.2266,3.02,23.8111,23.8111,0,0,0,.6035,2.6719q0.3779,1.311.78,2.7793,0.4014,1.4707.7793,3.3936a43.3915,43.3915,0,0,1,.6035,4.4355q0.2271,2.5137.2266,5.9326a29.5671,29.5671,0,0,1,3.8984-2.3252q2.0859-1.0415,4.3506-2.1641t4.6533-2.4854a37.7948,37.7948,0,0,0,4.8037-3.2871l0.05,11.9717a46.5263,46.5263,0,0,1-7.2178,4.8105,68.6549,68.6549,0,0,1-8.6016,3.9541,62.651,62.651,0,0,1-9.1045,2.6992,41.6045,41.6045,0,0,1-8.7266.9893,24.7527,24.7527,0,0,1-5.5332-.5879,13.8814,13.8814,0,0,1-4.502-1.8447,9.8436,9.8436,0,0,1-3.1436-3.2861,11.4484,11.4484,0,0,1-1.459-4.917,9.6414,9.6414,0,0,1-1.3828.2139c-0.4531.0361-.8984,0.0537-1.333,0.0537q-0.8057,0-1.51-.0537a2.3876,2.3876,0,0,1-1.207-.4014,2.3431,2.3431,0,0,1-.8047-1.1221,6.3609,6.3609,0,0,1-.3018-2.2178,4.8472,4.8472,0,0,1,.6035-2.3779,9.58,9.58,0,0,1,1.4082-1.9512,15.4288,15.4288,0,0,1,1.61-1.4961Q21.8116,101.8186,22.2159,101.4445Zm6.4385,6.8408a1.9754,1.9754,0,0,1,1.333.8018q0.728,0.8013,1.6846,1.7637a12.7793,12.7793,0,0,0,2.2129,1.7637,5.2194,5.2194,0,0,0,2.8672.8018,6.7567,6.7567,0,0,0,3.2451-.6953,5.5343,5.5343,0,0,0,2.0371-1.8437,7.4478,7.4478,0,0,0,1.0557-2.6719,16.331,16.331,0,0,0,.3018-3.18,25.1917,25.1917,0,0,0-.1758-2.9395q-0.1772-1.4956-.4531-2.8594t-0.6035-2.5654q-0.3267-1.2026-.5781-2.0576Z"/><path class="a" d="M78.5518,121.967a6.8332,6.8332,0,0,1-5.0547-2.5391,22.3781,22.3781,0,0,1-4.0742-6.8135A48.555,48.555,0,0,1,66.7061,102.7a69.0578,69.0578,0,0,1-.98-11.8379,89.4093,89.4093,0,0,1,.6533-10.3408q0.6533-5.5854,1.9121-11.5176,1.2568-5.9326,2.9922-11.918t3.9238-11.49A99.6521,99.6521,0,0,1,79.96,35.3078,56.1209,56.1209,0,0,1,85.3428,26.97a25.8317,25.8317,0,0,1,5.8848-5.585,11.1936,11.1936,0,0,1,6.2373-2.03,5.8488,5.8488,0,0,1,3.5713,1.042,7.1227,7.1227,0,0,1,2.2129,2.752,14.0191,14.0191,0,0,1,1.1318,3.875,29.5139,29.5139,0,0,1,.3271,4.4092,50.291,50.291,0,0,1-1.0811,10.2344,83.2175,83.2175,0,0,1-2.918,10.4756q-1.8369,5.2646-4.25,10.5547t-5.03,10.502Q88.8126,78.41,86.1719,83.46t-4.9541,9.8613A11.9272,11.9272,0,0,0,80.69,94.71q-0.2769.8555-.5283,1.8438-0.252.99-.5029,2.1113t-0.4023,2.1914v0.748a13.0131,13.0131,0,0,0,.2764,2.6992,15.3528,15.3528,0,0,0,.68,2.3516,7.1508,7.1508,0,0,0,.8545,1.6563,1.2025,1.2025,0,0,0,.8555.6152,6.7887,6.7887,0,0,0,2.1885-.4277,19.5794,19.5794,0,0,0,2.6152-1.1494q1.3828-.7207,2.8418-1.6562t2.8174-1.8975q3.1685-2.2441,6.64-5.1846l4.124,11.2236a103.2562,103.2562,0,0,1-8.8525,6.0928q-1.9116,1.1221-3.9482,2.2178t-4.1,1.9512a30.3735,30.3735,0,0,1-4.0244,1.3623A14.6807,14.6807,0,0,1,78.5518,121.967Zm0.0508-42.7549q2.2632-4.2759,4.8037-9.62,2.5386-5.3437,4.8037-11.01,2.2632-5.6646,3.9229-11.3027a55.6851,55.6851,0,0,0,2.1123-10.502q0-1.55-.0752-2.6455c-0.05-.73-0.21-1.0957-0.4775-1.0957q-1.46,0-3.1436,2.0039a27.0906,27.0906,0,0,0-3.37,5.4248,65.5729,65.5729,0,0,0-3.22,7.9629q-1.5352,4.5439-2.7412,9.6738a105.0276,105.0276,0,0,0-1.9111,10.5547A81.7691,81.7691,0,0,0,78.6026,79.2121Z"/><path class="a" d="M126.84,110.5832a45.1645,45.1645,0,0,1-4.501,3.7676,47.4882,47.4882,0,0,1-5.8105,3.6885,42.9191,42.9191,0,0,1-6.3623,2.8057,18.8665,18.8665,0,0,1-6.1621,1.1221,11.0408,11.0408,0,0,1-4.4014-.7754,7.3405,7.3405,0,0,1-2.8916-2.1641,8.5315,8.5315,0,0,1-1.585-3.3936,18.969,18.969,0,0,1-.4775-4.4092,49.1929,49.1929,0,0,1,.7295-7.83q0.728-4.46,1.7852-9.2451,1.0562-4.7827,2.2383-9.54t2.0879-8.7646a4.8156,4.8156,0,0,1,1.4082-2.3779,8.9582,8.9582,0,0,1,2.39-1.6035,12.6942,12.6942,0,0,1,2.7656-.9092,13.0671,13.0671,0,0,1,2.5908-.2939,3.8282,3.8282,0,0,1,2.8672.8291,3.1691,3.1691,0,0,1,.7549,2.2178,16.7633,16.7633,0,0,1-.5029,3.3936q-0.5039,2.2178-1.2578,5.0234t-1.6094,6.0391q-0.8569,3.2344-1.61,6.4668-0.7544,3.2344-1.2568,6.3066a34.5173,34.5173,0,0,0-.5029,5.5313,11.7262,11.7262,0,0,0,.5029,3.8213,1.9918,1.9918,0,0,0,2.0615,1.416,7.9416,7.9416,0,0,0,4.0244-1.3359,35.6365,35.6365,0,0,0,4.4766-3.2334q2.2632-1.8955,4.4268-3.9277,2.1621-2.03,3.8223-3.4736v10.8486Zm-22.4834-54.94a9.1051,9.1051,0,0,1,.5029-2.7793,8.7847,8.7847,0,0,1,1.6348-2.9121,9.093,9.093,0,0,1,3.0176-2.2979,10.5485,10.5485,0,0,1,4.7031-.9355,12.5068,12.5068,0,0,1,3.32.4277,7.8589,7.8589,0,0,1,2.7158,1.31A6.1674,6.1674,0,0,1,122.087,50.78a7.9626,7.9626,0,0,1,.6787,3.4209,11.4132,11.4132,0,0,1-.5527,3.5273,8.31,8.31,0,0,1-1.7607,3.0459,9.0456,9.0456,0,0,1-3.043,2.1641,10.625,10.625,0,0,1-4.4014.8291q-4.4268,0-6.5391-2.2178A8.2086,8.2086,0,0,1,104.3565,55.6428Z"/><path class="a" d="M138.8116,121.967a17.3663,17.3663,0,0,1-8.124-1.8174,17.559,17.559,0,0,1-5.8594-4.8633,21.4533,21.4533,0,0,1-3.5713-7.0547,28.7544,28.7544,0,0,1-1.208-8.3369,36.6632,36.6632,0,0,1,.6045-6.4668,39.473,39.473,0,0,1,1.7852-6.6006,37.2466,37.2466,0,0,1,2.918-6.1729,24.4088,24.4088,0,0,1,4.0234-5.1572,18.5479,18.5479,0,0,1,5.1055-3.5273,14.5109,14.5109,0,0,1,6.1875-1.31,14.7159,14.7159,0,0,1,5.3066.9355,12.4124,12.4124,0,0,1,4.1748,2.5918,11.8981,11.8981,0,0,1,2.7158,3.9287,12.196,12.196,0,0,1,.98,4.89,14.3469,14.3469,0,0,1-.4521,3.5811,11.3191,11.3191,0,0,1-1.333,3.18,7.4528,7.4528,0,0,1-2.1377,2.2715,4.8985,4.8985,0,0,1-2.8174.8555q-2.3643,0-3.0928-1.3359a7.76,7.76,0,0,1-.7295-3.6885q0-.9609.0752-2.03t0.0752-1.9238a7.7284,7.7284,0,0,0-.251-2.1377,1.0663,1.0663,0,0,0-1.1064-.8555,5.9,5.9,0,0,0-3.5215,1.042A9.1885,9.1885,0,0,0,136.07,84.69a15.2119,15.2119,0,0,0-1.6348,3.7949A38.6315,38.6315,0,0,0,133.48,92.68a35.0423,35.0423,0,0,0-.4531,3.9814q-0.1011,1.897-.1006,3.18a25.7816,25.7816,0,0,0,.3271,4.0088,12.342,12.342,0,0,0,1.2324,3.8213,8.29,8.29,0,0,0,2.4648,2.8857,6.6073,6.6073,0,0,0,4.0244,1.1484,11.3734,11.3734,0,0,0,5.3311-1.5762,37.4442,37.4442,0,0,0,5.86-3.9814,55.1628,55.1628,0,0,0,5.6084-5.291,68.0664,68.0664,0,0,0,4.5771-5.4512l3.4707,6.1992a68.95,68.95,0,0,1-8.1484,10.208,50.805,50.805,0,0,1-4.0488,3.7412,35.4609,35.4609,0,0,1-4.5781,3.2334,26.4733,26.4733,0,0,1-4.9795,2.2979A16.2139,16.2139,0,0,1,138.8116,121.967Z"/><path class="a" d="M176.4366,92.092q1.8105-2.458,3.9736-5.3984,2.1621-2.9385,4.25-5.6113t3.8232-4.7568a18.6173,18.6173,0,0,1,2.7412-2.832,14.7325,14.7325,0,0,1,3.8232-2.0039,14.5282,14.5282,0,0,1,5.0293-.8291,5.58,5.58,0,0,1,2.6914.6953,6.8611,6.8611,0,0,1,2.2383,1.9775,10.0435,10.0435,0,0,1,1.5088,3.1,13.91,13.91,0,0,1,.5537,4.0615,10.6081,10.6081,0,0,1-1.0059,4.4092,31.0728,31.0728,0,0,1-2.5156,4.4629q-1.5088,2.2441-3.27,4.4893t-3.27,4.5156a31.2918,31.2918,0,0,0-2.5146,4.5166,10.89,10.89,0,0,0-1.0059,4.4893,3.648,3.648,0,0,0,.88,2.752,3.8886,3.8886,0,0,0,2.7412.8281,4.2656,4.2656,0,0,0,2.1885-.7207,15.36,15.36,0,0,0,2.4395-1.8975q1.2568-1.1748,2.54-2.6191t2.4648-2.9395q1.1807-1.4956,2.2383-2.8594t1.9111-2.3242l3.0186,13.0937a20.9778,20.9778,0,0,1-3.9482,4.4619,29.7772,29.7772,0,0,1-5.1816,3.5811,28.2275,28.2275,0,0,1-5.7842,2.3779,20.94,20.94,0,0,1-5.76.8555,15.7952,15.7952,0,0,1-5.91-.9355,9.08,9.08,0,0,1-3.5967-2.4854,8.4784,8.4784,0,0,1-1.7852-3.5,16.8552,16.8552,0,0,1-.4775-4.0352,20.32,20.32,0,0,1,.2764-3.02,23.2092,23.2092,0,0,1,1.0566-4.0352,37.0844,37.0844,0,0,1,2.1875-4.9434,46.2718,46.2718,0,0,1,3.6719-5.7988q0.9053-.9624,1.66-1.7373t1.3076-1.3887a6.61,6.61,0,0,0,.8555-1.1494,2.245,2.245,0,0,0,.3018-1.1221,3.7979,3.7979,0,0,0-.3779-1.8174,1.1787,1.1787,0,0,0-1.0811-.6943,3.864,3.864,0,0,0-2.2129,1.1758,15.262,15.262,0,0,0-2.9678,4.1143l-14.7881,27.5771a8.2293,8.2293,0,0,1-2.39,2.9668,4.9731,4.9731,0,0,1-2.8418.8281,5.3913,5.3913,0,0,1-3.4209-.9883,6.1388,6.1388,0,0,1-1.9111-2.6729,13.7472,13.7472,0,0,1-.83-3.9014q-0.1772-2.2163-.1758-4.7295,0-3.0469.2012-8.07t0.6035-11.0361q0.4014-6.0117,1.0811-12.5859t1.6348-12.7734q0.3516-2.19.9063-5.3174,0.5522-3.126,1.3828-6.707t1.9619-7.4561a78.9484,78.9484,0,0,1,2.6152-7.5352,61.2419,61.2419,0,0,1,3.3447-6.9746,30.0444,30.0444,0,0,1,4.1758-5.7988,18.8429,18.8429,0,0,1,5.08-3.9277,12.8516,12.8516,0,0,1,6.0361-1.4434,8.9575,8.9575,0,0,1,4.2246.8818,6.8232,6.8232,0,0,1,2.6406,2.459,10.7362,10.7362,0,0,1,1.3838,3.7676,26.425,26.425,0,0,1,.4023,4.7568,48.5479,48.5479,0,0,1-1.0811,9.78,106.4583,106.4583,0,0,1-2.7422,10.501q-1.66,5.2646-3.6211,10.2354t-3.7725,8.9785q-1.8105,4.0078-3.1943,6.7607t-1.8359,3.6074L175.23,91.29Zm9.8584-60.0176a3.9384,3.9384,0,0,0-2.7666,1.0684,11.1178,11.1178,0,0,0-2.1875,3.0469,40.3355,40.3355,0,0,0-2.0625,4.81q-1.0312,2.833-2.3389,6.3066-0.8057,3.0469-1.4844,6.3066t-1.2314,6.4932q-0.5552,3.2344-.9814,6.3867t-0.7295,5.9316q-0.7544,6.5742-1.207,12.9336,1.106-3.5273,2.4141-7.6689t2.5908-8.1768q1.2832-4.0342,2.4141-7.6426t1.8867-6.1191q0.3516-1.1748,1.0059-2.9395t1.4082-3.7949q0.7544-2.03,1.51-4.2217t1.3828-4.2227q0.6284-2.03,1.0313-3.7939a13.8689,13.8689,0,0,0,.4023-2.9932Q187.3516,32.0749,186.295,32.0744Z"/><path d="M25.03,144.3967l-0.3691,1.92h1.7129l-0.1924.9609H24.4688l-0.665,3.4707a6.3118,6.3118,0,0,0-.1328,1.1523,0.6029,0.6029,0,0,0,.68.68,3.4088,3.4088,0,0,0,.5762-0.0449l-0.06.96a2.848,2.848,0,0,1-.9453.1328,1.3285,1.3285,0,0,1-1.5068-1.3877,6.656,6.656,0,0,1,.1484-1.3447l0.709-3.6182H22.2384l0.1924-.9609h1.0186l0.3105-1.6094Z"/><path d="M26.4464,153.466L28.44,142.9787h1.2266L28.78,147.5871H28.81a3.0744,3.0744,0,0,1,2.5557-1.4326,1.7331,1.7331,0,0,1,1.7725,1.92,6.5784,6.5784,0,0,1-.1182,1.2119l-0.7979,4.18H30.9962l0.7979-4.1211a5.8762,5.8762,0,0,0,.0879-0.9893,1.0371,1.0371,0,0,0-1.1074-1.1816c-0.9453,0-2.1416,1.1074-2.4375,2.7178l-0.6641,3.5742H26.4464Z"/><path d="M39.4874,153.0529a4.9349,4.9349,0,0,1-2.3633.5605,2.5739,2.5739,0,0,1-2.7178-2.8652c0-2.1562,1.5957-4.5937,3.8994-4.5937a1.8579,1.8579,0,0,1,2.0977,1.832c0,1.875-2.1123,2.3779-4.7559,2.333a2.9516,2.9516,0,0,0,.1475,1.3594,1.626,1.626,0,0,0,1.5947.96,3.9923,3.9923,0,0,0,1.9209-.502Zm-1.3584-5.9385a2.7525,2.7525,0,0,0-2.334,2.26c1.92,0.0146,3.4268-.2363,3.4268-1.3437A0.94,0.94,0,0,0,38.129,147.1145Z"/><path d="M43.7247,153.466l1.9932-10.4873h1.2266L44.9356,153.466H43.7247Z"/><path d="M51.8331,153.466a18.37,18.37,0,0,1,.1621-1.8467H51.9659a3.1288,3.1288,0,0,1-2.7773,2.0088,2.1182,2.1182,0,0,1-2.0527-2.3633,4.992,4.992,0,0,1,4.9482-5.11,6.6453,6.6453,0,0,1,1.92.2813L53.28,150.1574a16.3648,16.3648,0,0,0-.3105,3.3086H51.8331Zm0.7969-6.2334a3.3172,3.3172,0,0,0-.8564-0.1035c-1.8467,0-3.3525,1.9355-3.3672,3.9141a1.3108,1.3108,0,0,0,1.2256,1.5811c1.02,0,2.23-1.3291,2.585-3.2354Z"/><path d="M54.8594,152.2248a3.252,3.252,0,0,0,1.5361.4434,1.2335,1.2335,0,0,0,1.3594-1.167,1.4346,1.4346,0,0,0-.99-1.3145A2.1338,2.1338,0,0,1,55.48,148.37a2.3532,2.3532,0,0,1,2.585-2.2158,2.98,2.98,0,0,1,1.4922.3545l-0.34.9307a2.5586,2.5586,0,0,0-1.2412-.3252,1.1475,1.1475,0,0,0-1.27,1.0781,1.424,1.424,0,0,0,.9746,1.1963,2.25,2.25,0,0,1,1.3438,1.876c0,1.5068-1.2256,2.3486-2.7324,2.3486a3.1378,3.1378,0,0,1-1.7725-.4873Z"/><path d="M63.5137,144.3967l-0.37,1.92h1.7139l-0.1924.9609H62.9522l-0.665,3.4707a6.3118,6.3118,0,0,0-.1328,1.1523,0.6029,0.6029,0,0,0,.68.68,3.4088,3.4088,0,0,0,.5762-0.0449l-0.06.96a2.848,2.848,0,0,1-.9453.1328,1.3277,1.3277,0,0,1-1.5059-1.3877,6.6491,6.6491,0,0,1,.1475-1.3447l0.709-3.6182H60.7217l0.1924-.9609h1.0186l0.3105-1.6094Z"/><path d="M72.5362,153.1858a4.9446,4.9446,0,0,1-2.0674.4277,2.568,2.568,0,0,1-2.748-2.7617,4.527,4.527,0,0,1,4.3721-4.6826,3.6475,3.6475,0,0,1,1.4922.3105l-0.3545.9746a2.78,2.78,0,0,0-1.2109-.2656c-1.8613,0-3.0283,1.8311-3.0283,3.5156a1.6846,1.6846,0,0,0,1.7725,1.9053,3.7541,3.7541,0,0,0,1.6543-.3994Z"/><path d="M78.3848,153.466a18.37,18.37,0,0,1,.1621-1.8467H78.5176a3.1288,3.1288,0,0,1-2.7773,2.0088,2.1182,2.1182,0,0,1-2.0527-2.3633,4.992,4.992,0,0,1,4.9482-5.11,6.64,6.64,0,0,1,1.92.2813l-0.7236,3.7217a16.3648,16.3648,0,0,0-.3105,3.3086H78.3848Zm0.7969-6.2334a3.3172,3.3172,0,0,0-.8564-0.1035c-1.8457,0-3.3525,1.9355-3.3672,3.9141a1.3108,1.3108,0,0,0,1.2256,1.5811c1.02,0,2.23-1.3291,2.585-3.2354Z"/><path d="M81.3507,153.466l0.8721-4.6084c0.1768-.9307.2949-1.876,0.3691-2.541H83.67c-0.0586.5029-.1182,1.0049-0.1924,1.5518h0.0449a2.5822,2.5822,0,0,1,2.1855-1.7139,2.4343,2.4343,0,0,1,.34.0293l-0.2363,1.2119a1.729,1.729,0,0,0-.3242-0.03c-1.0645,0-2.01,1.2852-2.3193,2.9541l-0.5908,3.1465H81.3507Z"/><path d="M92.8116,149.1379c0,2.2012-1.5654,4.49-3.958,4.49a2.7286,2.7286,0,0,1-2.792-2.9385c0-2.3486,1.64-4.5352,3.959-4.5352A2.7268,2.7268,0,0,1,92.8116,149.1379Zm-5.4795,1.5068a1.762,1.762,0,0,0,1.6836,2.0088c1.4482,0,2.541-1.8613,2.541-3.53a1.7677,1.7677,0,0,0-1.6689-1.9941C88.3516,147.1291,87.3175,149.0051,87.3321,150.6447Z"/><path d="M100.64,146.3166l-0.9609,5.0664c-0.1475.7979-.251,1.4922-0.3242,2.083H98.2462l0.1924-1.3437H98.4092a3.1819,3.1819,0,0,1-2.5264,1.5059,1.7769,1.7769,0,0,1-1.876-2.0674,6.6047,6.6047,0,0,1,.1328-1.1963l0.7686-4.0479h1.2256l-0.7529,3.9883a4.8291,4.8291,0,0,0-.1328,1.0488A1.0636,1.0636,0,0,0,96.4,152.5949c0.8857,0,2.0234-1.0342,2.3184-2.6143l0.6943-3.6641H100.64Z"/><path d="M101.4942,152.2248a3.252,3.252,0,0,0,1.5361.4434,1.2335,1.2335,0,0,0,1.3594-1.167,1.4346,1.4346,0,0,0-.99-1.3145,2.1338,2.1338,0,0,1-1.2852-1.8164,2.3532,2.3532,0,0,1,2.585-2.2158,2.98,2.98,0,0,1,1.4922.3545l-0.34.9307a2.5586,2.5586,0,0,0-1.2412-.3252,1.1475,1.1475,0,0,0-1.27,1.0781,1.424,1.424,0,0,0,.9746,1.1963,2.25,2.25,0,0,1,1.3438,1.876c0,1.5068-1.2256,2.3486-2.7324,2.3486a3.1378,3.1378,0,0,1-1.7725-.4873Z"/><path d="M112.0977,153.0529a4.9349,4.9349,0,0,1-2.3633.5605,2.5739,2.5739,0,0,1-2.7178-2.8652c0-2.1562,1.5957-4.5937,3.8994-4.5937a1.8579,1.8579,0,0,1,2.0977,1.832c0,1.875-2.1123,2.3779-4.7559,2.333a2.9648,2.9648,0,0,0,.1475,1.3594,1.626,1.626,0,0,0,1.5947.96,3.9891,3.9891,0,0,0,1.9209-.502Zm-1.3584-5.9385a2.7525,2.7525,0,0,0-2.334,2.26c1.92,0.0146,3.4268-.2363,3.4268-1.3437A0.94,0.94,0,0,0,110.7393,147.1145Z"/><path d="M113.6475,153.466l1.9941-10.4873h1.2256l-2.0088,10.4873h-1.2109Z"/><path d="M121.2676,146.3166l0.709,3.8555c0.1621,0.8125.251,1.3438,0.3252,1.876h0.0293c0.1914-.458.3984-0.96,0.7676-1.7432l1.8174-3.9883h1.3l-2.6738,5.4355a13.3166,13.3166,0,0,1-2.4668,3.752,4.4835,4.4835,0,0,1-2.082,1.2412l-0.2959-1.0488a4.7693,4.7693,0,0,0,1.3145-.6943,5.5494,5.5494,0,0,0,1.374-1.64,0.5079,0.5079,0,0,0,.0439-0.3252l-1.4326-6.7207h1.2705Z"/><path d="M132.95,149.1379c0,2.2012-1.5664,4.49-3.959,4.49a2.7286,2.7286,0,0,1-2.792-2.9385c0-2.3486,1.64-4.5352,3.959-4.5352A2.7276,2.7276,0,0,1,132.95,149.1379Zm-5.48,1.5068a1.7614,1.7614,0,0,0,1.6836,2.0088c1.4482,0,2.541-1.8613,2.541-3.53a1.7677,1.7677,0,0,0-1.6689-1.9941C128.4893,147.1291,127.4551,149.0051,127.47,150.6447Z"/><path d="M140.7764,146.3166l-0.9609,5.0664c-0.1475.7979-.251,1.4922-0.3242,2.083h-1.1084l0.1924-1.3437H138.546a3.1819,3.1819,0,0,1-2.5264,1.5059,1.7769,1.7769,0,0,1-1.876-2.0674,6.6047,6.6047,0,0,1,.1328-1.1963l0.7686-4.0479h1.2256l-0.7529,3.9883a4.8291,4.8291,0,0,0-.1328,1.0488,1.0636,1.0636,0,0,0,1.1523,1.2412c0.8857,0,2.0234-1.0342,2.3184-2.6143l0.6943-3.6641h1.2266Z"/><path d="M144.3048,143.3479l-0.916,3.5752h-0.7979l0.4434-3.5752h1.2705Z"/><path d="M144.2159,153.466l1.9941-10.4873h1.2256l-2.0088,10.4873h-1.2109Z"/><path d="M147.5967,153.466l1.9941-10.4873h1.2256l-2.0088,10.4873h-1.2109Z"/><path d="M158.8057,153.0529a4.9349,4.9349,0,0,1-2.3633.5605,2.5739,2.5739,0,0,1-2.7178-2.8652c0-2.1562,1.5957-4.5937,3.8994-4.5937a1.8579,1.8579,0,0,1,2.0977,1.832c0,1.875-2.1123,2.3779-4.7559,2.333a2.9516,2.9516,0,0,0,.1475,1.3594,1.626,1.626,0,0,0,1.5947.96,3.9923,3.9923,0,0,0,1.9209-.502Zm-1.3584-5.9385a2.7525,2.7525,0,0,0-2.334,2.26c1.92,0.0146,3.4268-.2363,3.4268-1.3437A0.94,0.94,0,0,0,157.4473,147.1145Z"/><path d="M161.9356,146.3166l0.62,4.0771c0.1035,0.8125.1924,1.3584,0.2217,1.7578h0.0439a16.3441,16.3441,0,0,1,.7539-1.6689l2.1855-4.166h1.3447l-3.9736,7.1494H161.921l-1.2412-7.1494h1.2559Z"/><path d="M172.0967,153.0529a4.9349,4.9349,0,0,1-2.3633.5605,2.5739,2.5739,0,0,1-2.7178-2.8652c0-2.1562,1.5957-4.5937,3.8994-4.5937a1.8579,1.8579,0,0,1,2.0977,1.832c0,1.875-2.1123,2.3779-4.7559,2.333a2.9516,2.9516,0,0,0,.1475,1.3594,1.626,1.626,0,0,0,1.5947.96,3.9923,3.9923,0,0,0,1.9209-.502Zm-1.3584-5.9385a2.7525,2.7525,0,0,0-2.334,2.26c1.92,0.0146,3.4268-.2363,3.4268-1.3437A0.94,0.94,0,0,0,170.7384,147.1145Z"/><path d="M173.6319,153.466l0.8711-4.6084c0.1768-.9307.2949-1.876,0.3691-2.541H175.95c-0.0586.5029-.1182,1.0049-0.1914,1.5518h0.0439a2.5822,2.5822,0,0,1,2.1855-1.7139,2.4474,2.4474,0,0,1,.34.0293l-0.2363,1.2119a1.7321,1.7321,0,0,0-.3252-0.03c-1.0625,0-2.0078,1.2852-2.3184,2.9541l-0.5908,3.1465h-1.2256Z"/><path d="M181.0147,153.466l0.9609-5.0664c0.1621-.7979.251-1.4912,0.34-2.083h1.0928l-0.1777,1.4033h0.03a3.1252,3.1252,0,0,1,2.6436-1.5654,1.76,1.76,0,0,1,1.8164,1.9941,6.8684,6.8684,0,0,1-.1328,1.1523l-0.7979,4.165h-1.2256l0.7832-4.1211a4.7335,4.7335,0,0,0,.1025-0.916,1.0591,1.0591,0,0,0-1.1221-1.2549c-0.8711,0-2.1123,1.0488-2.4375,2.8213l-0.6494,3.4707h-1.2266Z"/><path d="M194.0557,153.0529a4.9349,4.9349,0,0,1-2.3633.5605,2.5739,2.5739,0,0,1-2.7178-2.8652c0-2.1562,1.5957-4.5937,3.8994-4.5937a1.8579,1.8579,0,0,1,2.0977,1.832c0,1.875-2.1123,2.3779-4.7559,2.333a2.9516,2.9516,0,0,0,.1475,1.3594,1.626,1.626,0,0,0,1.5947.96,3.9923,3.9923,0,0,0,1.9209-.502Zm-1.3584-5.9385a2.7525,2.7525,0,0,0-2.334,2.26c1.92,0.0146,3.4268-.2363,3.4268-1.3437A0.94,0.94,0,0,0,192.6973,147.1145Z"/><path d="M200.7452,153.0529a4.9349,4.9349,0,0,1-2.3633.5605,2.5739,2.5739,0,0,1-2.7178-2.8652c0-2.1562,1.5957-4.5937,3.8994-4.5937a1.8579,1.8579,0,0,1,2.0977,1.832c0,1.875-2.1123,2.3779-4.7559,2.333a2.9516,2.9516,0,0,0,.1475,1.3594,1.626,1.626,0,0,0,1.5947.96,3.9923,3.9923,0,0,0,1.9209-.502Zm-1.3584-5.9385a2.7525,2.7525,0,0,0-2.334,2.26c1.92,0.0146,3.4268-.2363,3.4268-1.3437A0.94,0.94,0,0,0,199.3868,147.1145Z"/><path d="M209.8868,142.9787l-1.5654,8.2275a17.7932,17.7932,0,0,0-.3105,2.26h-1.123l0.1924-1.418h-0.0293a3.0493,3.0493,0,0,1-2.57,1.58c-1.3887,0-2.1416-1.1367-2.1416-2.6a4.7,4.7,0,0,1,4.416-4.874,3.2415,3.2415,0,0,1,1.2705.251l0.6357-3.4268h1.2256Zm-2.0537,4.4609a2.2311,2.2311,0,0,0-1.1816-.2949c-1.7129,0-3.042,1.8164-3.042,3.7217,0,0.8564.2949,1.7578,1.3438,1.7578,0.9453,0,2.083-1.0781,2.3926-2.6885Z"/></svg>