<svg xmlns="http://www.w3.org/2000/svg" xmlns:xlink="http://www.w3.org/1999/xlink" viewBox="0 0 231.297 190.8081"><defs><style>.a,.d{fill:none;}.b{clip-path:url(#a);}.c{fill:#ef5a28;fill-rule:evenodd;}.d{stroke:#fff;stroke-miterlimit:10;stroke-width:3px;}.e{fill:#fff;}</style><clipPath id="a"><rect class="a" x="37.2509" y="17.0065" width="156.7952" height="156.7952"/></clipPath></defs><title>BC Pie</title><g class="b"><g class="b"><g class="b"><path class="c" d="M63.6729,17.0065H168.5722c14.1955,0,25.4737,12.1527,25.4737,26.3416V148.2606a25.382,25.382,0,0,1-25.4737,25.5411H63.6729c-14.1922,0-26.4222-11.3643-26.4222-25.5411V43.348c0-14.1889,12.23-26.3416,26.4222-26.3416"/><path class="c" d="M66.8636,20.8711h99.777c19.68,0,23.5414,12.2885,23.5414,23.1107v99.7748c0,14.84-4.67,26.18-23.5414,26.18H66.8636c-18.7348,0-25.7475-8.415-25.7475-26.18V43.9819c0-18.2644,7.0127-23.1107,25.7475-23.1107"/><path class="d" d="M66.8636,20.8711h99.777c19.68,0,23.5414,12.2885,23.5414,23.1107v99.7748c0,14.84-4.67,26.18-23.5414,26.18H66.8636c-18.7348,0-25.7475-8.415-25.7475-26.18V43.9819C41.116,25.7174,48.1287,20.8711,66.8636,20.8711Z"/><rect class="e" x="60.5417" y="90.8154" width="70.4172" height="14.754" transform="translate(-25.0862 163.0645) rotate(-73.9509)"/><rect class="e" x="85.1665" y="91.2299" width="70.4172" height="14.754" transform="translate(14.9784 213.084) rotate(-86.6879)"/><rect class="e" x="141.7428" y="63.6519" width="14.7542" height="70.4165"/><path class="e" d="M74.9386,83.361c-0.7354.7354-1.34,0.4847-1.3339-.5521l0.0309-32.365c0-1.0379.604-1.2886,1.3361-.5554L90.3553,65.271a1.8974,1.8974,0,0,1-.0066,2.68Z"/><path class="e" d="M72.8325,59.4522S56.8383,58.316,56.8383,70.0072c0,19.3134-.7619,3.1657,11.0419,3.1657H80.627L76.7292,59.1276a30.3886,30.3886,0,0,1-3.8967.3246"/><path class="e" d="M134.9372,105.4585c-0.2529.2529-.46,0.1667-0.4582-0.19l0.01-11.128c0-.3567.2076-0.4428,0.4593-0.191l5.29,5.2891a0.6518,0.6518,0,0,1-.0022.9209Z"/><path class="e" d="M130.339,101.9292a0.6527,0.6527,0,0,1-.6515-0.6515l0.0033-3.3468a0.6584,0.6584,0,0,1,.6515-0.6515l5.331-.0066a0.651,0.651,0,0,1,.6515.65l-0.0033,3.3468a0.6555,0.6555,0,0,1-.6515.6515Z"/><path class="e" d="M164.562,105.4585c-0.2529.2529-.46,0.1667-0.4582-0.19l0.01-11.128c0-.3567.2076-0.4428,0.4593-0.191l5.29,5.2891a0.6518,0.6518,0,0,1-.0022.9209Z"/><path class="e" d="M159.9638,101.9292a0.6527,0.6527,0,0,1-.6515-0.6515l0.0033-3.3468a0.6584,0.6584,0,0,1,.6515-0.6515l5.331-.0066a0.651,0.651,0,0,1,.6515.65l-0.0033,3.3468a0.6555,0.6555,0,0,1-.6515.6515Z"/></g></g></g></svg>