<svg xmlns="http://www.w3.org/2000/svg" class="iconic iconic-barcode" width="128" height="128" viewBox="0 0 128 128">
  <g class="iconic-metadata">
    <title>Barcode</title>
  </g>
  <g class="iconic-barcode-lg iconic-container iconic-lg" data-width="128" data-height="80" display="inline" transform="translate(0 24)">
    <path class="iconic-barcode-bar iconic-barcode-bar-21 iconic-property-fill" d="M126 0h2v80h-2z" />
    <path class="iconic-barcode-bar iconic-barcode-bar-20 iconic-property-fill" d="M122 0h2v80h-2z" />
    <path class="iconic-barcode-bar iconic-barcode-bar-19 iconic-property-fill" d="M112 0h8v80h-8z" />
    <path class="iconic-barcode-bar iconic-barcode-bar-18 iconic-property-fill" d="M108 0h2v80h-2z" />
    <path class="iconic-barcode-bar iconic-barcode-bar-17 iconic-property-fill" d="M102 0h4v80h-4z" />
    <path class="iconic-barcode-bar iconic-barcode-bar-16 iconic-property-fill" d="M98 0h2v80h-2z" />
    <path class="iconic-barcode-bar iconic-barcode-bar-15 iconic-property-fill" d="M84 0h12v80h-12z" />
    <path class="iconic-barcode-bar iconic-barcode-bar-14 iconic-property-fill" d="M78 0h4v80h-4z" />
    <path class="iconic-barcode-bar iconic-barcode-bar-13 iconic-property-fill" d="M74 0h2v80h-2z" />
    <path class="iconic-barcode-bar iconic-barcode-bar-12 iconic-property-fill" d="M64 0h8v80h-8z" />
    <path class="iconic-barcode-bar iconic-barcode-bar-11 iconic-property-fill" d="M60 0h2v80h-2z" />
    <path class="iconic-barcode-bar iconic-barcode-bar-10 iconic-property-fill" d="M54 0h4v80h-4z" />
    <path class="iconic-barcode-bar iconic-barcode-bar-9 iconic-property-fill" d="M50 0h2v80h-2z" />
    <path class="iconic-barcode-bar iconic-barcode-bar-8 iconic-property-fill" d="M46 0h2v80h-2z" />
    <path class="iconic-barcode-bar iconic-barcode-bar-7 iconic-property-fill" d="M42 0h2v80h-2z" />
    <path class="iconic-barcode-bar iconic-barcode-bar-6 iconic-property-fill" d="M34 0h6v80h-6z" />
    <path class="iconic-barcode-bar iconic-barcode-bar-5 iconic-property-fill" d="M30 0h2v80h-2z" />
    <path class="iconic-barcode-bar iconic-barcode-bar-4 iconic-property-fill" d="M22 0h6v80h-6z" />
    <path class="iconic-barcode-bar iconic-barcode-bar-3 iconic-property-fill" d="M16 0h4v80h-4z" />
    <path class="iconic-barcode-bar iconic-barcode-bar-2 iconic-property-fill" d="M4 0h10v80h-10z" />
    <path class="iconic-barcode-bar iconic-barcode-bar-1 iconic-property-fill" d="M0 0h2v80h-2z" />
  </g>
  <g class="iconic-barcode-md iconic-container iconic-md" data-width="32" data-height="20" display="none" transform="scale(4) translate(0 6)">
    <path class="iconic-barcode-bar iconic-barcode-bar-12 iconic-property-fill" d="M31 0h1v20h-1z" />
    <path class="iconic-barcode-bar iconic-barcode-bar-11 iconic-property-fill" d="M28 0h2v20h-2z" />
    <path class="iconic-barcode-bar iconic-barcode-bar-10 iconic-property-fill" d="M26 0h1v20h-1z" />
    <path class="iconic-barcode-bar iconic-barcode-bar-9 iconic-property-fill" d="M21 0h4v20h-4z" />
    <path class="iconic-barcode-bar iconic-barcode-bar-8 iconic-property-fill" d="M19 0h1v20h-1z" />
    <path class="iconic-barcode-bar iconic-barcode-bar-7 iconic-property-fill" d="M17 0h1v20h-1z" />
    <path class="iconic-barcode-bar iconic-barcode-bar-6 iconic-property-fill" d="M15 0h1v20h-1z" />
    <path class="iconic-barcode-bar iconic-barcode-bar-5 iconic-property-fill" d="M12 0h2v20h-2z" />
    <path class="iconic-barcode-bar iconic-barcode-bar-4 iconic-property-fill" d="M10 0h1v20h-1z" />
    <path class="iconic-barcode-bar iconic-barcode-bar-3 iconic-property-fill" d="M7 0h2v20h-2z" />
    <path class="iconic-barcode-bar iconic-barcode-bar-2 iconic-property-fill" d="M2 0h4v20h-4z" />
    <path class="iconic-barcode-bar iconic-barcode-bar-1 iconic-property-fill" d="M0 0h1v20h-1z" />
  </g>
  <g class="iconic-barcode-sm iconic-container iconic-sm" data-width="16" data-height="10" display="none" transform="scale(8) translate(0 3)">
    <path class="iconic-barcode-bar iconic-barcode-bar-7 iconic-property-fill" d="M15 0h1v10h-1z" />
    <path class="iconic-barcode-bar iconic-barcode-bar-6 iconic-property-fill" d="M13 0h1v10h-1z" />
    <path class="iconic-barcode-bar iconic-barcode-bar-5 iconic-property-fill" d="M10 0h2v10h-2z" />
    <path class="iconic-barcode-bar iconic-barcode-bar-4 iconic-property-fill" d="M8 0h1v10h-1z" />
    <path class="iconic-barcode-bar iconic-barcode-bar-3 iconic-property-fill" d="M6 0h1v10h-1z" />
    <path class="iconic-barcode-bar iconic-barcode-bar-2 iconic-property-fill" d="M2 0h3v10h-3z" />
    <path class="iconic-barcode-bar iconic-barcode-bar-1 iconic-property-fill" d="M0 0h1v10h-1z" />
  </g>
</svg>