<svg xmlns="http://www.w3.org/2000/svg" class="iconic iconic-browser-full-page" width="128" height="128" viewBox="0 0 128 128">
  <g class="iconic-metadata">
    <title>Browser Full Page</title>
  </g>
  <defs>
    <clipPath id="iconic-size-lg-browser-full-page-clip-0">
      <path d="M0 11v97h128v-97h-128zm124 93h-120v-90h120v90z" />
    </clipPath>
    <clipPath id="iconic-size-lg-browser-full-page-clip-1">
      <path d="M0 0v14h128v-14h-128zm8 10l-4.125-2 4.125-2v4zm4 0v-4l4 2-4 2zm110.084 0h-100.084c-1.105 0-2-.895-2-2s.895-2 2-2h100.084c1.105 0 2 .895 2 2s-.895 2-2 2z" />
    </clipPath>
    <clipPath id="iconic-size-md-browser-full-page-clip-0">
      <path d="M0 4v23h32v-23h-32zm30 21h-28v-20h28v20z" />
    </clipPath>
    <clipPath id="iconic-size-md-browser-full-page-clip-1">
      <path d="M0 0v5h32v-5h-32zm3 3l-1-.5 1-.5v1zm1 0v-1l1 .5-1 .5zm25.5 0h-23c-.276 0-.5-.224-.5-.5s.224-.5.5-.5h23c.276 0 .5.224.5.5s-.224.5-.5.5z" />
    </clipPath>
    <clipPath id="iconic-size-sm-browser-full-page-clip-0">
      <path d="M0 2.5v11.5h16v-11.5h-16zm15 10.5h-14v-10h14v10z" />
    </clipPath>
    <clipPath id="iconic-size-sm-browser-full-page-clip-1">
      <path d="M0 0v3h16v-3h-16zm1.5 2c-.276 0-.5-.224-.5-.5s.224-.5.5-.5.5.224.5.5-.224.5-.5.5zm2 0c-.276 0-.5-.224-.5-.5s.224-.5.5-.5.5.224.5.5-.224.5-.5.5zm10 0h-8c-.276 0-.5-.224-.5-.5s.224-.5.5-.5h8c.276 0 .5.224.5.5s-.224.5-.5.5z" />
    </clipPath>
  </defs>
  <g class="iconic-browser-full-page-lg iconic-container iconic-lg" data-width="128" data-height="128" display="inline">
    <path stroke="#000" stroke-width="2" class="iconic-browser-full-page-bound iconic-browser-full-page-bound-top iconic-browser-full-page-bound-left iconic-browser-full-page-bound-top-left iconic-property-accent iconic-property-stroke" d="M7 26v-9h9" fill="none"
    />
    <path stroke="#000" stroke-width="2" class="iconic-browser-full-page-bound iconic-browser-full-page-bound-bottom iconic-browser-full-page-bound-left iconic-browser-full-page-bound-bottom-left iconic-property-accent iconic-property-stroke" d="M16 127h-9v-9"
    fill="none" />
    <path stroke="#000" stroke-width="2" class="iconic-browser-full-page-bound iconic-browser-full-page-bound-bottom iconic-browser-full-page-bound-right iconic-browser-full-page-bound-bottom-right iconic-property-accent iconic-property-stroke" d="M121 118v9h-9"
    fill="none" />
    <path stroke="#000" stroke-width="2" class="iconic-browser-full-page-bound iconic-browser-full-page-bound-top iconic-browser-full-page-bound-right iconic-browser-full-page-bound-top-right iconic-property-accent iconic-property-stroke" d="M112 17h9v9"
    fill="none" />
    <path stroke="#000" stroke-width="8" class="iconic-tyle:accent iconic-browser-full-page-arrow iconic-browser-full-page-arrow-lines iconic-property-stroke" d="M64 83v-44" fill="none" />
    <path d="M64.756 103.704l12.488-21.409c.417-.716.084-1.296-.744-1.296h-25c-.828 0-1.162.58-.744 1.296l12.488 21.409c.417.716 1.094.716 1.512 0z" class="iconic-browser-full-page-arrow iconic-browser-full-page-arrow-head iconic-property-accent iconic-property-fill"
    />
    <path clip-path="url(#iconic-size-lg-browser-full-page-clip-0)" class="iconic-browser-full-page-border iconic-property-fill" d="M0 11h128v77h-128z" />
    <path clip-path="url(#iconic-size-lg-browser-full-page-clip-1)" d="M0 1.5v11c0 .828.672 1.5 1.5 1.5h125c.828 0 1.5-.672 1.5-1.5v-11c0-.828-.672-1.5-1.5-1.5h-125c-.828 0-1.5.672-1.5 1.5z" class="iconic-browser-full-page-top iconic-property-fill" />
  </g>
  <g class="iconic-browser-full-page-md iconic-container iconic-md" data-width="32" data-height="32" display="none" transform="scale(4)">
    <path stroke="#000" class="iconic-browser-full-page-bound iconic-browser-full-page-bound-top iconic-browser-full-page-bound-left iconic-browser-full-page-bound-top-left iconic-property-accent iconic-property-stroke" d="M3.5 10v-3.5h3.5" fill="none"
    />
    <path stroke="#000" class="iconic-browser-full-page-bound iconic-browser-full-page-bound-bottom iconic-browser-full-page-bound-right iconic-browser-full-page-bound-bottom-right iconic-property-accent iconic-property-stroke" d="M28.5 28v3.5h-3.5" fill="none"
    />
    <path stroke="#000" class="iconic-browser-full-page-bound iconic-browser-full-page-bound-bottom iconic-browser-full-page-bound-left iconic-browser-full-page-bound-bottom-left iconic-property-accent iconic-property-stroke" d="M7 31.5h-3.5v-3.5" fill="none"
    />
    <path stroke="#000" class="iconic-browser-full-page-bound iconic-browser-full-page-bound-top iconic-browser-full-page-bound-right iconic-browser-full-page-bound-top-right iconic-property-accent iconic-property-stroke" d="M25 6.5h3.5v3.5" fill="none"
    />
    <path class="iconic-browser-full-page-arrow iconic-browser-full-page-arrow-line iconic-property-accent iconic-property-fill" d="M14 10h4v13h-4z" />
    <path d="M15.68 27.616l-4.36-5.232c-.177-.212-.096-.384.18-.384h9c.276 0 .357.172.18.384l-4.36 5.232c-.177.212-.463.212-.64 0z" class="iconic-browser-full-page-arrow iconic-browser-full-page-arrow-head iconic-property-accent iconic-property-fill"
    />
    <path clip-path="url(#iconic-size-md-browser-full-page-clip-0)" class="iconic-browser-full-page-border iconic-property-fill" d="M0 0h32v23h-32z" />
    <path clip-path="url(#iconic-size-md-browser-full-page-clip-1)" d="M31.5 5h-31c-.276 0-.5-.224-.5-.5v-4c0-.276.224-.5.5-.5h31c.276 0 .5.224.5.5v4c0 .276-.224.5-.5.5z" class="iconic-browser-full-page-top iconic-property-fill" />
  </g>
  <g class="iconic-browser-full-page-sm iconic-container iconic-sm" data-width="16" data-height="16" display="none" transform="scale(8)">
    <path stroke="#000" class="iconic-browser-full-page-bound iconic-browser-full-page-bound-top iconic-browser-full-page-bound-left iconic-browser-full-page-bound-top-left iconic-property-accent iconic-property-stroke" d="M2.5 7v-2.5h2.5" fill="none" />
    <path stroke="#000" class="iconic-browser-full-page-bound iconic-browser-full-page-bound-bottom iconic-browser-full-page-bound-right iconic-browser-full-page-bound-bottom-right iconic-property-accent iconic-property-stroke" d="M13.5 13v2.5h-2.5" fill="none"
    />
    <path stroke="#000" class="iconic-browser-full-page-bound iconic-browser-full-page-bound-bottom iconic-browser-full-page-bound-left iconic-browser-full-page-bound-bottom-left iconic-property-accent iconic-property-stroke" d="M5 15.5h-2.5v-2.5" fill="none"
    />
    <path stroke="#000" class="iconic-browser-full-page-bound iconic-browser-full-page-bound-top iconic-browser-full-page-bound-right iconic-browser-full-page-bound-top-right iconic-property-accent iconic-property-stroke" d="M11 4.5h2.5v2.5" fill="none"
    />
    <path class="iconic-browser-full-page-arrow iconic-browser-full-page-arrow-line iconic-property-accent iconic-property-fill" d="M7 6h2v7h-2z" />
    <path class="iconic-browser-full-page-arrow iconic-browser-full-page-arrow-head iconic-property-accent iconic-property-fill" d="M8 14l3-3h-6z" />
    <path clip-path="url(#iconic-size-sm-browser-full-page-clip-0)" class="iconic-browser-full-page-border iconic-property-fill" d="M0 2.5h16v9.5h-16z" />
    <path clip-path="url(#iconic-size-sm-browser-full-page-clip-1)" class="iconic-browser-full-page-top iconic-property-fill" d="M0 0h16v3h-16z" />
  </g>
</svg>