<svg xmlns="http://www.w3.org/2000/svg" class="iconic iconic-copyleft" width="128" height="128" viewBox="0 0 128 128">
  <g class="iconic-metadata">
    <title>Copyleft</title>
  </g>
  <g class="iconic-copyleft-lg iconic-container iconic-lg" data-width="128" data-height="128" display="inline">
    <circle stroke="#000" stroke-width="12" cx="64" cy="64" r="58" class="iconic-copyleft-container iconic-property-stroke" fill="none" />
    <path fill="#fff" stroke="#000" stroke-width="12" d="M41.373 41.373c5.791-5.791 13.791-9.373 22.627-9.373s16.837 3.582 22.627 9.373 9.373 13.791 9.373 22.627-3.582 16.837-9.373 22.627-13.791 9.373-22.627 9.373-16.837-3.582-22.627-9.373" class="iconic-copyleft-c iconic-property-stroke"
    />
  </g>
  <g class="iconic-copyleft-md iconic-container iconic-md" data-width="32" data-height="32" display="none" transform="scale(4)">
    <circle stroke="#000" stroke-width="3" cx="16" cy="16" r="14.5" class="iconic-copyleft-container iconic-property-stroke" fill="none" />
    <path fill="#fff" stroke="#000" stroke-width="3" d="M10.697 10.697c1.357-1.357 3.232-2.197 5.303-2.197s3.946.84 5.303 2.197 2.197 3.232 2.197 5.303-.84 3.946-2.197 5.303-3.232 2.197-5.303 2.197-3.946-.84-5.303-2.197" class="iconic-copyleft-c iconic-property-stroke"
    />
  </g>
  <g class="iconic-copyleft-sm iconic-container iconic-sm" data-width="16" data-height="16" display="none" transform="scale(8)">
    <circle stroke="#000" stroke-width="2" cx="8" cy="8" r="7" class="iconic-copyleft-container iconic-property-stroke" fill="none" />
    <path fill="#fff" stroke="#000" stroke-width="2" d="M5.879 5.879c.543-.543 1.293-.879 2.121-.879s1.578.336 2.121.879c.543.543.879 1.293.879 2.121s-.336 1.578-.879 2.121c-.543.543-1.293.879-2.121.879s-1.578-.336-2.121-.879" class="iconic-copyleft-c iconic-property-stroke"
    />
  </g>
</svg>