<svg xmlns="http://www.w3.org/2000/svg" class="iconic iconic-loupe" width="128" height="128" viewBox="0 0 128 128">
  <g class="iconic-metadata">
    <title>Loupe</title>
  </g>
  <g class="iconic-loupe-lg iconic-container iconic-lg" data-width="128" data-height="128" display="inline">
    <path d="M106.337 104l-14.219 9.06-28.118 14.939h59c2.761 0 5-2.239 5-5v-59l-21.663 40zm9.663 16c-2.209 0-4-1.791-4-4s1.791-4 4-4 4 1.791 4 4-1.791 4-4 4z" class="iconic-loupe-tab iconic-property-fill" />
    <circle stroke="#000" stroke-width="8" cx="64" cy="64" r="60" class="iconic-loupe-ring iconic-property-stroke" fill="none" />
  </g>
  <g class="iconic-loupe-md iconic-container iconic-md" data-width="32" data-height="32" display="none" transform="scale(4)">
    <path d="M26.584 26l-10.584 6h14c1.105 0 2-.895 2-2v-14l-5.416 10z" class="iconic-loupe-tab iconic-property-fill" />
    <circle stroke="#000" stroke-width="3" cx="16" cy="16" r="14.5" class="iconic-loupe-ring iconic-property-stroke" fill="none" />
  </g>
  <g class="iconic-loupe-sm iconic-container iconic-sm" data-width="16" data-height="16" display="none" transform="scale(8)">
    <path d="M16 8l-2.416 5-5.584 3h6.97l.005-.005c.009 0 .016.005.025.005.552 0 1-.448 1-1v-7z" class="iconic-loupe-tab iconic-property-fill" />
    <circle stroke="#000" stroke-width="2" cx="8" cy="8" r="7" class="iconic-loupe-ring iconic-property-stroke" fill="none" />
  </g>
</svg>