<svg xmlns="http://www.w3.org/2000/svg" class="iconic iconic-menu-selected" width="128" height="128" viewBox="0 0 128 128">
  <g class="iconic-metadata">
    <title>Menu Selected</title>
  </g>
  <defs>
    <clipPath id="iconic-size-lg-menu-selected-clip-0">
      <path d="M118 40l-8 8h-110v-8z" />
    </clipPath>
    <clipPath id="iconic-size-md-menu-selected-clip-0">
      <path d="M28 10l-3 3h-25v-3z" />
    </clipPath>
    <clipPath id="iconic-size-sm-menu-selected-clip-0">
      <path d="M11 8h-11v-2h13z" />
    </clipPath>
  </defs>
  <g class="iconic-menu-selected-lg iconic-container iconic-lg" data-width="128" data-height="98" display="inline" transform="translate(0 15)">
    <path stroke="#000" stroke-width="8" stroke-linecap="square" class="iconic-menu-selected-line-1 iconic-property-stroke" d="M4 4h120" fill="none" />
    <path stroke="#000" stroke-width="8" stroke-linecap="square" class="iconic-menu-selected-line-3 iconic-property-stroke" d="M4 84h56" fill="none" />
    <path class="iconic-menu-selected-checkmark iconic-property-accent iconic-property-fill" d="M128 58l-6-6-34 34-12-12-6 6 18 18z" />
    <path clip-path="url(#iconic-size-lg-menu-selected-clip-0)" stroke="#000" stroke-width="8" stroke-linecap="square" class="iconic-menu-selected-line-2 iconic-property-stroke" d="M4 44h120" fill="none" />
  </g>
  <g class="iconic-menu-selected-md iconic-container iconic-md" data-width="32" data-height="25" display="none" transform="scale(4) translate(0 3)">
    <path stroke="#000" stroke-width="3" stroke-linecap="square" class="iconic-menu-selected-line-1 iconic-property-stroke" d="M1.5 1.5h29" fill="none" />
    <path stroke="#000" stroke-width="3" stroke-linecap="square" class="iconic-menu-selected-line-3 iconic-property-stroke" d="M1.5 21.5h12" fill="none" />
    <path class="iconic-menu-selected-checkmark iconic-property-accent iconic-property-fill" d="M32 15l-2-2-8 8-3-3-2 2 5 5z" />
    <path clip-path="url(#iconic-size-md-menu-selected-clip-0)" stroke="#000" stroke-width="3" stroke-linecap="square" class="iconic-menu-selected-line-2 iconic-property-stroke" d="M1.5 11.5h29" fill="none" />
  </g>
  <g class="iconic-menu-selected-sm iconic-container iconic-sm" data-width="16" data-height="15" display="none" transform="scale(8)">
    <path stroke="#000" stroke-width="2" stroke-linecap="square" class="iconic-menu-selected-line-1 iconic-property-stroke" d="M1 1h14" fill="none" />
    <path stroke="#000" stroke-width="2" stroke-linecap="square" class="iconic-menu-selected-line-3 iconic-property-stroke" d="M1 13h3" fill="none" />
    <path class="iconic-menu-selected-checkmark iconic-property-accent iconic-property-fill" d="M16 9l-1.5-1.5-4.5 4.5-2-2-1.5 1.5 3.5 3.5z" />
    <path clip-path="url(#iconic-size-sm-menu-selected-clip-0)" stroke="#000" stroke-width="2" stroke-linecap="square" class="iconic-menu-selected-line-2 iconic-property-stroke" d="M1 7h14" fill="none" />
  </g>
</svg>