<svg xmlns="http://www.w3.org/2000/svg" class="iconic iconic-network" width="128" height="128" viewBox="0 0 128 128">
  <g class="iconic-metadata">
    <title>Network</title>
  </g>
  <g class="iconic-network-lg iconic-container iconic-lg" data-width="128" data-height="128" display="inline">
    <path d="M107.048 68.396c-6.809-8.86-14.966-17.612-24.364-26.041.809-.888 1.316-2.059 1.316-3.355 0-.433-.072-.846-.175-1.246 11.022-5.802 21.841-10.245 30.965-12.677 4.899 6.383 8.616 13.716 10.839 21.675-2.146 6.349-6.299 13.889-14.023 22-.761-.468-1.648-.751-2.607-.751-.693 0-1.352.141-1.952.396zm-32.968-30.194c.028-.172.068-.338.112-.504-14.235-11.718-29.813-21.575-43.873-28.116-15.315 9.499-26.314 25.278-29.416 43.743 24.332-13.339 48.041-18.212 73.177-15.123zm-18.81 15.077c6.127-4.532 12.568-8.759 19.05-12.569-.057-.156-.107-.315-.148-.478-25.277-3.17-49.105 1.843-73.632 15.583-.343 2.682-.539 5.41-.539 8.185 0 14.083 4.56 27.096 12.268 37.665 6.339-13.754 18.866-30.534 43.002-48.385zm25.764-9.72c-.623.278-1.308.44-2.034.44-1.425 0-2.703-.603-3.614-1.56-6.478 3.789-12.89 7.982-18.927 12.447-24.428 18.068-36.765 34.937-42.82 48.581 1.65 2.102 3.418 4.105 5.313 5.984.954.055 1.94.086 2.965.086 11.816 0 27.068-3.727 42.144-9.935-.024-.2-.061-.396-.061-.602 0-2.761 2.239-5 5-5 1.506 0 2.84.679 3.756 1.732 5.443-2.608 10.773-5.508 15.804-8.662 6.294-3.946 11.594-7.867 16.061-11.703-.384-.708-.621-1.506-.621-2.367 0-1.349.54-2.568 1.408-3.467-6.797-8.83-14.958-17.561-24.374-25.973zm-9.357 59.651c-.775.494-1.689.789-2.676.789-1.839 0-3.429-1.004-4.297-2.483-15.52 6.366-30.986 10.021-42.786 10.021-.27 0-.519-.018-.785-.022 11.347 10.244 26.378 16.484 42.868 16.484 8.255 0 16.137-1.58 23.382-4.426-4.138-7.067-9.354-14.11-15.706-20.363zm39.473-25.714c-.653.313-1.376.503-2.149.503-1.179 0-2.249-.425-3.104-1.108-9.321 8.039-20.55 15.041-32.152 20.605.151.477.255.976.255 1.503 0 1.065-.339 2.048-.906 2.859 5.232 5.321 11.042 12.708 16.044 21.009 13.49-5.768 24.589-16.038 31.424-28.92-2.58-5.463-5.724-10.964-9.412-16.452zm10.547 14.235c4.04-8.39 6.304-17.796 6.304-27.732 0-4.729-.528-9.333-1.501-13.769-2.883 7.005-7.549 13.678-13.441 19.867.588.82.942 1.817.942 2.903 0 1.266-.486 2.409-1.262 3.29 3.463 5.146 6.447 10.306 8.957 15.442zm-46.569-55.858c.917-1.134 2.302-1.873 3.873-1.873 1.592 0 2.994.758 3.91 1.918 10.81-5.708 21.402-10.089 30.51-12.585-11.738-14.248-29.517-23.333-49.419-23.333-11.462 0-22.21 3.028-31.516 8.305 13.699 6.516 28.672 16.09 42.643 27.568z"
    class="iconic-property-fill" />
  </g>
  <g class="iconic-network-md iconic-container iconic-md" data-width="32" data-height="32" display="none" transform="scale(4)">
    <path d="M25.726 17.47c-.44.367-.726.912-.726 1.53 0 .257.053.501.141.727-1.972 1.538-4.237 2.896-6.579 4.02-.367-.452-.92-.747-1.547-.747-1.105 0-2 .895-2 2 0 .082.015.161.024.24-3.405 1.262-6.736 1.981-9.33 1.981-.414 0-.797-.027-1.166-.065-.326-.335-.641-.68-.937-1.042 2.614-5.823 8.764-11.122 14.945-14.742.365.385.877.628 1.449.628.223 0 .433-.045.633-.112 1.845 1.735 3.576 3.608 5.093 5.582zm-8.156-8.265c-3.451-2.799-7.08-5.072-10.314-6.595-3.57 2.336-6.145 6.057-6.967 10.404 5.749-3.112 11.368-4.345 17.281-3.809zm-3.896 4.16c1.416-1.02 2.902-1.973 4.403-2.845-.023-.087-.04-.175-.051-.266-6.138-.669-11.946.63-17.928 4.015-.061.569-.097 1.146-.097 1.731 0 3.426 1.086 6.593 2.92 9.196 2.517-5.237 7.433-9.438 10.754-11.831zm15.326 5.635c0 .379-.111.729-.294 1.031.607.998 1.153 2.013 1.632 3.038 1.054-2.134 1.662-4.527 1.662-7.068 0-.903-.093-1.783-.237-2.646-.699 1.613-1.757 3.143-3.087 4.56.203.313.324.684.324 1.085zm-10.953 7.706c-.302.183-.652.294-1.031.294-.661 0-1.243-.325-1.607-.82-3.554 1.308-7.024 2.041-9.699 2.041-.009 0-.017-.002-.026-.002 2.786 2.355 6.383 3.78 10.317 3.78 1.904 0 3.721-.35 5.415-.96-1.051-1.637-2.237-3.134-3.368-4.335zm9.921-5.966c-.288.16-.615.26-.968.26-.471 0-.899-.17-1.241-.443-2.04 1.588-4.372 2.975-6.776 4.119.017.106.033.213.033.324 0 .362-.104.697-.272.99 1.214 1.289 2.493 2.911 3.614 4.69 3.095-1.343 5.671-3.639 7.383-6.514-.505-1.159-1.094-2.305-1.774-3.426zm-.968-3.74c.329 0 .635.087.909.228 1.665-1.764 2.889-3.69 3.442-5.715-.488-1.673-1.239-3.232-2.21-4.63-2.098.48-4.584 1.394-7.195 2.667.033.145.055.294.055.449 0 .477-.174.91-.453 1.254 1.865 1.801 3.603 3.742 5.125 5.779.107-.018.216-.033.328-.033zm-8.418-8.41c.362-.364.863-.59 1.418-.59.602 0 1.135.271 1.501.691 2.484-1.211 4.896-2.134 6.994-2.67-2.932-3.667-7.435-6.022-12.495-6.022-2.747 0-5.332.694-7.591 1.914 3.292 1.592 6.838 3.893 10.173 6.676z"
    class="iconic-property-fill" />
  </g>
  <g class="iconic-network-sm iconic-container iconic-sm" data-width="16" data-height="16" display="none" transform="scale(8)">
    <path d="M.206 6.218c.445-1.953 1.602-3.631 3.186-4.751 1.542.707 3.275 1.763 4.946 3.081-2.863-.21-5.516.339-8.132 1.67zm10.382.31c-.273.29-.658.472-1.088.472-.311 0-.6-.095-.839-.256-2.416 1.761-4.642 4.09-5.626 6.607 1.135-.028 2.525-.316 3.969-.81 0-.014-.004-.027-.004-.041 0-.828.672-1.5 1.5-1.5.423 0 .803.176 1.076.458.881-.445 1.726-.956 2.496-1.521-.043-.139-.072-.284-.072-.437 0-.382.147-.726.381-.991-.553-.689-1.156-1.353-1.793-1.982zm-3.368.019c.276-.219.561-.426.846-.632-.035-.12-.058-.244-.061-.375-2.802-.154-5.4.472-7.976 1.913-.012.182-.028.363-.028.548 0 2.02.755 3.861 1.99 5.269 1.049-3.002 3.571-5.403 5.229-6.722zm7.78 2.954c0 .287-.085.553-.225.781.188.327.359.658.52.99.449-.999.704-2.104.704-3.271 0-.31-.022-.614-.056-.915-.297.585-.682 1.148-1.142 1.683.123.217.198.465.198.732zm-5.872 4.358c-.192.089-.403.142-.628.142-.461 0-.868-.212-1.143-.539-1.537.532-3.011.839-4.218.882 1.348 1.035 3.03 1.657 4.861 1.657.856 0 1.679-.138 2.453-.387-.417-.641-.872-1.242-1.325-1.755zm4.372-5.858c.204 0 .398.042.576.115.757-.888 1.265-1.852 1.431-2.859-.203-.556-.463-1.083-.779-1.574-1.08.264-2.39.806-3.753 1.572.013.08.025.161.025.245 0 .011-.003.021-.003.032.807.784 1.568 1.62 2.251 2.494.082-.014.166-.025.252-.025zm.515 2.903c-.161.059-.333.097-.515.097-.317 0-.61-.1-.852-.267-.826.606-1.729 1.146-2.663 1.617.005.05.015.099.015.151 0 .234-.058.453-.154.651.524.591 1.067 1.305 1.557 2.081 1.353-.638 2.498-1.639 3.307-2.884-.202-.487-.428-.971-.694-1.445zm-4.707-6.884c.063-.008.126-.019.191-.019.376 0 .715.143.978.371 1.261-.703 2.506-1.24 3.608-1.556-1.467-1.721-3.647-2.815-6.086-2.815-1.271 0-2.468.304-3.535.831 1.575.785 3.253 1.875 4.843 3.188z"
    class="iconic-property-fill" />
  </g>
</svg>