<svg xmlns="http://www.w3.org/2000/svg" class="iconic iconic-palette" width="128" height="128" viewBox="0 0 128 128">
  <g class="iconic-metadata">
    <title>Palette</title>
  </g>
  <g class="iconic-palette-lg iconic-container iconic-lg" data-width="120" data-height="128" display="inline" transform="translate(4)">
    <path d="M95.88 66.445c28.158-10.445 27.262-34.709 19.278-45.19-10.986-14.422-27.013-21.255-51.052-21.255-35.405 0-64.106 28.654-64.106 64 0 35.346 28.701 64 64.106 64 16.026 0 34.67-2.203 39.065-13.833 2.33-6.167.83-14.042-11.17-20.856-12.372-7.026-12.147-20.921 3.88-26.865zm-74.88-28.445c2.761 0 5 2.239 5 5s-2.239 5-5 5-5-2.239-5-5 2.239-5 5-5zm-6 34c-2.761 0-5-2.239-5-5s2.239-5 5-5 5 2.239 5 5-2.239 5-5 5zm10 24c-2.761 0-5-2.239-5-5s2.239-5 5-5 5 2.239 5 5-2.239 5-5 5zm7-75c0-2.761 2.239-5 5-5s5 2.239 5 5-2.239 5-5 5-5-2.239-5-5zm13 93c-2.761 0-5-2.239-5-5s2.239-5 5-5 5 2.239 5 5-2.239 5-5 5zm16-96c-2.761 0-5-2.239-5-5s2.239-5 5-5 5 2.239 5 5-2.239 5-5 5zm10 100c-2.761 0-5-2.239-5-5s2.239-5 5-5 5 2.239 5 5-2.239 5-5 5zm6-52c-5.523 0-10-4.477-10-10s4.477-10 10-10 10 4.477 10 10-4.477 10-10 10zm5-47c0-2.761 2.239-5 5-5s5 2.239 5 5-2.239 5-5 5-5-2.239-5-5z"
    class="iconic-property-fill" />
  </g>
  <g class="iconic-palette-md iconic-container iconic-md" data-width="30" data-height="32" display="none" transform="scale(4) translate(1)">
    <path d="M23.97 16.611c7.04-2.611 6.816-8.677 4.82-11.297-2.747-3.606-6.753-5.314-12.763-5.314-8.851 0-16.026 7.163-16.026 16 0 8.836 7.175 16 16.026 16 4.007 0 8.668-.551 9.766-3.458.582-1.542.207-3.51-2.793-5.214-3.093-1.756-3.037-5.23.97-6.716zm-18.47 4.389c-.828 0-1.5-.672-1.5-1.5s.672-1.5 1.5-1.5 1.5.672 1.5 1.5-.672 1.5-1.5 1.5zm0-8c-.828 0-1.5-.672-1.5-1.5s.672-1.5 1.5-1.5 1.5.672 1.5 1.5-.672 1.5-1.5 1.5zm2.5-7.5c0-.828.672-1.5 1.5-1.5s1.5.672 1.5 1.5-.672 1.5-1.5 1.5-1.5-.672-1.5-1.5zm2.5 21.5c-.828 0-1.5-.672-1.5-1.5s.672-1.5 1.5-1.5 1.5.672 1.5 1.5-.672 1.5-1.5 1.5zm3.5-23.5c0-.828.672-1.5 1.5-1.5s1.5.672 1.5 1.5-.672 1.5-1.5 1.5-1.5-.672-1.5-1.5zm3.5 25.5c-.828 0-1.5-.672-1.5-1.5s.672-1.5 1.5-1.5 1.5.672 1.5 1.5-.672 1.5-1.5 1.5zm0-12c-1.381 0-2.5-1.119-2.5-2.5s1.119-2.5 2.5-2.5 2.5 1.119 2.5 2.5-1.119 2.5-2.5 2.5zm2.5-11.5c0-.828.672-1.5 1.5-1.5s1.5.672 1.5 1.5-.672 1.5-1.5 1.5-1.5-.672-1.5-1.5z"
    class="iconic-property-fill" />
  </g>
  <g class="iconic-palette-sm iconic-container iconic-sm" data-width="15" data-height="16" display="none" transform="scale(8)">
    <path d="M11.985 8.306c3.52-1.306 3.408-4.339 2.41-5.649-1.373-1.803-3.377-2.657-6.382-2.657-4.426 0-8.013 3.582-8.013 8s3.588 8 8.013 8c2.003 0 4.209-.329 4.883-1.729.366-.761-.146-1.958-1.273-2.513-1.596-.785-1.641-2.71.362-3.453zm-8.985 2.694c-.552 0-1-.448-1-1s.448-1 1-1 1 .448 1 1-.448 1-1 1zm0-4c-.552 0-1-.448-1-1s.448-1 1-1 1 .448 1 1-.448 1-1 1zm1-4c0-.552.448-1 1-1s1 .448 1 1-.448 1-1 1-1-.448-1-1zm2 11c-.552 0-1-.448-1-1s.448-1 1-1 1 .448 1 1-.448 1-1 1zm1-12c0-.552.448-1 1-1s1 .448 1 1-.448 1-1 1-1-.448-1-1zm2 7c-.552 0-1-.448-1-1s.448-1 1-1 1 .448 1 1-.448 1-1 1zm1-6c0-.552.448-1 1-1s1 .448 1 1-.448 1-1 1-1-.448-1-1z"
    class="iconic-property-fill" />
  </g>
</svg>