<svg version="1.1" xmlns="http://www.w3.org/2000/svg" data-icon="platform" width="128" height="128" class="iconic iconic-platform" viewBox="0 0 128 128">
  <g><title>Platform</title></g>

  <!-- Android -->
  <g data-width="109" data-height="128" class="iconic-lg iconic-container" display="inline" transform="translate(9)">
    <g class="iconic-platform-android" display="none">
      <path d="M7.899 41.403c-4.362-.002-7.898 3.541-7.899 7.9l.006 33.083c.001 4.374 3.538 7.903 7.901 7.902 4.366 0 7.902-3.531 7.898-7.902l.001-33.087c-.002-4.358-3.543-7.898-7.906-7.895" class="iconic-platform-android-arm iconic-platform-android-arm-left iconic-property-fill"/>
      <path d="M108.342 49.29c-.001-4.363-3.537-7.899-7.9-7.898-4.362-.003-7.898 3.539-7.897 7.902l.005 33.083c0 4.368 3.534 7.898 7.9 7.899 4.362-.001 7.897-3.531 7.898-7.902l-.006-33.084z" class="iconic-platform-android-arm iconic-platform-android-arm-right iconic-property-fill"/>
      <path d="M18.866 42.894l.012 51.269c-.004 4.664 3.768 8.428 8.429 8.429l5.74.002.007 17.505c-.001 4.357 3.542 7.901 7.894 7.901 4.365 0 7.902-3.546 7.903-7.906l-.004-17.501 10.666-.002.004 17.504c-.001 4.356 3.544 7.904 7.897 7.897 4.365.003 7.904-3.543 7.903-7.904l-.005-17.499 5.76-.004c4.65.002 8.432-3.768 8.433-8.431l-.009-51.27-70.63.012z" class="iconic-platform-android-body iconic-property-fill"/>
      <path d="M71.608 11.694l5.514-10.07c.294-.526.101-1.196-.432-1.494-.538-.285-1.202-.091-1.487.439l-5.569 10.175c-4.688-2.085-9.931-3.256-15.48-3.249-5.535-.005-10.777 1.161-15.444 3.234l-5.575-10.148c-.29-.536-.957-.729-1.484-.438-.537.289-.733.96-.435 1.485l5.517 10.062c-10.839 5.59-18.162 16.235-18.156 28.455l71.163-.007c.002-12.219-7.308-22.841-18.131-28.445zm-33.64 15.56c-1.639-.004-2.974-1.336-2.974-2.981.001-1.639 1.333-2.987 2.977-2.987 1.65-.001 2.985 1.348 2.987 2.986.001 1.644-1.337 2.981-2.989 2.982zm32.403-.006c-1.645.002-2.984-1.332-2.984-2.983.005-1.635 1.337-2.984 2.985-2.99 1.636.005 2.978 1.354 2.977 2.991.004 1.647-1.334 2.982-2.978 2.981z" class="iconic-platform-android-head iconic-property-fill"/>
    </g>
  </g>
  <!-- Apple -->
  <g data-width="105" data-height="128" class="iconic-lg iconic-container" display="inline" transform="translate(11)">
    <g class="iconic-platform-apple" display="none">
      <path d="M100.793 41.885c-9.109 6.874-13.646 15.13-13.62 24.776.034 11.531 5.697 20.358 16.998 26.499-3.011 9.296-7.369 17.407-13.1 24.307-5.723 6.925-10.96 10.38-15.701 10.397-2.243 0-5.288-.768-9.151-2.311l-1.859-.734c-3.795-1.603-7.156-2.345-10.055-2.345-2.755.017-5.766.631-9.032 1.868l-2.328.895-2.934 1.262c-2.303.981-4.64 1.484-7.002 1.501-5.544.017-11.676-4.793-18.405-14.473-9.697-13.825-14.559-28.938-14.601-45.279-.034-11.625 2.951-20.989 8.955-28.111 6.004-7.113 13.97-10.687 23.898-10.721 3.719-.009 7.181.708 10.422 2.132l2.217.947 2.328 1.006c2.072.921 3.753 1.382 5.023 1.382 1.637 0 3.454-.409 5.441-1.228l3.053-1.271 2.269-.887c3.625-1.407 7.633-2.115 12.017-2.132 10.422-.043 18.806 4.128 25.168 12.52z" class="iconic-platform-apple-body iconic-property-fill"/>
      <path d="M76.026 0c.119 1.476.188 2.618.196 3.42.017 7.309-2.49 13.731-7.497 19.267s-10.84 8.299-17.501 8.307c-.196-1.646-.307-2.832-.307-3.548-.017-6.218 2.303-12.06 6.96-17.518 4.64-5.467 10.038-8.665 16.179-9.612.443-.077 1.1-.196 1.97-.316z" class="iconic-platform-apple-leaf iconic-property-fill"/>
    </g>
  </g>
  <!-- Linux -->
  <g data-width="106" data-height="128" class="iconic-lg iconic-container" display="inline" transform="translate(11)">
    <g class="iconic-platform-linux">
      <path d="M103.749 103.25c-1.469-2.031-2.697-3.232-3.33-5.752-.624-2.484-.955-5.301-2.996-7.089-.456-.402-.97-.742-1.517-1.004-.874-.42-.262-.966-.041-1.796.41-1.538.674-3.114.791-4.7.245-3.323-.158-6.668-1.021-9.88-1.555-5.791-4.517-11.135-7.963-16.004-2.975-4.204-6.56-7.953-9.369-12.277-2.764-4.254-3.855-8.577-3.785-13.614.045-3.241.064-6.486-.179-9.721-.379-5.041-1.333-10.371-4.256-14.613-3.33-4.831-8.836-6.794-14.54-6.801-7.458-.014-14.85 2.683-17.976 9.908-2.394 5.534-2.17 11.846-1.796 17.737.51 8.042-.29 16.218-5.696 22.712-7.173 8.617-14.323 19.102-15.754 30.484-.185 1.468-.257 2.952-.184 4.431.036.727.107 1.453.216 2.173-.538.482-1.013 1.032-1.461 1.597-.904 1.14-1.675 2.398-2.677 3.458-.983.98-2.359 1.408-3.638 1.851-2.156.747-4.138 1.737-5.243 3.848-1.544 3.02-.049 6.411.003 9.573.045 2.7-1.657 5.077-1.285 7.874.356 2.677 2.508 4.066 4.961 4.671 2.911.718 5.952.791 8.905 1.272 1.576.257 3.144.606 4.644 1.162.829.307 1.401.601 1.872.834 5.711 2.986 14.903 5.253 19.587-.948.231-.305.423-.637.602-.976.404-.767.824-.531 1.633-.616 1.366-.144 2.714-.432 4.062-.688 3.319-.631 6.699-1.14 10.077-.753 3.451.395 6.855 1.098 10.348.904.669 2.778 2.827 5.271 5.381 6.491 6.293 3.006 13.36-1.255 17.38-6.039.292-.377.292-.377.857-.945.888-.894 1.89-1.667 2.943-2.355 2.217-1.448 4.649-2.504 7.003-3.701 1.976-1.004 4.387-2.228 5.172-4.464.775-2.208-.466-4.495-1.73-6.242zm-50.988-81.411c.977-2.214 2.966-4.153 5.519-4.139 4.083 0 6.31 4.435 6.377 8.004 0 1.668-.297 3.247-1.062 4.743-.351.686-.577 1.493-1.369 1.167-.857-.217-1.947-.775-2.735-1.049 1.57-1.887 1.878-7.021-1.082-7.899-2.924-.867-3.802 3.725-3.463 5.681-.578-.288-1.173-.542-1.783-.751-1.103-.377-1.181-.311-1.209-1.546-.03-1.451.221-2.881.808-4.211zm4.287 9.252c2.051.922 5.099 1.248 6.49 3.214 1.936 2.736-1.702 5.58-3.88 6.544-1.197.53-2.34.894-3.464 1.61-1.354.863-2.699 1.75-4.275 2.152-3.123.795-5.468-.346-7.719-2.385-1.777-1.61-4.615-2.582-5.368-5.071-.819-2.708 2.712-3.949 4.341-5.393 2.022-1.714 3.784-3.375 6.63-3.385 2.826-.011 4.801 1.616 7.245 2.714zm-14.47-12.148c2.417.006 3.89 2.609 4.446 4.641.263.962.37 1.973.362 2.97-.01 1.196-1.621 1.687-2.626 2.232.21-1.481-1.261-7.203-3.421-4.572-1.352 1.647-1.046 5.326.742 6.584-.393.303-.793.597-1.193.891-.718.527-1.202-.631-1.539-1.257-.813-1.51-1.169-3.214-1.156-4.921.018-2.515 1.223-6.602 4.386-6.569zm-8.04 103.121c-4.544 2.168-9.733.13-13.91-1.865-4.385-2.094-9.167-1.646-13.755-2.811-4.774-1.212-2.793-4.977-2.137-8.446.8-4.229-2.697-9.485 2.775-11.61 1.724-.67 3.509-1.075 4.876-2.412 1.591-1.678 2.666-4.306 4.849-5.329.495-.232 1.041-.342 1.586-.336 4.948.019 7.68 6.655 9.45 10.36 2.245 4.697 6.201 8.139 8.682 12.674 1.873 3.424 1.46 7.925-2.417 9.774zm33.199-12.365c-3.149 2.156-6.691 3.784-10.423 4.614-3.774.84-7.735.824-11.457-.264-1.981-.579-3.872-1.451-5.611-2.561-1.677-1.07-2.955-3.711-4.211-5.289 4.137.003 5.197-3.337 3.463-6.641-1.796-3.422-5.018-6.08-8.13-8.255-3.316-2.317-4.152-3.503-4.826-6.941-3.016-15.397 12.459-27.979 13.284-43.529 3.946 2.865 7.343 6.601 12.686 5.042 2.424-.707 4.272-2.273 6.579-3.394 2.026-1.089 4.078-1.62 5.578-3.75 2.273 8.962 6.056 17.443 10.201 25.668 2.291 4.546 3.478 7.596 4.387 12.615 14.475 1.078 15.071 11.446 12.402 11.672.856-2.707-1.693-4.467-3.767-5.587-2.518-1.36-6.543-3.32-9.396-1.774-1.211.657-1.794 1.946-1.992 3.257-.218 1.182-2.746 2.131-3.624 3.333-2.255 3.084-2.5 7.359-2.745 11.031-.108 1.622-.101 3.259-.41 4.859-.302 1.563-.67 4.994-1.985 5.894zm28.579 3.063c-1.888.906-3.763 1.864-5.454 3.11-2.09 1.541-3.539 3.701-5.555 5.322-3.142 2.526-7.904 4.385-11.701 2.132-4.297-2.55-3.865-7.324-2.746-11.53.704-2.647 1.685-5.248 2.104-7.963.365-2.366.284-4.793.584-7.172.35-2.78 1.002-6.211 3.786-7.568.128 2.075.862 4.36 2.506 5.733 1.816 1.517 4.213 1.106 6.212.203 1.709-.772 3.402-2.97 5.164-3.013 1.953-.047 3.929.436 4.926 2.265 1.073 1.97 1.102 4.316 1.905 6.385.747 1.927 2.463 3.238 3.455 5.033 2.192 3.965-2.183 5.622-5.186 7.064z" class="iconic-platform-linux-body iconic-property-fill"/>
      <path d="M61.375 35.457c-.964-.647-3.707 1.73-5.247 2.618-1.944 1.122-4.063 2.179-6.335 2.369-2.034.171-4.079-.37-5.654-1.63-1.253-1.002-3.381-3.178-3.819-2.765-.611.576 1.492 2.125 2.413 2.854 2.021 1.601 4.454 2.647 7.073 2.449 2.687-.202 5.138-1.517 7.412-2.866 1.108-.658 2.2-1.412 3.398-1.899.651-.265 1.537-.607.758-1.13z" class="iconic-platform-linux-mouth iconic-property-fill"/>
    </g>
  </g>
  <!-- Microsoft -->
  <g data-width="128" data-height="128" class="iconic-lg iconic-container" display="inline">
    <g class="iconic-platform-microsoft" display="none">
      <path class="iconic-platform-microsoft-top iconic-platform-microsoft-left iconic-platform-microsoft-top-left iconic-property-fill" d="M0 18.123l52.309-7.102.023 50.301-52.285.297z"/>
      <path class="iconic-platform-microsoft-bottom iconic-platform-microsoft-left iconic-platform-microsoft-bottom-left iconic-property-fill" d="M52.285 67.118l.041 50.345-52.285-7.166-.003-43.517z"/>
      <path class="iconic-platform-microsoft-top iconic-platform-microsoft-right iconic-platform-microsoft-top-right iconic-property-fill" d="M58.626 10.091l69.358-10.091v60.682l-69.358.549z"/>
      <path class="iconic-platform-microsoft-bottom iconic-platform-microsoft-right iconic-platform-microsoft-bottom-right iconic-property-fill" d="M128 67.591l-.016 60.409-69.358-9.759-.097-50.763z"/>
    </g>
  </g>




  <!-- Android -->
  <g data-width="28" data-height="32" class="iconic-md iconic-container" display="none" transform="scale(4) translate(2)">
    <g class="iconic-platform-android" display="none">
      <path d="M1.975 10.351c-1.091-.001-1.975.885-1.975 1.975l.001 8.271c0 1.093.885 1.976 1.975 1.976 1.091 0 1.976-.883 1.974-1.976v-8.272c0-1.089-.886-1.975-1.976-1.974" class="iconic-platform-android-arm iconic-platform-android-arm-left iconic-property-fill"/>
      <path d="M27.085 12.322c0-1.091-.884-1.975-1.975-1.975-1.091-.001-1.975.885-1.974 1.976l.001 8.271c0 1.092.884 1.974 1.975 1.975 1.091 0 1.974-.883 1.974-1.976l-.002-8.271z" class="iconic-platform-android-arm iconic-platform-android-arm-right iconic-property-fill"/>
      <path d="M4.716 10.724l.003 12.817c-.001 1.166.942 2.107 2.107 2.107l1.435.001.002 4.376c0 1.089.885 1.975 1.973 1.975 1.091 0 1.976-.886 1.976-1.977l-.001-4.375 2.666-.001.001 4.376c0 1.089.886 1.976 1.974 1.974 1.091.001 1.976-.886 1.976-1.976l-.001-4.375 1.44-.001c1.163 0 2.108-.942 2.108-2.108l-.002-12.818-17.658.003z" class="iconic-platform-android-body iconic-property-fill"/>
      <path d="M17.902 2.924l1.379-2.518c.073-.132.025-.299-.108-.373-.135-.071-.3-.023-.372.11l-1.392 2.544c-1.172-.521-2.483-.814-3.87-.812-1.384-.001-2.694.29-3.861.808l-1.394-2.537c-.072-.134-.239-.182-.371-.109-.134.072-.183.24-.109.371l1.379 2.515c-2.71 1.398-4.541 4.059-4.539 7.114l17.791-.002c.001-3.055-1.827-5.71-4.533-7.111zm-8.41 3.89c-.41-.001-.743-.334-.743-.745 0-.41.333-.747.744-.747.412 0 .746.337.747.747 0 .411-.334.745-.747.745zm8.101-.001c-.411.001-.746-.333-.746-.746.001-.409.334-.746.746-.747.409.001.745.338.744.748.001.412-.333.745-.745.745z" class="iconic-platform-android-head iconic-property-fill"/>
    </g>
  </g>
  <!-- Apple -->
  <g data-width="27" data-height="32" class="iconic-md iconic-container" display="none" transform="scale(4) translate(2)">
    <g class="iconic-platform-apple" display="none">
      <path d="M25.198 10.471c-2.277 1.718-3.412 3.783-3.405 6.194.009 2.883 1.424 5.09 4.25 6.625-.753 2.324-1.842 4.352-3.275 6.077-1.431 1.731-2.74 2.595-3.925 2.599-.561 0-1.322-.192-2.288-.578l-.465-.183c-.949-.401-1.789-.586-2.514-.586-.689.004-1.441.158-2.258.467l-.582.224-.734.316c-.576.245-1.16.371-1.75.375-1.386.004-2.919-1.198-4.601-3.618-2.424-3.456-3.64-7.234-3.65-11.32-.009-2.906.738-5.247 2.239-7.028 1.501-1.778 3.493-2.672 5.974-2.68.93-.002 1.795.177 2.606.533l.554.237.582.252c.518.23.938.345 1.256.345.409 0 .864-.102 1.36-.307l.763-.318.567-.222c.906-.352 1.908-.529 3.004-.533 2.606-.011 4.701 1.032 6.292 3.13z" class="iconic-platform-apple-body iconic-property-fill"/>
      <path d="M19.006 0c.03.369.047.655.049.855.004 1.827-.623 3.433-1.874 4.817s-2.71 2.075-4.375 2.077c-.049-.411-.077-.708-.077-.887-.004-1.554.576-3.015 1.74-4.38 1.16-1.367 2.51-2.166 4.045-2.403.111-.019.275-.049.492-.079z" class="iconic-platform-apple-leaf iconic-property-fill"/>
    </g>
  </g>
  <!-- Linux -->
  <g data-width="27" data-height="32" class="iconic-md iconic-container" display="none" transform="scale(4) translate(2)">
    <g class="iconic-platform-linux">
      <path d="M25.937 25.813c-.367-.508-.674-.808-.833-1.438-.156-.621-.239-1.325-.749-1.772-.114-.1-.242-.185-.379-.251-.218-.105-.066-.241-.01-.449.102-.385.169-.778.198-1.175.061-.831-.04-1.667-.255-2.47-.389-1.448-1.129-2.784-1.991-4.001-.744-1.051-1.64-1.988-2.342-3.069-.691-1.063-.964-2.144-.946-3.403.011-.81.016-1.622-.045-2.43-.095-1.26-.333-2.593-1.064-3.653-.833-1.208-2.209-1.698-3.635-1.7-1.864-.003-3.713.671-4.494 2.477-.599 1.383-.542 2.962-.449 4.434.128 2.011-.072 4.055-1.424 5.678-1.793 2.154-3.581 4.776-3.938 7.621-.046.367-.064.738-.046 1.108.009.182.027.363.054.543-.135.12-.253.258-.365.399-.226.285-.419.6-.669.865-.246.245-.59.352-.909.463-.539.187-1.034.434-1.311.962-.386.755-.012 1.603.001 2.393.011.675-.414 1.269-.321 1.968.089.669.627 1.017 1.24 1.168.728.179 1.488.198 2.226.318.394.064.786.151 1.161.29.207.077.35.15.468.208 1.428.746 3.726 1.313 4.897-.237.058-.076.106-.159.15-.244.101-.192.206-.133.408-.154.342-.036.678-.108 1.016-.172.83-.158 1.675-.285 2.519-.188.863.099 1.714.275 2.587.226.167.695.707 1.318 1.345 1.623 1.573.751 3.34-.314 4.345-1.51.073-.094.073-.094.214-.236.222-.223.472-.417.736-.589.554-.362 1.162-.626 1.751-.925.494-.251 1.097-.557 1.293-1.116.194-.552-.116-1.124-.432-1.56zm-12.747-20.353c.244-.554.741-1.038 1.38-1.035 1.021 0 1.577 1.109 1.594 2.001 0 .417-.074.812-.266 1.186-.088.172-.144.373-.342.292-.214-.054-.487-.194-.684-.262.393-.472.47-1.755-.271-1.975-.731-.217-.95.931-.866 1.42-.144-.072-.293-.136-.446-.188-.276-.094-.295-.078-.302-.387-.008-.363.055-.72.202-1.053zm1.072 2.313c.513.23 1.275.312 1.623.803.484.684-.425 1.395-.97 1.636-.299.132-.585.224-.866.403-.339.216-.675.438-1.069.538-.781.199-1.367-.086-1.93-.596-.444-.402-1.154-.645-1.342-1.268-.205-.677.678-.987 1.085-1.348.505-.428.946-.844 1.658-.846.706-.003 1.2.404 1.811.679zm-3.617-3.037c.604.001.973.652 1.111 1.16.066.241.092.493.09.743-.002.299-.405.422-.657.558.052-.37-.315-1.801-.855-1.143-.338.412-.262 1.332.185 1.646-.098.076-.198.149-.298.223-.179.132-.3-.158-.385-.314-.203-.378-.292-.804-.289-1.23.005-.629.306-1.65 1.097-1.642zm-2.01 25.78c-1.136.542-2.433.033-3.478-.466-1.096-.523-2.292-.412-3.439-.703-1.194-.303-.698-1.244-.534-2.111.2-1.057-.674-2.371.694-2.902.431-.167.877-.269 1.219-.603.398-.42.667-1.077 1.212-1.332.124-.058.26-.085.397-.084 1.237.005 1.92 1.664 2.362 2.59.561 1.174 1.55 2.035 2.171 3.168.468.856.365 1.981-.604 2.444zm8.3-3.091c-.787.539-1.673.946-2.606 1.153-.943.21-1.934.206-2.864-.066-.495-.145-.968-.363-1.403-.64-.419-.267-.739-.928-1.053-1.322 1.034.001 1.299-.834.866-1.66-.449-.855-1.254-1.52-2.033-2.064-.829-.579-1.038-.876-1.206-1.735-.754-3.849 3.115-6.995 3.321-10.882.987.716 1.836 1.65 3.171 1.261.606-.177 1.068-.568 1.645-.849.506-.272 1.02-.405 1.395-.937.568 2.24 1.514 4.361 2.55 6.417.573 1.137.87 1.899 1.097 3.154 3.619.269 3.768 2.861 3.101 2.918.214-.677-.423-1.117-.942-1.397-.63-.34-1.636-.83-2.349-.444-.303.164-.448.486-.498.814-.054.296-.686.533-.906.833-.564.771-.625 1.84-.686 2.758-.027.405-.025.815-.103 1.215-.076.391-.168 1.248-.497 1.473zm7.145.766c-.472.227-.941.466-1.363.778-.522.385-.885.925-1.389 1.33-.785.631-1.976 1.096-2.925.533-1.074-.637-.966-1.831-.686-2.882.176-.662.421-1.312.526-1.991.091-.592.071-1.198.146-1.793.087-.695.251-1.553.947-1.892.032.519.215 1.09.627 1.433.454.379 1.053.277 1.553.051.427-.193.85-.743 1.291-.753.488-.012.982.109 1.231.566.268.492.276 1.079.476 1.596.187.482.616.809.864 1.258.548.991-.546 1.406-1.296 1.766z" class="iconic-platform-linux-body iconic-property-fill"/>
      <path d="M15.344 8.864c-.241-.162-.927.432-1.312.655-.486.281-1.016.545-1.584.592-.508.043-1.02-.093-1.414-.408-.313-.251-.845-.795-.955-.691-.153.144.373.531.603.714.505.4 1.113.662 1.768.612.672-.051 1.285-.379 1.853-.717.277-.165.55-.353.85-.475.163-.066.384-.152.19-.282z" class="iconic-platform-linux-mouth iconic-property-fill"/>
    </g>
  </g>
  <!-- Microsoft -->
  <g data-width="32" data-height="32" class="iconic-md iconic-container" display="none" transform="scale(4)">
    <g class="iconic-platform-microsoft" display="none">
      <path class="iconic-platform-microsoft-top iconic-platform-microsoft-left iconic-platform-microsoft-top-left iconic-property-fill" d="M0 4.531l13.077-1.776.006 12.575-13.071.074z"/>
      <path class="iconic-platform-microsoft-bottom iconic-platform-microsoft-left iconic-platform-microsoft-bottom-left iconic-property-fill" d="M13.071 16.779l.01 12.586-13.071-1.792-.001-10.879z"/>
      <path class="iconic-platform-microsoft-top iconic-platform-microsoft-right iconic-platform-microsoft-top-right iconic-property-fill" d="M14.656 2.523l17.34-2.523v15.171l-17.34.137z"/>
      <path class="iconic-platform-microsoft-bottom iconic-platform-microsoft-right iconic-platform-microsoft-bottom-right iconic-property-fill" d="M32 16.898l-.004 15.102-17.34-2.44-.024-12.691z"/>
    </g>
  </g>



  <!-- Android -->
  <g data-width="14" data-height="16" class="iconic-sm iconic-container" display="none" transform="scale(8) translate(1)">
    <g class="iconic-platform-android" display="none">
      <path d="M.987 5.175c-.545 0-.987.443-.987.987l.001 4.135c0 .547.442.988.988.988s.988-.441.987-.988v-4.136c0-.545-.443-.987-.988-.987" class="iconic-platform-android-arm iconic-platform-android-arm-left iconic-property-fill"/>
      <path d="M13.543 6.161c0-.545-.442-.987-.988-.987-.545 0-.987.442-.987.988l.001 4.135c0 .546.442.987.988.987.545 0 .987-.441.987-.988l-.001-4.136z" class="iconic-platform-android-arm iconic-platform-android-arm-right iconic-property-fill"/>
      <path d="M2.358 5.362l.002 6.409c0 .583.471 1.053 1.054 1.054h.718l.001 2.188c0 .545.443.988.987.988.546 0 .988-.443.988-.988l-.001-2.188h1.333l.001 2.188c0 .544.443.988.987.987.546 0 .988-.443.988-.988l-.001-2.187.72-.001c.581 0 1.054-.471 1.054-1.054l-.001-6.409-8.829.002z" class="iconic-platform-android-body iconic-property-fill"/>
      <path d="M8.951 1.462l.689-1.259c.037-.066.013-.149-.054-.187-.067-.036-.15-.012-.186.055l-.696 1.272c-.586-.261-1.241-.407-1.935-.406-.692-.001-1.347.145-1.931.404l-.697-1.268c-.036-.067-.12-.091-.186-.055-.067.036-.092.12-.054.186l.69 1.258c-1.355.699-2.27 2.029-2.27 3.557l8.895-.001c0-1.527-.913-2.855-2.266-3.556zm-4.205 1.945c-.205 0-.372-.167-.372-.373 0-.205.167-.373.372-.373.206 0 .373.169.373.373 0 .206-.167.373-.374.373zm4.05-.001c-.206 0-.373-.167-.373-.373.001-.204.167-.373.373-.374.204.001.372.169.372.374.001.206-.167.373-.372.373z" class="iconic-platform-android-head iconic-property-fill"/>
    </g>
  </g>
  <!-- Apple -->
  <g data-width="14" data-height="16" class="iconic-sm iconic-container" display="none" transform="scale(8) translate(1)">
    <g class="iconic-platform-apple" display="none">
      <path d="M12.599 5.236c-1.139.859-1.706 1.891-1.703 3.097.004 1.441.712 2.545 2.125 3.312-.376 1.162-.921 2.176-1.637 3.038-.715.866-1.37 1.297-1.963 1.3-.28 0-.661-.096-1.144-.289l-.232-.092c-.474-.2-.894-.293-1.257-.293-.344.002-.721.079-1.129.234l-.291.112-.367.158c-.288.123-.58.186-.875.188-.693.002-1.46-.599-2.301-1.809-1.212-1.728-1.82-3.617-1.825-5.66-.004-1.453.369-2.624 1.119-3.514.751-.889 1.746-1.336 2.987-1.34.465-.001.898.088 1.303.267l.277.118.291.126c.259.115.469.173.628.173.205 0 .432-.051.68-.153l.382-.159.284-.111c.453-.176.954-.264 1.502-.267 1.303-.005 2.351.516 3.146 1.565z" class="iconic-platform-apple-body iconic-property-fill"/>
      <path d="M9.503 0c.015.184.024.327.025.427.002.914-.311 1.716-.937 2.408s-1.355 1.037-2.188 1.038c-.024-.206-.038-.354-.038-.444-.002-.777.288-1.507.87-2.19.58-.683 1.255-1.083 2.022-1.202.055-.009.137-.024.246-.039z" class="iconic-platform-apple-leaf iconic-property-fill"/>
    </g>
  </g>
  <!-- Linux -->
  <g data-width="14" data-height="16" class="iconic-sm iconic-container" display="none" transform="scale(8) translate(1)">
    <g class="iconic-platform-linux">
      <path d="M12.969 12.906c-.184-.254-.337-.404-.416-.719-.078-.31-.119-.663-.374-.886-.057-.05-.121-.093-.19-.126-.109-.052-.033-.121-.005-.225.051-.192.084-.389.099-.588.031-.415-.02-.833-.128-1.235-.194-.724-.565-1.392-.995-2.001-.372-.525-.82-.994-1.171-1.535-.345-.532-.482-1.072-.473-1.702.006-.405.008-.811-.022-1.215-.047-.63-.167-1.296-.532-1.827-.416-.604-1.105-.849-1.818-.85-.932-.002-1.856.335-2.247 1.238-.299.692-.271 1.481-.224 2.217.064 1.005-.036 2.027-.712 2.839-.897 1.077-1.79 2.388-1.969 3.81-.023.183-.032.369-.023.554.004.091.013.182.027.272-.067.06-.127.129-.183.2-.113.142-.209.3-.335.432-.123.123-.295.176-.455.231-.27.093-.517.217-.655.481-.193.378-.006.801 0 1.197.006.338-.207.635-.161.984.044.335.314.508.62.584.364.09.744.099 1.113.159.197.032.393.076.581.145.104.038.175.075.234.104.714.373 1.863.657 2.448-.118.029-.038.053-.08.075-.122.051-.096.103-.066.204-.077.171-.018.339-.054.508-.086.415-.079.837-.142 1.26-.094.431.049.857.137 1.294.113.084.347.353.659.673.811.787.376 1.67-.157 2.172-.755.036-.047.036-.047.107-.118.111-.112.236-.208.368-.294.277-.181.581-.313.875-.463.247-.126.548-.279.646-.558.097-.276-.059-.562-.217-.78zm-6.373-10.176c.122-.277.371-.519.69-.517.51 0 .789.554.797 1 0 .208-.037.406-.133.593-.044.086-.072.186-.171.146-.107-.027-.243-.097-.342-.131.196-.236.235-.878-.135-.987-.365-.108-.475.466-.433.71-.072-.036-.147-.068-.223-.094-.138-.047-.148-.039-.151-.193-.004-.181.028-.36.101-.526zm.536 1.156c.256.115.637.156.811.402.242.342-.213.697-.485.818-.15.066-.293.112-.433.201-.169.108-.337.219-.534.269-.39.099-.683-.043-.965-.298-.222-.201-.577-.323-.671-.634-.102-.338.339-.493.543-.674.253-.214.473-.422.829-.423.353-.001.6.202.906.339zm-1.809-1.518c.302.001.486.326.556.58.033.12.046.247.045.371-.001.15-.203.211-.328.279.026-.185-.158-.9-.428-.572-.169.206-.131.666.093.823-.049.038-.099.075-.149.111-.09.066-.15-.079-.192-.157-.102-.189-.146-.402-.145-.615.002-.314.153-.825.548-.821zm-1.005 12.89c-.568.271-1.217.016-1.739-.233-.548-.262-1.146-.206-1.719-.351-.597-.152-.349-.622-.267-1.056.1-.529-.337-1.185.347-1.451.215-.084.439-.134.61-.301.199-.21.333-.538.606-.666.062-.029.13-.043.198-.042.619.002.96.832 1.181 1.295.281.587.775 1.017 1.085 1.584.234.428.183.991-.302 1.222zm4.398-2.282c-.038.195-.084.624-.248.737-.394.27-.836.473-1.303.577-.472.105-.967.103-1.432-.033-.248-.072-.484-.181-.701-.32-.21-.134-.369-.464-.526-.661.517 0 .65-.417.433-.83-.225-.428-.627-.76-1.016-1.032-.414-.29-.519-.438-.603-.868-.377-1.925 1.557-3.497 1.66-5.441.493.358.918.825 1.586.63.303-.088.534-.284.822-.424.253-.136.51-.203.697-.469.284 1.12.757 2.18 1.275 3.209.286.568.435.95.548 1.577 1.809.135 1.884 1.431 1.55 1.459.107-.338-.212-.558-.471-.698-.315-.17-.818-.415-1.174-.222-.151.082-.224.243-.249.407-.027.148-.343.266-.453.417-.282.386-.313.92-.343 1.379-.013.203-.013.407-.051.607zm3.324 1.12c-.236.113-.47.233-.682.389-.261.193-.442.463-.694.665-.393.316-.988.548-1.463.267-.537-.319-.483-.915-.343-1.441.088-.331.211-.656.263-.995.046-.296.035-.599.073-.896.044-.347.125-.776.473-.946.016.259.108.545.313.717.227.19.527.138.776.025.214-.097.425-.371.645-.377.244-.006.491.054.616.283.134.246.138.539.238.798.093.241.308.405.432.629.274.496-.273.703-.648.883z" class="iconic-platform-linux-body iconic-property-fill"/>
      <path d="M7.672 4.432c-.12-.081-.463.216-.656.327-.243.14-.508.272-.792.296-.254.021-.51-.046-.707-.204-.157-.125-.423-.397-.477-.346-.076.072.186.266.302.357.253.2.557.331.884.306.336-.025.642-.19.926-.358.139-.082.275-.176.425-.237.081-.033.192-.076.095-.141z" class="iconic-platform-linux-mouth iconic-property-fill"/>
    </g>
  </g>
  <!-- Microsoft -->
  <g data-width="16" data-height="16" class="iconic-sm iconic-container" display="none" transform="scale(8)">
    <g class="iconic-platform-microsoft" display="none">
      <path class="iconic-platform-microsoft-top iconic-platform-microsoft-left iconic-platform-microsoft-top-left iconic-property-fill" d="M0 2.265l6.539-.888.003 6.288-6.536.037z"/>
      <path class="iconic-platform-microsoft-bottom iconic-platform-microsoft-left iconic-platform-microsoft-bottom-left iconic-property-fill" d="M6.536 8.39l.005 6.293-6.536-.896v-5.44z"/>
      <path class="iconic-platform-microsoft-top iconic-platform-microsoft-right iconic-platform-microsoft-top-right iconic-property-fill" d="M7.328 1.261l8.67-1.261v7.585l-8.67.069z"/>
      <path class="iconic-platform-microsoft-bottom iconic-platform-microsoft-right iconic-platform-microsoft-bottom-right iconic-property-fill" d="M16 8.449l-.002 7.551-8.67-1.22-.012-6.345z"/>
    </g>
  </g>


<script class="iconic-api" type="application/ecmascript">
//<![CDATA[
var iconicApis=window._Iconic?window._Iconic.smartIconApis:{};iconicApis["platform"]=iconicApis["platform"]||function(t){var e=function(e){t.setAttribute("data-type",e);var i,r,n,a,c=t.querySelectorAll(".iconic-platform-android"),o=t.querySelectorAll(".iconic-platform-apple"),s=t.querySelectorAll(".iconic-platform-linux"),l=t.querySelectorAll(".iconic-platform-microsoft");switch(i=r=n=a="none",e){case"android":i="inline";break;case"apple":r="inline";break;case"microsoft":a="inline";break;default:n="inline"}for(var u=0;u<c.length;u++)c[u].setAttribute("display",i),o[u].setAttribute("display",r),s[u].setAttribute("display",n),l[u].setAttribute("display",a)},i=function(){var i=t.getAttribute("data-type");i&&e(i)};return{update:i,setType:e}};
//]]>
</script>
</svg>
