<svg xmlns="http://www.w3.org/2000/svg" class="iconic iconic-power-standby" width="128" height="128" viewBox="0 0 128 128">
  <g class="iconic-metadata">
    <title>Power Standby</title>
  </g>
  <g class="iconic-power-standby-lg iconic-container iconic-lg" data-width="111" data-height="125" display="inline" transform="translate(8 1)">
    <path stroke="#000" stroke-width="8" d="M71.462 20.338c18.502 5.755 32.617 21.894 35.82 41.007 3.238 19.325-4.904 39.228-20.746 50.748-16.009 11.643-37.927 13.081-55.324 3.631-17.1-9.29-27.748-27.81-27.191-47.257.556-19.427 12.333-37.321 29.922-45.571 2.136-1.002 4.34-1.857 6.592-2.558"
    class="iconic-power-standby-circle iconic-property-stroke" fill="none" />
    <path stroke="#000" stroke-width="8" stroke-linecap="square" class="iconic-power-standby-line iconic-property-accent iconic-property-stroke" d="M55.999 4v32" fill="none" />
  </g>
  <g class="iconic-power-standby-md iconic-container iconic-md" data-width="26" data-height="30" display="none" transform="scale(4) translate(3 1)">
    <path stroke="#000" stroke-width="3" d="M18.171 6.443c3.993 1.689 6.828 5.517 7.266 9.83.438 4.313-1.533 8.607-5.092 11.083-3.63 2.526-8.502 2.831-12.418.773-3.802-1.998-6.297-5.982-6.421-10.276-.142-4.898 2.809-9.501 7.324-11.411" class="iconic-power-standby-circle iconic-property-stroke"
    fill="none" />
    <path stroke="#000" stroke-width="3" stroke-linecap="square" class="iconic-power-standby-line iconic-property-accent iconic-property-stroke" d="M13.5 1.5v9" fill="none" />
  </g>
  <g class="iconic-power-standby-sm iconic-container iconic-sm" data-width="14" data-height="15" display="none" transform="scale(8) translate(1)">
    <path stroke="#000" stroke-width="2" d="M10.704 3.28c1.398 1.098 2.296 2.805 2.296 4.72 0 3.314-2.686 6-6 6s-6-2.686-6-6c0-1.912.894-3.615 2.287-4.713" class="iconic-power-standby-circle iconic-property-stroke" fill="none" />
    <path stroke="#000" stroke-width="2" stroke-linecap="square" class="iconic-power-standby-line iconic-property-accent iconic-property-stroke" d="M7 1v5" fill="none" />
  </g>
</svg>