<svg xmlns="http://www.w3.org/2000/svg" class="iconic iconic-rocket" width="128" height="128" viewBox="0 0 128 128">
  <g class="iconic-metadata">
    <title>Rocket</title>
  </g>
  <g class="iconic-rocket-lg iconic-container iconic-lg" data-width="76" data-height="128" display="inline" transform="translate(26)">
    <path d="M16.572 86.571l-16.572 41.429h8l17.045-17.045c-2.858-5.381-6.216-13.433-8.473-24.385z" class="iconic-rocket-fin iconic-rocket-fin-left iconic-property-accent iconic-property-fill" />
    <path d="M59.428 86.571c-2.257 10.951-5.615 19.004-8.473 24.385l17.045 17.045h8l-16.572-41.429z" class="iconic-rocket-fin iconic-rocket-fin-right iconic-property-accent iconic-property-fill" />
    <path class="iconic-rocket-thruster iconic-property-fill" d="M46 116h-16l-2 4v2h20v-2z" />
    <path d="M38 0s-22 20-22 60c0 29.238 8.543 46.709 13.143 54h17.713c4.6-7.291 13.144-24.762 13.144-54 0-40-22-60-22-60zm0 60c-1.105 0-2-.895-2-2s.895-2 2-2 2 .895 2 2-.895 2-2 2zm0-10c-3.314 0-6-2.686-6-6s2.686-6 6-6 6 2.686 6 6-2.686 6-6 6z" class="iconic-rocket-body iconic-property-fill"
    />
  </g>
  <g class="iconic-rocket-md iconic-container iconic-md" data-width="21" data-height="32" display="none" transform="scale(4) translate(5)">
    <path d="M4.588 21.296l-4.588 10.704h3l4.027-4.027c-.81-1.347-1.814-3.522-2.44-6.677z" class="iconic-rocket-fin iconic-rocket-fin-left iconic-property-accent iconic-property-fill" />
    <path d="M16.413 21.296c-.625 3.155-1.629 5.33-2.44 6.677l4.027 4.027h3l-4.587-10.704z" class="iconic-rocket-fin iconic-rocket-fin-right iconic-property-accent iconic-property-fill" />
    <path d="M10.5 0s-5.5 5-5.5 15 4 14 4 14h3s4-4 4-14-5.5-15-5.5-15zm0 12c-.828 0-1.5-.672-1.5-1.5s.672-1.5 1.5-1.5 1.5.672 1.5 1.5-.672 1.5-1.5 1.5z" class="iconic-rocket-body iconic-property-fill" />
  </g>
  <g class="iconic-rocket-sm iconic-container iconic-sm" data-width="12" data-height="16" display="none" transform="scale(8) translate(2)">
    <path d="M2.234 9.856l-2.234 6.144h1l2.468-2.468c-.44-.787-.945-1.992-1.234-3.676z" class="iconic-rocket-fin iconic-rocket-fin-left iconic-property-accent iconic-property-fill" />
    <path d="M9.766 9.856c-.289 1.684-.794 2.889-1.234 3.676l2.468 2.468h1l-2.234-6.144z" class="iconic-rocket-fin iconic-rocket-fin-right iconic-property-accent iconic-property-fill" />
    <path d="M6 0s-3 2-3 7 2 7 2 7h2s2-2 2-7-3-7-3-7zm0 6c-.552 0-1-.448-1-1s.448-1 1-1 1 .448 1 1-.448 1-1 1z" class="iconic-rocket-body iconic-property-fill" />
  </g>
</svg>