<svg version="1.1" xmlns="http://www.w3.org/2000/svg" data-icon="social" width="128" height="128" class="iconic iconic-social" viewBox="0 0 128 128">
  <g><title>Social</title></g>

  <!-- Dribbble -->
  <g class="iconic-container iconic-lg" data-width="128" data-height="127" display="inline">
    <g class="iconic-social-dribbble" display="none">
      <path fill-rule="evenodd" clip-rule="evenodd" d="M64 127.829c-35.29 0-64-28.672-64-63.914 0-35.243 28.71-63.915 64-63.915s64 28.672 64 63.915c0 35.243-28.71 63.914-64 63.914zm53.974-55.165c-1.87-.59-16.92-5.072-34.051-2.334 7.15 19.622 10.06 35.603 10.62 38.924 12.264-8.281 20.994-21.4 23.431-36.59zm-32.621 41.588c-.813-4.79-3.987-21.483-11.662-41.4-.12.041-.24.08-.36.122-30.834 10.73-41.902 32.084-42.886 34.092 9.269 7.218 20.917 11.525 33.555 11.525 7.573 0 14.79-1.547 21.353-4.339zm-61.966-13.752c1.238-2.117 16.241-26.925 44.435-36.026.712-.23 1.431-.446 2.154-.649-1.373-3.102-2.867-6.206-4.432-9.265-27.3 8.159-53.79 7.818-56.182 7.769-.017.554-.028 1.11-.028 1.668 0 14.022 5.323 26.824 14.053 36.502zm-12.898-47.684c2.445.032 24.967.13 50.538-6.652-9.058-16.08-18.827-29.599-20.268-31.573-15.294 7.204-26.726 21.284-30.27 38.224zm40.701-41.894c1.511 2.021 11.44 15.523 20.397 31.959 19.439-7.276 27.668-18.322 28.651-19.72-9.654-8.553-22.348-13.757-36.238-13.757-4.411 0-8.7.528-12.811 1.518zm55.125 18.552c-1.152 1.557-10.313 13.284-30.525 21.525 1.272 2.6 2.491 5.245 3.627 7.907.402.944.794 1.883 1.177 2.817 18.19-2.284 36.263 1.377 38.065 1.757-.12-12.886-4.731-24.718-12.344-34.007z" class="iconic-property-fill"/>
    </g>
  </g>
  <!-- Dropbox -->
  <g data-width="128" data-height="120" class="iconic-lg iconic-container" display="inline" transform="translate(0 4)">
    <g class="iconic-social-dropbox" display="none">
      <path class="iconic-social-dropbox-flap iconic-social-dropbox-flap-left iconic-social-dropbox-flap-top iconic-social-dropbox-flap-top-left iconic-property-fill" d="M37.653 0l-37.653 24.584 26.035 20.849 37.964-23.442z"/>
      <path class="iconic-social-dropbox-flap iconic-social-dropbox-flap-left iconic-social-dropbox-flap-bottom iconic-social-dropbox-flap-bottom-left iconic-property-fill" d="M0 66.283l37.653 24.584 26.347-21.992-37.964-23.443z"/>
      <path class="iconic-social-dropbox-flap iconic-social-dropbox-flap-right iconic-social-dropbox-flap-bottom iconic-social-dropbox-flap-bottom-right iconic-property-fill" d="M63.999 68.876l26.348 21.992 37.653-24.584-26.035-20.85z"/>
      <path class="iconic-social-dropbox-flap iconic-social-dropbox-flap-right iconic-social-dropbox-flap-top iconic-social-dropbox-flap-top-right iconic-property-fill" d="M128 24.584l-37.653-24.584-26.348 21.991 37.965 23.442z"/>
      <path class="iconic-social-dropbox-base iconic-property-fill" d="M64.077 73.607l-26.425 21.927-11.307-7.382v8.276l37.732 22.627 37.732-22.627v-8.276l-11.307 7.382z"/>
    </g>
  </g>
  <!-- Facebook -->
  <g data-width="128" data-height="124" class="iconic-lg iconic-container" display="inline" transform="translate(0 2)">
    <g class="iconic-social-facebook" display="none">
      <path d="M120.936 0h-113.871c-3.903 0-7.065 3.162-7.065 7.065v113.871c0 3.901 3.162 7.065 7.065 7.065h61.304v-49.568h-16.681v-19.318h16.681v-14.246c0-16.533 10.097-25.535 24.846-25.535 7.064 0 13.136.526 14.906.761v17.278l-10.229.005c-8.021 0-9.574 3.812-9.574 9.405v12.333h19.129l-2.491 19.318h-16.638v49.568h32.618c3.901 0 7.064-3.163 7.064-7.065v-113.871c0-3.902-3.163-7.065-7.064-7.065z" class="iconic-property-fill"/>
    </g>
  </g>
  <!-- Flickr -->
  <g class="iconic-container iconic-lg" data-width="128" data-height="60" display="inline" transform="translate(0 34)">
    <g class="iconic-social-flickr" display="none">
      <path d="M128 30.118c0 16.634-13.484 30.118-30.119 30.118-16.634 0-30.118-13.484-30.118-30.118s13.484-30.118 30.118-30.118c16.635 0 30.119 13.484 30.119 30.118" class="iconic-social-flickr-circle iconic-social-flickr-circle-right iconic-property-fill"/>
      <path d="M60.236 30.118c0 16.634-13.484 30.118-30.118 30.118s-30.118-13.484-30.118-30.118 13.484-30.118 30.118-30.118 30.118 13.484 30.118 30.118" class="iconic-social-flickr-circle iconic-social-flickr-circle-left iconic-property-fill"/>
    </g>
  </g>
  <!-- Github -->
  <g data-width="128" data-height="126" class="iconic-lg iconic-container" display="inline" transform="translate(0 1)">
    <g class="iconic-social-github" display="none">
      <path fill-rule="evenodd" clip-rule="evenodd" d="M63.996 0c-35.339 0-63.996 28.654-63.996 64.004 0 28.273 18.336 52.261 43.77 60.725 3.2.587 4.368-1.389 4.368-3.085 0-1.519-.055-5.544-.086-10.885-17.803 3.868-21.559-8.579-21.559-8.579-2.91-7.393-7.106-9.362-7.106-9.362-5.811-3.971.44-3.89.44-3.89 6.423.453 9.803 6.595 9.803 6.595 5.709 9.78 14.979 6.956 18.626 5.318.582-4.136 2.235-6.956 4.063-8.556-14.212-1.615-29.152-7.106-29.152-31.631 0-6.987 2.494-12.7 6.588-17.174-.658-1.619-2.854-8.126.627-16.938 0 0 5.374-1.721 17.599 6.561 5.105-1.419 10.58-2.13 16.022-2.154 5.435.025 10.91.735 16.022 2.154 12.219-8.282 17.582-6.561 17.582-6.561 3.492 8.811 1.295 15.318.637 16.938 4.102 4.474 6.579 10.187 6.579 17.174 0 24.586-14.964 29.996-29.221 31.581 2.298 1.976 4.345 5.882 4.345 11.852 0 8.556-.079 15.459-.079 17.557 0 1.711 1.153 3.703 4.401 3.078 25.409-8.48 43.73-32.452 43.73-60.718 0-35.35-28.657-64.004-64.004-64.004z" class="iconic-property-fill"/>
    </g>
  </g>
  <!-- Google Plus -->
  <g data-width="128" data-height="108" class="iconic-container iconic-lg" display="inline" transform="translate(0 10)">
    <g class="iconic-social-google-plus" display="none">
      <path d="M55.494 62.252c-3.027-2.143-8.816-7.355-8.816-10.418 0-3.59 1.024-5.359 6.428-9.582 5.538-4.327 9.459-10.412 9.459-17.489 0-8.427-3.752-16.638-10.797-19.347h10.619l7.495-5.417h-33.492c-15.015 0-29.145 11.376-29.145 24.552 0 13.466 10.234 24.333 25.51 24.333 1.063 0 2.095-.021 3.106-.094-.991 1.898-1.7 4.036-1.7 6.255 0 3.743 2.013 6.776 4.559 9.253-1.924 0-3.78.056-5.807.056-18.597 0-32.912 11.844-32.912 24.127 0 12.098 15.693 19.664 34.292 19.664 21.202 0 32.913-12.03 32.913-24.128 0-9.7-2.862-15.509-11.71-21.766zm-17.892-16.781c-8.63-.258-16.83-9.653-18.319-20.982-1.489-11.333 4.296-20.005 12.924-19.748 8.625.26 16.83 9.351 18.319 20.682 1.488 11.333-4.298 20.307-12.924 20.049zm-3.379 57.328c-12.855 0-22.14-8.138-22.14-17.913 0-9.58 11.516-17.555 24.371-17.417 2.999.032 5.796.515 8.334 1.337 6.978 4.853 11.984 7.595 13.396 13.125.266 1.122.41 2.277.41 3.455 0 9.774-6.299 17.413-24.371 17.413z" class="iconic-social-google-plus-g iconic-property-fill"/>
      <path class="iconic-social-google-plus-plus iconic-property-accent iconic-property-fill" d="M104 23.999v-23.999h-8.001v23.999h-24v8.001h24v24h8.001v-24h24v-8.001z"/>
    </g>
  </g>

  <!-- Instagram -->
  <g data-width="128" data-height="128" class="iconic-lg iconic-container" display="inline">
    <g class="iconic-social-instagram" display="none">
      <path fill-rule="evenodd" clip-rule="evenodd" d="M16.429 0h95.142c9.036 0 16.429 7.393 16.429 16.429v95.142c0 9.036-7.393 16.429-16.429 16.429h-95.142c-9.036 0-16.429-7.393-16.429-16.429v-95.142c0-9.036 7.393-16.429 16.429-16.429zm76.814 14.222c-3.17 0-5.763 2.593-5.763 5.763v13.793c0 3.17 2.593 5.763 5.763 5.763h14.468c3.169 0 5.762-2.593 5.762-5.763v-13.793c0-3.17-2.593-5.763-5.762-5.763h-14.468zm20.29 39.909h-11.266c1.066 3.481 1.641 7.166 1.641 10.983 0 21.291-17.813 38.55-39.786 38.55-21.973 0-39.785-17.259-39.785-38.55 0-3.816.575-7.502 1.641-10.983h-11.756v54.069c0 2.799 2.29 5.088 5.088 5.088h89.134c2.799 0 5.088-2.29 5.088-5.088v-54.07zm-49.411-15.316c-14.197 0-25.707 11.152-25.707 24.908 0 13.757 11.51 24.909 25.707 24.909 14.198 0 25.707-11.152 25.707-24.909 0-13.756-11.509-24.908-25.707-24.908z" class="iconic-property-fill"/>
    </g>
  </g>
  <!-- LinkedIn -->
  <g data-width="128" data-height="128" class="iconic-lg iconic-container" display="inline">
    <g class="iconic-social-linkedin" display="none">
      <path d="M118.519 0h-109.071c-5.215 0-9.448 4.134-9.448 9.222v109.542c0 5.097 4.234 9.236 9.448 9.236h109.071c5.22 0 9.481-4.139 9.481-9.236v-109.542c0-5.088-4.261-9.222-9.481-9.222zm-80.557 109.074h-18.993v-61.083h18.993v61.083zm-9.495-69.435c-6.086 0-11.005-4.933-11.005-11.012 0-6.072 4.919-11.005 11.005-11.005 6.069 0 11.002 4.933 11.002 11.005 0 6.079-4.933 11.012-11.002 11.012zm80.6 69.435h-18.963v-29.704c0-7.088-.139-16.199-9.868-16.199-9.88 0-11.387 7.718-11.387 15.685v30.218h-18.979v-61.083h18.213v8.343h.259c2.535-4.801 8.729-9.866 17.965-9.866 19.211 0 22.759 12.648 22.759 29.102v33.505z" class="iconic-property-fill"/>
    </g>
  </g>
  <!-- Pinterest -->
  <g data-width="128" data-height="128" class="iconic-lg iconic-container" display="inline">
    <g class="iconic-social-pinterest" display="none">
      <path d="M64.002 0c-35.345 0-64.002 28.654-64.002 64.001 0 26.207 15.759 48.721 38.309 58.619-.18-4.469-.032-9.834 1.114-14.696 1.23-5.196 8.235-34.874 8.235-34.874s-2.045-4.087-2.045-10.127c0-9.484 5.497-16.568 12.343-16.568 5.821 0 8.634 4.373 8.634 9.608 0 5.852-3.732 14.606-5.652 22.713-1.603 6.789 3.404 12.326 10.102 12.326 12.126 0 20.293-15.574 20.293-34.027 0-14.027-9.448-24.526-26.631-24.526-19.414 0-31.509 14.478-31.509 30.65 0 5.576 1.644 9.508 4.219 12.553 1.184 1.399 1.349 1.961.92 3.567-.307 1.178-1.012 4.013-1.304 5.136-.426 1.621-1.739 2.2-3.204 1.602-8.942-3.651-13.107-13.443-13.107-24.451 0-18.18 15.333-39.98 45.741-39.98 24.435 0 40.517 17.682 40.517 36.663 0 25.107-13.958 43.863-34.533 43.863-6.91 0-13.409-3.735-15.636-7.978 0 0-3.716 14.746-4.503 17.593-1.357 4.935-4.013 9.866-6.441 13.71 5.756 1.699 11.837 2.624 18.139 2.624 35.342 0 63.998-28.654 63.998-64.002 0-35.347-28.656-64.001-63.998-64.001z" class="iconic-property-fill"/>
    </g>
  </g>
  <!-- Reddit -->
  <g data-width="94" data-height="128" class="iconic-lg iconic-container" display="inline" transform="translate(17)">
    <g class="iconic-social-reddit" display="none">
      <path d="M92.26 37.85c0-5.853-4.763-10.615-10.616-10.615-2.717 0-5.168 1.057-7.038 2.751-6.777-4.388-15.783-7.224-25.763-7.692l5.292-16.725 14.401 3.39c.101 4.751 3.982 8.59 8.759 8.59 4.836 0 8.77-3.936 8.77-8.774s-3.934-8.774-8.771-8.774c-3.556 0-6.609 2.133-7.987 5.179l-16.029-3.774c-.979-.235-1.974.334-2.28 1.296l-6.18 19.534c-10.581.191-20.168 3.05-27.324 7.618-1.851-1.614-4.241-2.617-6.886-2.617-5.85 0-10.61 4.762-10.61 10.615 0 3.758 1.985 7.03 4.942 8.911-.164.997-.263 2.007-.263 3.033 0 10.158 8.272 19.028 20.526 23.818-5.814 2.872-9.923 9.629-9.923 17.533 0 9.01 5.329 16.551 12.45 18.514.523 1.623 1.109 3.157 1.737 4.623-.193-.01-.381-.035-.577-.035-6.449 0-11.696 4.417-11.696 9.848 0 .816.144 1.657.442 2.574.259.793.999 1.331 1.834 1.331h53.064c.841 0 1.581-.564 1.836-1.365.288-.904.428-1.734.428-2.539 0-5.431-5.248-9.848-11.698-9.848-.235 0-.461.03-.692.044.625-1.46 1.21-2.986 1.732-4.601 7.192-1.903 12.592-9.478 12.592-18.545 0-7.928-4.133-14.709-9.977-17.566 12.21-4.798 20.448-13.65 20.448-23.786 0-.962-.076-1.913-.221-2.851 3.141-1.837 5.278-5.199 5.278-9.094zm-14.965-33.993c2.709 0 4.914 2.206 4.914 4.918s-2.204 4.918-4.914 4.918c-2.714 0-4.921-2.206-4.921-4.918s2.207-4.917 4.921-4.917zm-73.439 33.993c0-3.726 3.029-6.758 6.753-6.758 1.331 0 2.546.423 3.587 1.096-3.793 3.054-6.579 6.673-8.127 10.624-1.354-1.23-2.212-2.991-2.212-4.961zm58.922 37.111c.566 3.718.9 7.641.9 11.713 0 17.38-5.622 33-13.426 37.48h-8.625c-7.804-4.479-13.426-20.099-13.426-37.48 0-4.072.334-7.994.9-11.712 5.148 1.547 10.836 2.427 16.835 2.427 6.002 0 11.691-.881 16.84-2.428zm-43.641 16.185c0-5.336 2.252-10.002 5.62-12.709-.262 2.658-.411 5.404-.411 8.237 0 6.511.756 12.73 2.096 18.323-4.292-2.36-7.305-7.664-7.305-13.851zm1.915 32.998c0-.015 0-.033 0-.048 0-3.304 3.517-5.991 7.839-5.991.943 0 1.822.164 2.656.401 1.229 2.17 2.583 4.069 4.053 5.637h-14.548zm42.049-6.039c4.324 0 7.841 2.687 7.841 5.991 0 .015 0 .033 0 .048h-14.662c1.461-1.558 2.808-3.444 4.03-5.597.873-.26 1.797-.442 2.79-.442zm9.775-26.959c0 6.26-3.083 11.624-7.459 13.942 1.354-5.616 2.118-11.867 2.118-18.413 0-2.872-.155-5.653-.424-8.346 3.449 2.686 5.765 7.407 5.765 12.817zm-26.938-17.614c-20.624 0-37.403-10.649-37.403-23.738 0-13.092 16.779-23.741 37.403-23.741 20.628 0 37.408 10.65 37.408 23.741 0 13.089-16.78 23.738-37.408 23.738zm39.978-30.454c-1.502-3.996-4.269-7.658-8.061-10.751 1.081-.758 2.369-1.235 3.789-1.235 3.726 0 6.759 3.032 6.759 6.758 0 2.106-.971 3.988-2.487 5.228z" class="iconic-social-reddit-body iconic-property-fill"/>
      <path d="M32.286 38.77c-3.316 0-6.013 2.698-6.013 6.013 0 3.314 2.698 6.01 6.013 6.01 3.314 0 6.01-2.695 6.01-6.01 0-3.316-2.695-6.014-6.01-6.014z" class="iconic-social-reddit-eye iconic-social-reddit-eye-left iconic-property-fill"/>
      <path d="M59.998 38.77c-3.314 0-6.011 2.698-6.011 6.013 0 3.314 2.697 6.01 6.011 6.01s6.008-2.695 6.008-6.01c0-3.316-2.694-6.014-6.008-6.014z" class="iconic-social-reddit-eye iconic-social-reddit-eye-right iconic-property-fill"/>
      <path d="M61.081 60.246c-.753-.753-1.971-.753-2.727-.001-2.37 2.37-6.353 3.522-12.174 3.522-.018 0-.033.01-.05.01-.018-.001-.033-.01-.05-.01-5.821 0-9.804-1.151-12.173-3.52-.753-.753-1.974-.753-2.727 0-.753.753-.753 1.974 0 2.727 3.128 3.13 8.002 4.649 14.899 4.649.018 0 .033-.01.05-.01.018.001.033.01.05.01 6.894 0 11.767-1.519 14.901-4.648.753-.753.753-1.974 0-2.728z" class="iconic-social-reddit-mouth iconic-property-fill"/>
    </g>
  </g>
  <!-- Tumblr -->
  <g data-width="74" data-height="128" class="iconic-lg iconic-container" display="inline" transform="translate(27)">
    <g class="iconic-social-tumblr" display="none">
      <path d="M67.407 102.239c-2.38 1.133-6.933 2.123-10.327 2.211-10.246.275-12.231-7.196-12.319-12.62v-39.844h25.703v-19.378h-25.609v-32.608s-18.444 0-18.751 0c-.307 0-.845.272-.92.958-1.096 9.98-5.769 27.494-25.183 34.493v16.534h12.951v41.824c0 14.317 10.566 34.659 38.448 34.183 9.407-.163 19.853-4.103 22.165-7.497l-6.157-18.256z" class="iconic-property-fill"/>
    </g>
  </g>
  <!-- Twitter -->
  <g data-width="128" data-height="104" class="iconic-lg iconic-container" display="inline" transform="translate(0 12)">
    <g class="iconic-social-twitter">
      <path d="M40.255 104c-14.83 0-28.634-4.346-40.255-11.796 2.054.242 4.145.366 6.264.366 12.303 0 23.627-4.197 32.614-11.239-11.491-.212-21.19-7.803-24.531-18.234 1.603.307 3.248.471 4.94.471 2.395 0 4.715-.321 6.919-.921-12.014-2.412-21.065-13.023-21.065-25.744 0-.111 0-.221.002-.33 3.541 1.966 7.59 3.147 11.895 3.284-7.046-4.708-11.683-12.744-11.683-21.853 0-4.811 1.295-9.322 3.555-13.199 12.952 15.884 32.302 26.337 54.128 27.432-.448-1.921-.68-3.925-.68-5.983 0-14.499 11.758-26.254 26.262-26.254 7.553 0 14.378 3.189 19.168 8.291 5.982-1.178 11.602-3.363 16.676-6.371-1.961 6.131-6.125 11.276-11.547 14.525 5.312-.635 10.373-2.046 15.083-4.134-3.521 5.265-7.973 9.889-13.104 13.591.051 1.126.076 2.258.076 3.397 0 34.695-26.414 74.701-74.717 74.701" class="iconic-property-fill"/>
    </g>
    <!-- Vimeo -->
    <g data-width="128" data-height="112" class="iconic-lg iconic-container" display="inline" transform="translate(0 4)">
      <g class="iconic-social-vimeo" display="none">
        <path d="M127.938 25.624c-.571 12.465-9.273 29.532-26.105 51.194-17.403 22.628-32.127 33.942-44.172 33.942-7.459 0-13.775-6.888-18.932-20.671-3.444-12.633-6.887-25.265-10.331-37.898-3.83-13.775-7.937-20.671-12.33-20.671-.958 0-4.309 2.016-10.046 6.031l-6.022-7.761c6.316-5.552 12.549-11.104 18.68-16.664 8.425-7.282 14.749-11.112 18.966-11.499 9.962-.958 16.093 5.854 18.395 20.436 2.486 15.732 4.208 25.517 5.174 29.347 2.873 13.053 6.031 19.57 9.483 19.57 2.679 0 6.703-4.233 12.07-12.7 5.359-8.466 8.231-14.909 8.618-19.335.764-7.307-2.108-10.97-8.618-10.97-3.066 0-6.224.706-9.474 2.1 6.291-20.612 18.311-30.624 36.05-30.053 13.153.386 19.352 8.92 18.596 25.601z" class="iconic-property-fill"/>
      </g>
    </g>
    <!-- YouTube -->
    <g data-width="128" data-height="54" class="iconic-lg iconic-container" display="inline" transform="translate(0 37)">
      <g class="iconic-social-youtube" display="none">
        <path d="M47.774 43.226h-4.854v-2.81c-1.84 2.109-3.4 3.175-5.101 3.175-1.492 0-2.528-.704-3.047-1.976-.315-.773-.539-1.98-.539-3.754v-20.438h4.854v19.161c0 1.084 0 1.533 0 1.788.113.717.418.979 1.035.979.929 0 1.77-.807 2.797-2.256v-19.672h4.854v25.803z" class="iconic-social-youtube-you iconic-social-youtube-you-u iconic-property-fill"/>
        <path d="M30.657 25.853c0-2.757-.554-4.828-1.533-6.131-1.293-1.765-3.321-2.487-5.365-2.487-2.313 0-4.074.723-5.365 2.487-.995 1.303-1.528 3.396-1.528 6.154l-.005 9.175c0 2.742.474 4.636 1.469 5.927 1.291 1.759 3.385 2.692 5.429 2.692s4.174-.932 5.467-2.692c.979-1.291 1.431-3.186 1.431-5.927v-9.197zm-4.854 9.708c.256 2.555-.537 3.822-2.044 3.822-1.507 0-2.299-1.268-2.043-3.822v-10.219c-.256-2.555.536-3.752 2.044-3.752 1.507 0 2.302 1.197 2.046 3.752l-.003 10.219z" class="iconic-social-youtube-you iconic-social-youtube-you-o iconic-property-fill"/>
        <path d="M11.496 29.174v14.051h-5.11v-14.051s-5.295-17.227-6.387-20.438h5.365l3.586 13.457 3.568-13.457h5.365l-6.387 20.438z" class="iconic-social-youtube-you iconic-social-youtube-you-y iconic-property-fill"/>
        <path d="M99.636 24.831v10.986c0 2.555-.602 3.534-1.936 3.534-.761 0-1.639-.392-2.412-1.165l.005-15.493c.773-.763 1.646-1.165 2.407-1.165 1.334 0 1.936.75 1.936 3.305zm17.117-.234c0-2.361-.61-3.071-2.144-3.071-1.545 0-2.2.651-2.2 3.039v2.826l4.343-.005v-2.789zm11.247-.783v5.762c0 6.145-.762 12.291-.762 12.291s-.746 5.233-3.033 7.538c-2.901 3.025-6.153 3.04-7.644 3.217-10.675.768-26.705.792-26.705.792s-19.834-.18-25.937-.763c-1.698-.317-5.51-.221-8.412-3.246-2.287-2.305-3.032-7.538-3.032-7.538s-.763-6.145-.763-12.291v-5.762c0-6.146.763-12.291.763-12.291s.745-5.233 3.032-7.538c2.902-3.025 6.152-3.04 7.644-3.217 10.675-.768 26.689-.768 26.689-.768h.033s16.013 0 26.688.768c1.491.177 4.743.192 7.644 3.217 2.287 2.305 3.033 7.538 3.033 7.538s.762 6.145.762 12.291zm-59.532-9.969h5.62v-4.854l-16.095.005v4.849h5.365v29.38h5.109v-29.38zm18.394 3.832h-4.854v19.416c-1.027 1.449-1.868 2.256-2.797 2.256-.617 0-.922-.262-1.035-.979 0-.256 0-.705 0-1.788v-18.905h-4.854v20.183c0 1.773.224 2.981.539 3.754.519 1.272 1.555 1.976 3.047 1.976 1.7 0 3.26-1.065 5.101-3.175v2.81h4.854v-25.548zm17.628 7.664c0-2.418-.31-4.071-.619-5.098-.617-1.912-1.855-2.976-3.697-2.976-1.702 0-3.393 1.046-4.887 2.885l.005-11.161h-4.599v34.234h4.599l.006-2.572c1.545 1.912 3.23 2.902 4.875 2.902 1.842 0 3.188-.986 3.805-2.884.309-1.082.511-2.748.511-5.109v-10.219zm7.92 10.464v-4.588h9.206l-.001-5.223c0-2.728-.537-4.724-1.504-6.016-1.296-1.747-3.138-2.671-5.458-2.671-2.361 0-4.203.925-5.541 2.671-.983 1.291-1.556 3.401-1.556 6.129v8.942c0 2.713.63 4.612 1.613 5.889 1.337 1.744 3.179 2.615 5.598 2.615 2.417 0 4.315-.914 5.594-2.767.562-.818.926-1.746 1.082-2.771.041-.463.164-1.518.164-3.008v-.724h-4.854c0 1.856.008 2.959-.035 3.211-.264 1.236-.928 1.856-2.066 1.856-1.588 0-2.258-1.187-2.242-3.545z" class="iconic-social-youtube-tube iconic-property-fill"/>
      </g>
    </g>
  </g>



  <!-- Dribbble -->
  <g class="iconic-container iconic-md" data-width="32" data-height="31" display="none" transform="scale(4)">
    <g class="iconic-social-dribbble" display="none">
      <path fill-rule="evenodd" clip-rule="evenodd" d="M16 31.957c-8.822 0-16-7.168-16-15.979s7.178-15.979 16-15.979 16 7.168 16 15.979-7.178 15.979-16 15.979zm13.494-13.791c-.468-.147-4.23-1.268-8.513-.583 1.788 4.905 2.515 8.901 2.655 9.731 3.066-2.07 5.249-5.35 5.858-9.148zm-8.155 10.397c-.203-1.197-.997-5.371-2.916-10.35-.03.01-.06.02-.09.03-7.708 2.683-10.476 8.021-10.721 8.523 2.317 1.804 5.229 2.881 8.389 2.881 1.893 0 3.698-.387 5.338-1.085zm-15.492-3.438c.31-.529 4.06-6.731 11.109-9.006.178-.058.358-.112.538-.162-.343-.775-.717-1.552-1.108-2.316-6.825 2.04-13.448 1.955-14.046 1.942-.004.139-.007.277-.007.417 0 3.505 1.331 6.706 3.513 9.126zm-3.225-11.921c.611.008 6.242.033 12.634-1.663-2.264-4.02-4.707-7.4-5.067-7.893-3.823 1.801-6.681 5.321-7.568 9.556zm10.175-10.474c.378.505 2.86 3.881 5.099 7.99 4.86-1.819 6.917-4.58 7.163-4.93-2.413-2.138-5.587-3.439-9.059-3.439-1.103 0-2.175.132-3.203.379zm13.781 4.638c-.288.389-2.578 3.321-7.631 5.381.318.65.623 1.311.907 1.977.101.236.199.471.294.704 4.547-.571 9.066.344 9.516.439-.03-3.221-1.183-6.179-3.086-8.502z" class="iconic-property-fill"/>
    </g>
  </g>
  <!-- Dropbox -->
  <g data-width="32" data-height="30" class="iconic-md iconic-container" display="none" transform="scale(4) translate(0 1)">
    <g class="iconic-social-dropbox" display="none">
      <path class="iconic-social-dropbox-flap iconic-social-dropbox-flap-left iconic-social-dropbox-flap-top iconic-social-dropbox-flap-top-left iconic-property-fill" d="M9.413 0l-9.413 6.146 6.509 5.212 9.491-5.861z"/>
      <path class="iconic-social-dropbox-flap iconic-social-dropbox-flap-left iconic-social-dropbox-flap-bottom iconic-social-dropbox-flap-bottom-left iconic-property-fill" d="M0 16.571l9.413 6.146 6.587-5.498-9.491-5.861z"/>
      <path class="iconic-social-dropbox-flap iconic-social-dropbox-flap-right iconic-social-dropbox-flap-bottom iconic-social-dropbox-flap-bottom-right iconic-property-fill" d="M16 17.219l6.587 5.498 9.413-6.146-6.509-5.212z"/>
      <path class="iconic-social-dropbox-flap iconic-social-dropbox-flap-right iconic-social-dropbox-flap-top iconic-social-dropbox-flap-top-right iconic-property-fill" d="M32 6.146l-9.413-6.146-6.587 5.498 9.491 5.861z"/>
      <path class="iconic-social-dropbox-base iconic-property-fill" d="M16.019 18.402l-6.606 5.482-2.827-1.846v2.069l9.433 5.657 9.433-5.657v-2.069l-2.827 1.846z"/>
    </g>
  </g>
  <!-- Facebook -->
  <g data-width="32" data-height="31" class="iconic-md iconic-container" display="none" transform="scale(4)">
    <g class="iconic-social-facebook" display="none">
      <path d="M30.234 0h-28.468c-.976 0-1.766.791-1.766 1.766v28.468c0 .975.79 1.766 1.766 1.766h15.326v-12.392h-4.17v-4.829h4.17v-3.562c0-4.133 2.524-6.384 6.212-6.384 1.766 0 3.284.132 3.727.19v4.319l-2.557.001c-2.005 0-2.393.953-2.393 2.351v3.083h4.782l-.623 4.829h-4.16v12.392h8.155c.975 0 1.766-.791 1.766-1.766v-28.468c0-.976-.791-1.766-1.766-1.766z" class="iconic-property-fill"/>
    </g>
  </g>
  <!-- Flickr -->
  <g class="iconic-container iconic-md" data-width="32" data-height="15" display="none" transform="scale(4) translate(0 8)">
    <g class="iconic-social-flickr" display="none">
      <path d="M32 7.529c0 4.159-3.371 7.529-7.53 7.529-4.159 0-7.529-3.371-7.529-7.529 0-4.159 3.371-7.529 7.529-7.529 4.159 0 7.53 3.371 7.53 7.529" class="iconic-social-flickr-circle iconic-social-flickr-circle-right iconic-property-fill"/>
      <path d="M15.059 7.529c0 4.159-3.371 7.529-7.529 7.529-4.159 0-7.529-3.371-7.529-7.529 0-4.159 3.371-7.529 7.529-7.529 4.159 0 7.529 3.371 7.529 7.529" class="iconic-social-flickr-circle iconic-social-flickr-circle-left iconic-property-fill"/>
    </g>
  </g>
  <!-- Github -->
  <g data-width="32" data-height="32" class="iconic-md iconic-container" display="none" transform="scale(4)">
    <g class="iconic-social-github" display="none">
      <path fill-rule="evenodd" clip-rule="evenodd" d="M15.999 0c-8.835 0-15.999 7.163-15.999 16.001 0 7.068 4.584 13.065 10.943 15.181.8.147 1.092-.347 1.092-.771 0-.38-.014-1.386-.022-2.721-4.451.967-5.39-2.145-5.39-2.145-.728-1.848-1.776-2.34-1.776-2.34-1.453-.993.11-.973.11-.973 1.606.113 2.451 1.649 2.451 1.649 1.427 2.445 3.745 1.739 4.656 1.329.145-1.034.559-1.739 1.016-2.139-3.553-.404-7.288-1.776-7.288-7.908 0-1.747.623-3.175 1.647-4.293-.164-.405-.713-2.032.157-4.234 0 0 1.343-.43 4.4 1.64 1.276-.355 2.645-.532 4.006-.539 1.359.006 2.728.184 4.006.539 3.055-2.07 4.396-1.64 4.396-1.64.873 2.203.324 3.83.159 4.234 1.025 1.119 1.645 2.547 1.645 4.293 0 6.147-3.741 7.499-7.305 7.895.575.494 1.086 1.47 1.086 2.963 0 2.139-.02 3.865-.02 4.389 0 .428.288.926 1.1.769 6.352-2.12 10.933-8.113 10.933-15.18 0-8.838-7.164-16.001-16.001-16.001z" class="iconic-property-fill"/>
    </g>
  </g>
  <!-- Google Plus -->
  <g class="iconic-container iconic-md" data-width="32" data-height="27" display="none" transform="scale(4) translate(0 2)">
    <g class="iconic-social-google-plus" display="none">
      <path d="M13.873 15.563c-.757-.536-2.204-1.839-2.204-2.604 0-.898.256-1.34 1.607-2.395 1.385-1.082 2.365-2.603 2.365-4.372 0-2.107-.938-4.16-2.699-4.837h2.655l1.874-1.354h-8.373c-3.754 0-7.286 2.844-7.286 6.138 0 3.366 2.558 6.083 6.377 6.083.266 0 .524-.005.776-.024-.248.475-.425 1.009-.425 1.564 0 .936.503 1.694 1.14 2.313-.481 0-.945.014-1.452.014-4.649 0-8.228 2.961-8.228 6.032 0 3.025 3.923 4.916 8.573 4.916 5.301 0 8.228-3.007 8.228-6.032 0-2.425-.715-3.877-2.928-5.442zm-4.473-4.195c-2.158-.064-4.207-2.413-4.58-5.246-.372-2.833 1.074-5.001 3.231-4.937 2.156.065 4.207 2.338 4.58 5.17.372 2.833-1.075 5.077-3.231 5.012zm-.845 14.332c-3.214 0-5.535-2.035-5.535-4.478 0-2.395 2.879-4.389 6.093-4.354.75.008 1.449.129 2.083.334 1.744 1.213 2.996 1.899 3.349 3.281.067.281.102.569.102.864 0 2.444-1.575 4.353-6.093 4.353z" class="iconic-social-google-plus-g iconic-property-fill"/>
      <path class="iconic-social-google-plus-plus iconic-property-accent iconic-property-fill" d="M26 6v-6h-2v6h-6v2h6v6h2v-6h6v-2z"/>
    </g>
  </g>
  <!-- Instagram -->
  <g data-width="32" data-height="32" class="iconic-md iconic-container" display="none" transform="scale(4)">
    <g class="iconic-social-instagram" display="none">
      <path fill-rule="evenodd" clip-rule="evenodd" d="M4.107 0h23.785c2.259 0 4.107 1.848 4.107 4.107v23.785c0 2.259-1.848 4.107-4.107 4.107h-23.785c-2.259 0-4.107-1.848-4.107-4.107v-23.785c0-2.259 1.848-4.107 4.107-4.107zm19.203 3.555c-.792 0-1.441.648-1.441 1.441v3.448c0 .792.648 1.441 1.441 1.441h3.617c.792 0 1.44-.648 1.44-1.441v-3.448c0-.792-.648-1.441-1.44-1.441h-3.617zm5.072 9.977h-2.817c.267.87.41 1.792.41 2.746 0 5.323-4.453 9.637-9.947 9.637-5.493 0-9.946-4.315-9.946-9.637 0-.954.144-1.875.41-2.746h-2.939v13.517c0 .7.572 1.272 1.272 1.272h22.284c.7 0 1.272-.572 1.272-1.272v-13.517zm-12.353-3.829c-3.549 0-6.427 2.788-6.427 6.227 0 3.439 2.877 6.227 6.427 6.227s6.427-2.788 6.427-6.227c0-3.439-2.877-6.227-6.427-6.227z" class="iconic-property-fill"/>
    </g>
  </g>
  <!-- LinkedIn -->
  <g data-width="32" data-height="32" class="iconic-md iconic-container" display="none" transform="scale(4)">
    <g class="iconic-social-linkedin" display="none">
      <path d="M29.63 0h-27.268c-1.304 0-2.362 1.034-2.362 2.306v27.385c0 1.274 1.058 2.309 2.362 2.309h27.268c1.305 0 2.37-1.035 2.37-2.309v-27.385c0-1.272-1.065-2.306-2.37-2.306zm-20.139 27.268h-4.748v-15.271h4.748v15.271zm-2.374-17.359c-1.521 0-2.751-1.233-2.751-2.753 0-1.518 1.23-2.751 2.751-2.751 1.517 0 2.751 1.233 2.751 2.751 0 1.52-1.233 2.753-2.751 2.753zm20.15 17.359h-4.741v-7.426c0-1.772-.035-4.05-2.467-4.05-2.47 0-2.847 1.929-2.847 3.921v7.554h-4.745v-15.271h4.553v2.086h.065c.634-1.2 2.182-2.466 4.491-2.466 4.803 0 5.69 3.162 5.69 7.276v8.376z" class="iconic-property-fill"/>
    </g>
  </g>
  <!-- Pinterest -->
  <g data-width="32" data-height="32" class="iconic-md iconic-container" display="none" transform="scale(4)">
    <g class="iconic-social-pinterest" display="none">
      <path d="M16 0c-8.836 0-16 7.164-16 16 0 6.552 3.94 12.18 9.577 14.655-.045-1.117-.008-2.458.279-3.674.308-1.299 2.059-8.719 2.059-8.719s-.511-1.022-.511-2.532c0-2.371 1.374-4.142 3.086-4.142 1.455 0 2.158 1.093 2.158 2.402 0 1.463-.933 3.651-1.413 5.678-.401 1.697.851 3.082 2.526 3.082 3.031 0 5.073-3.893 5.073-8.507 0-3.507-2.362-6.131-6.658-6.131-4.854 0-7.877 3.619-7.877 7.662 0 1.394.411 2.377 1.055 3.138.296.35.337.49.23.892-.077.294-.253 1.003-.326 1.284-.106.405-.435.55-.801.4-2.236-.913-3.277-3.361-3.277-6.113 0-4.545 3.833-9.995 11.435-9.995 6.109 0 10.129 4.42 10.129 9.166 0 6.277-3.489 10.966-8.633 10.966-1.727 0-3.352-.934-3.909-1.994 0 0-.929 3.687-1.126 4.398-.339 1.234-1.003 2.467-1.61 3.428 1.439.425 2.959.656 4.535.656 8.836 0 15.999-7.163 15.999-16s-7.164-16-16-16z" class="iconic-property-fill"/>
    </g>
  </g>
  <!-- Reddit -->
  <g data-width="24" data-height="32" class="iconic-md iconic-container" display="none" transform="scale(4) translate(4)">
    <g class="iconic-social-reddit" display="none">
      <path d="M23.065 9.463c0-1.463-1.191-2.654-2.654-2.654-.679 0-1.292.264-1.759.688-1.694-1.097-3.946-1.806-6.441-1.923l1.323-4.181 3.6.847c.025 1.188.995 2.147 2.19 2.147 1.209 0 2.193-.984 2.193-2.194s-.984-2.193-2.193-2.193c-.889 0-1.652.533-1.997 1.295l-4.007-.944c-.245-.059-.493.084-.57.324l-1.545 4.883c-2.645.048-5.042.762-6.831 1.904-.463-.404-1.06-.654-1.721-.654-1.463 0-2.652 1.191-2.652 2.654 0 .94.496 1.758 1.235 2.228-.041.249-.066.502-.066.758 0 2.539 2.068 4.757 5.131 5.955-1.454.718-2.481 2.407-2.481 4.383 0 2.252 1.332 4.138 3.113 4.628.131.406.277.789.434 1.156-.048-.003-.095-.009-.144-.009-1.612 0-2.924 1.104-2.924 2.462 0 .204.036.414.111.643.065.198.25.333.458.333h13.266c.21 0 .395-.141.459-.341.072-.226.107-.433.107-.635 0-1.358-1.312-2.462-2.925-2.462-.059 0-.115.007-.173.011.156-.365.303-.747.433-1.15 1.798-.476 3.148-2.369 3.148-4.636 0-1.982-1.033-3.677-2.494-4.391 3.053-1.199 5.112-3.413 5.112-5.946 0-.241-.019-.478-.055-.713.785-.459 1.319-1.3 1.319-2.273zm-3.741-8.498c.677 0 1.228.551 1.228 1.229s-.551 1.229-1.228 1.229c-.679 0-1.23-.551-1.23-1.229s.552-1.229 1.23-1.229zm-18.36 8.498c0-.931.757-1.69 1.688-1.69.333 0 .636.106.897.274-.948.764-1.645 1.668-2.032 2.656-.338-.307-.553-.748-.553-1.24zm14.731 9.278c.142.929.225 1.91.225 2.928 0 4.345-1.405 8.25-3.356 9.37h-2.156c-1.951-1.12-3.356-5.025-3.356-9.37 0-1.018.084-1.999.225-2.928 1.287.387 2.709.607 4.209.607 1.5 0 2.923-.22 4.21-.607zm-10.91 4.046c0-1.334.563-2.501 1.405-3.177-.065.665-.103 1.351-.103 2.059 0 1.628.189 3.182.524 4.581-1.073-.59-1.826-1.916-1.826-3.463zm.479 8.249c0-.004 0-.008 0-.012 0-.826.879-1.498 1.96-1.498.236 0 .456.041.664.1.307.542.646 1.017 1.013 1.409h-3.637zm10.512-1.51c1.081 0 1.96.672 1.96 1.498 0 .004 0 .008 0 .012h-3.665c.365-.39.702-.861 1.008-1.399.218-.065.449-.11.698-.11zm2.444-6.74c0 1.565-.771 2.906-1.865 3.485.339-1.404.53-2.967.53-4.603 0-.718-.039-1.413-.106-2.086.862.672 1.441 1.852 1.441 3.204zm-6.734-4.403c-5.156 0-9.351-2.662-9.351-5.934 0-3.273 4.195-5.935 9.351-5.935 5.157 0 9.352 2.663 9.352 5.935s-4.195 5.934-9.352 5.934zm9.994-7.613c-.376-.999-1.067-1.914-2.015-2.688.27-.189.592-.309.947-.309.931 0 1.69.758 1.69 1.69 0 .526-.243.997-.622 1.307z" class="iconic-social-reddit-body iconic-property-fill"/>
      <circle cx="8.072" cy="11.195" r="1.503" class="iconic-social-reddit-eye iconic-social-reddit-eye-left iconic-property-fill"/>
      <circle cx="15" cy="11.195" r="1.503" class="iconic-social-reddit-eye iconic-social-reddit-eye-right iconic-property-fill"/>
      <path d="M15.27 15.061c-.188-.188-.493-.188-.682 0-.593.593-1.588.88-3.043.88-.004 0-.008.002-.013.003-.004 0-.008-.003-.013-.003-1.455 0-2.451-.288-3.043-.88-.188-.188-.493-.188-.682 0-.188.188-.188.493 0 .682.782.782 2.001 1.162 3.725 1.162.004 0 .008-.002.013-.003.004 0 .008.003.013.003 1.723 0 2.942-.38 3.725-1.162.188-.188.188-.493 0-.682z" class="iconic-social-reddit-mouth iconic-property-fill"/>
    </g>
  </g>
  <!-- Tumblr -->
  <g data-width="19" data-height="32" class="iconic-md iconic-container" display="none" transform="scale(4) translate(6)">
    <g class="iconic-social-tumblr" display="none">
      <path d="M16.852 25.56c-.595.283-1.733.531-2.582.553-2.562.069-3.058-1.799-3.08-3.155v-9.961h6.426v-4.844h-6.402v-8.152s-4.611 0-4.688 0c-.077 0-.211.068-.23.239-.274 2.495-1.442 6.874-6.296 8.623v4.133h3.238v10.456c0 3.579 2.641 8.665 9.612 8.546 2.352-.041 4.963-1.026 5.541-1.874l-1.539-4.564z" class="iconic-property-fill"/>
    </g>
  </g>
  <!-- Twitter -->
  <g data-width="32" data-height="26" class="iconic-md iconic-container" display="none" transform="scale(4) translate(0 3)">
    <g class="iconic-social-twitter">
      <path d="M10.064 26c-3.708 0-7.159-1.087-10.064-2.949.514.061 1.036.092 1.566.092 3.076 0 5.907-1.049 8.153-2.81-2.873-.053-5.297-1.951-6.133-4.558.401.077.812.118 1.235.118.599 0 1.179-.08 1.73-.23-3.003-.603-5.266-3.256-5.266-6.436 0-.028 0-.055.001-.083.885.492 1.898.787 2.974.821-1.762-1.177-2.921-3.186-2.921-5.463 0-1.203.324-2.33.889-3.3 3.238 3.971 8.076 6.584 13.532 6.858-.112-.48-.17-.981-.17-1.496 0-3.625 2.94-6.564 6.565-6.564 1.888 0 3.595.797 4.792 2.073 1.495-.294 2.901-.841 4.169-1.593-.49 1.533-1.531 2.819-2.887 3.631 1.328-.159 2.593-.511 3.771-1.034-.88 1.316-1.993 2.472-3.276 3.398.013.281.019.565.019.849 0 8.674-6.603 18.675-18.679 18.675" class="iconic-property-fill"/>
    </g>
  </g>
  <!-- Vimeo -->
  <g data-width="32" data-height="28" class="iconic-md iconic-container" display="none" transform="scale(4) translate(0 2)">
    <g class="iconic-social-vimeo" display="none">
      <path d="M31.985 6.406c-.143 3.116-2.318 7.383-6.526 12.799-4.351 5.657-8.032 8.485-11.043 8.485-1.865 0-3.444-1.722-4.733-5.168-.861-3.158-1.722-6.316-2.583-9.474-.958-3.444-1.984-5.168-3.083-5.168-.239 0-1.077.504-2.511 1.508l-1.506-1.94c1.579-1.388 3.137-2.776 4.67-4.166 2.106-1.821 3.687-2.778 4.741-2.875 2.49-.239 4.023 1.464 4.599 5.109.622 3.933 1.052 6.379 1.294 7.337.718 3.263 1.508 4.893 2.371 4.893.67 0 1.676-1.058 3.018-3.175 1.34-2.117 2.058-3.727 2.154-4.834.191-1.827-.527-2.742-2.154-2.742-.766 0-1.556.176-2.369.525 1.573-5.153 4.578-7.656 9.012-7.513 3.288.097 4.838 2.23 4.649 6.4z" class="iconic-property-fill"/>
    </g>
  </g>
  <!-- YouTube -->
  <g data-width="32" data-height="14" class="iconic-md iconic-container" display="none" transform="scale(4) translate(0 9)">
    <g class="iconic-social-youtube" display="none">
      <path d="M11.944 10.806h-1.214v-.703c-.46.527-.85.794-1.275.794-.373 0-.632-.176-.762-.494-.079-.193-.135-.495-.135-.939v-5.109h1.213v4.79c0 .271 0 .383 0 .447.028.179.104.245.259.245.232 0 .443-.202.699-.564v-4.918h1.214v6.451z" class="iconic-social-youtube-you iconic-social-youtube-you-u iconic-property-fill"/>
      <path d="M7.664 6.463c0-.689-.139-1.207-.383-1.533-.323-.441-.83-.622-1.341-.622-.578 0-1.018.181-1.341.622-.249.326-.382.849-.382 1.538l-.001 2.294c0 .685.119 1.159.367 1.482.323.44.846.673 1.357.673s1.044-.233 1.367-.673c.245-.323.358-.796.358-1.482v-2.299zm-1.213 2.427c.064.639-.134.956-.511.956s-.575-.317-.511-.956v-2.555c-.064-.639.134-.938.511-.938s.575.299.512.938l-.001 2.555z" class="iconic-social-youtube-you iconic-social-youtube-you-o iconic-property-fill"/>
      <path d="M2.874 7.294v3.513h-1.277v-3.513s-1.324-4.307-1.597-5.109h1.341l.896 3.364.892-3.364h1.341l-1.597 5.109z" class="iconic-social-youtube-you iconic-social-youtube-you-y iconic-property-fill"/>
      <path d="M24.909 6.208v2.746c0 .639-.151.883-.484.883-.19 0-.41-.098-.603-.291l.001-3.873c.193-.191.411-.291.602-.291.334 0 .484.188.484.826zm4.279-.059c0-.59-.153-.768-.536-.768-.386 0-.55.163-.55.76v.706l1.086-.001v-.697zm2.812-.196v1.44c0 1.536-.191 3.073-.191 3.073s-.186 1.308-.758 1.885c-.725.756-1.538.76-1.911.804-2.669.192-6.676.198-6.676.198s-4.959-.045-6.484-.191c-.424-.079-1.378-.055-2.103-.811-.572-.576-.758-1.885-.758-1.885s-.191-1.536-.191-3.073v-1.441c0-1.536.191-3.073.191-3.073s.186-1.308.758-1.885c.725-.756 1.538-.76 1.911-.804 2.669-.192 6.672-.192 6.672-.192h.008s4.003 0 6.672.192c.373.044 1.186.048 1.911.804.572.576.758 1.885.758 1.885s.19 1.536.19 3.073zm-14.883-2.492h1.405v-1.213l-4.024.001v1.212h1.341v7.345h1.277v-7.345zm4.599.958h-1.214v4.854c-.257.362-.467.564-.699.564-.154 0-.23-.066-.259-.245 0-.064 0-.176 0-.447v-4.726h-1.214v5.046c0 .443.056.745.135.939.13.318.389.494.762.494.425 0 .815-.266 1.275-.794v.703h1.214v-6.387zm4.407 1.916c0-.605-.077-1.018-.155-1.275-.154-.478-.464-.744-.924-.744-.425 0-.848.262-1.222.721l.001-2.79h-1.15v8.559h1.15l.002-.643c.386.478.808.725 1.219.725.46 0 .797-.246.951-.721.077-.271.128-.687.128-1.277v-2.555zm1.98 2.616v-1.147h2.301v-1.306c0-.682-.134-1.181-.376-1.504-.324-.437-.784-.668-1.365-.668-.59 0-1.051.231-1.385.668-.246.323-.389.85-.389 1.532v2.235c0 .678.158 1.153.403 1.472.334.436.795.654 1.4.654.604 0 1.079-.228 1.399-.692.141-.205.231-.436.27-.693.01-.116.041-.38.041-.752v-.181h-1.214c0 .464.002.74-.009.803-.066.309-.232.464-.517.464-.397 0-.564-.297-.56-.886z" class="iconic-social-youtube-tube iconic-property-fill"/>
    </g>
  </g>


  <!-- Dribbble -->
  <g class="iconic-container iconic-sm" data-width="16" data-height="15" display="none" transform="scale(8)">
    <g class="iconic-social-dribbble" display="none">
      <path fill-rule="evenodd" clip-rule="evenodd" d="M8 15.979c-4.411 0-8-3.584-8-7.989 0-4.405 3.589-7.989 8-7.989s8 3.584 8 7.989c0 4.405-3.589 7.989-8 7.989zm6.747-6.896c-.234-.074-2.115-.634-4.256-.292.894 2.453 1.258 4.45 1.327 4.865 1.533-1.035 2.624-2.675 2.929-4.574zm-4.078 5.198c-.102-.599-.498-2.685-1.458-5.175-.015.005-.03.01-.045.015-3.854 1.341-5.238 4.011-5.361 4.261 1.159.902 2.615 1.441 4.194 1.441.947 0 1.849-.193 2.669-.542zm-7.746-1.719c.155-.265 2.03-3.366 5.554-4.503.089-.029.179-.056.269-.081-.171-.388-.358-.776-.554-1.158-3.412 1.02-6.724.977-7.023.971-.002.069-.004.139-.004.208 0 1.753.665 3.353 1.757 4.563zm-1.612-5.96c.306.004 3.121.016 6.317-.831-1.132-2.01-2.353-3.7-2.533-3.947-1.912.901-3.341 2.66-3.784 4.778zm5.088-5.237c.189.253 1.43 1.94 2.55 3.995 2.43-.909 3.458-2.29 3.581-2.465-1.207-1.069-2.794-1.72-4.53-1.72-.551 0-1.087.066-1.601.19zm6.891 2.319c-.144.195-1.289 1.661-3.816 2.691.159.325.311.656.453.988.05.118.099.235.147.352 2.274-.285 4.533.172 4.758.22-.015-1.611-.591-3.09-1.543-4.251z" class="iconic-property-fill"/>
    </g>
  </g>
  <!-- Dropbox -->
  <g data-width="16" data-height="15" class="iconic-sm iconic-container" display="none" transform="scale(8)">
    <g class="iconic-social-dropbox" display="none">
      <path class="iconic-social-dropbox-flap iconic-social-dropbox-flap-left iconic-social-dropbox-flap-top iconic-social-dropbox-flap-top-left iconic-property-fill" d="M4.707 0l-4.707 3.073 3.254 2.606 4.745-2.93z"/>
      <path class="iconic-social-dropbox-flap iconic-social-dropbox-flap-left iconic-social-dropbox-flap-bottom iconic-social-dropbox-flap-bottom-left iconic-property-fill" d="M0 8.285l4.707 3.073 3.293-2.749-4.745-2.93z"/>
      <path class="iconic-social-dropbox-flap iconic-social-dropbox-flap-right iconic-social-dropbox-flap-bottom iconic-social-dropbox-flap-bottom-right iconic-property-fill" d="M8 8.609l3.293 2.749 4.707-3.073-3.254-2.606z"/>
      <path class="iconic-social-dropbox-flap iconic-social-dropbox-flap-right iconic-social-dropbox-flap-top iconic-social-dropbox-flap-top-right iconic-property-fill" d="M16 3.073l-4.707-3.073-3.293 2.749 4.746 2.93z"/>
      <path class="iconic-social-dropbox-base iconic-property-fill" d="M8.01 9.201l-3.303 2.741-1.413-.923v1.034l4.716 2.828 4.716-2.828v-1.034l-1.413.923z"/>
    </g>
  </g>
  <!-- Facebook -->
  <g data-width="16" data-height="16" class="iconic-sm iconic-container" display="none" transform="scale(8)">
    <g class="iconic-social-facebook" display="none">
      <path d="M15.117 0h-14.234c-.488 0-.883.395-.883.883v14.234c0 .488.395.883.883.883h7.663v-6.196h-2.085v-2.415h2.085v-1.781c0-2.067 1.262-3.192 3.106-3.192.883 0 1.642.066 1.863.095v2.16l-1.279.001c-1.003 0-1.197.476-1.197 1.176v1.542h2.391l-.311 2.415h-2.08v6.196h4.077c.488 0 .883-.395.883-.883v-14.234c0-.488-.395-.883-.883-.883z" class="iconic-property-fill"/>
    </g>
  </g>
  <!-- Flickr -->
  <g class="iconic-container iconic-sm" data-width="16" data-height="7" display="none" transform="scale(8) translate(0 4)">
    <g class="iconic-social-flickr" display="none">
      <path d="M16 3.765c0 2.079-1.685 3.765-3.765 3.765-2.079 0-3.765-1.685-3.765-3.765 0-2.079 1.686-3.765 3.765-3.765s3.765 1.685 3.765 3.765" class="iconic-social-flickr-circle iconic-social-flickr-circle-right iconic-property-fill"/>
      <path d="M7.529 3.765c0 2.079-1.685 3.765-3.765 3.765-2.079 0-3.765-1.685-3.765-3.765 0-2.079 1.685-3.765 3.765-3.765 2.079 0 3.765 1.685 3.765 3.765" class="iconic-social-flickr-circle iconic-social-flickr-circle-left iconic-property-fill"/>
    </g>
  </g>
  <!-- Github -->
  <g data-width="16" data-height="16" class="iconic-sm iconic-container" display="none" transform="scale(8)">
    <g class="iconic-social-github" display="none">
      <path fill-rule="evenodd" clip-rule="evenodd" d="M8 0c-4.417 0-8 3.582-8 8.001 0 3.534 2.292 6.533 5.471 7.591.4.073.546-.174.546-.386 0-.19-.007-.693-.011-1.361-2.225.483-2.695-1.072-2.695-1.072-.364-.924-.888-1.17-.888-1.17-.726-.496.055-.486.055-.486.803.057 1.225.824 1.225.824.714 1.222 1.872.87 2.328.665.073-.517.279-.87.508-1.069-1.776-.202-3.644-.888-3.644-3.954 0-.873.312-1.587.823-2.147-.082-.203-.357-1.016.078-2.117 0 0 .672-.215 2.2.82.638-.177 1.323-.266 2.003-.269.679.003 1.364.092 2.003.269 1.527-1.035 2.198-.82 2.198-.82.436 1.101.162 1.915.08 2.117.513.559.822 1.273.822 2.147 0 3.073-1.871 3.749-3.653 3.948.287.247.543.735.543 1.482 0 1.069-.01 1.932-.01 2.195 0 .214.144.463.55.385 3.176-1.06 5.466-4.057 5.466-7.59 0-4.419-3.582-8.001-8-8.001z" class="iconic-property-fill"/>
    </g>
  </g>
  <!-- Google Plus -->
  <g class="iconic-container iconic-sm" data-width="16" data-height="13" display="none" transform="scale(8) translate(0 1)">
    <g class="iconic-social-google-plus" display="none">
      <path d="M6.937 7.782c-.378-.268-1.102-.919-1.102-1.302 0-.449.128-.67.803-1.198.692-.541 1.182-1.302 1.182-2.186 0-1.053-.469-2.08-1.35-2.418h1.327l.937-.677h-4.187c-1.877 0-3.643 1.422-3.643 3.069 0 1.683 1.279 3.042 3.189 3.042.133 0 .262-.003.388-.012-.124.237-.213.504-.213.782 0 .468.252.847.57 1.157-.24 0-.472.007-.726.007-2.325 0-4.114 1.481-4.114 3.016 0 1.512 1.962 2.458 4.287 2.458 2.65 0 4.114-1.504 4.114-3.016 0-1.212-.358-1.939-1.464-2.721zm-2.236-2.098c-1.079-.032-2.104-1.207-2.29-2.623-.186-1.417.537-2.501 1.615-2.468 1.078.032 2.104 1.169 2.29 2.585.186 1.417-.537 2.538-1.615 2.506zm-.422 7.166c-1.607 0-2.768-1.017-2.768-2.239 0-1.198 1.44-2.194 3.046-2.177.375.004.725.064 1.042.167.872.607 1.498.949 1.675 1.641.033.14.051.284.051.432 0 1.222-.787 2.177-3.046 2.177z" class="iconic-social-google-plus-g iconic-property-fill"/>
      <path class="iconic-social-google-plus-plus iconic-property-accent iconic-property-fill" d="M13 3v-3h-1v3h-3v1h3v3h1v-3h3v-1z"/>
    </g>
  </g>
  <!-- Instagram -->
  <g data-width="16" data-height="16" class="iconic-sm iconic-container" display="none" transform="scale(8)">
    <g class="iconic-social-instagram" display="none">
      <path fill-rule="evenodd" clip-rule="evenodd" d="M2.054 0h11.893c1.13 0 2.054.924 2.054 2.054v11.893c0 1.13-.924 2.054-2.054 2.054h-11.893c-1.129 0-2.054-.924-2.054-2.054v-11.893c0-1.129.924-2.054 2.054-2.054zm9.602 1.778c-.396 0-.72.324-.72.72v1.724c0 .396.324.72.72.72h1.808c.396 0 .72-.324.72-.72v-1.724c0-.396-.324-.72-.72-.72h-1.809zm2.536 4.989h-1.408c.133.435.205.896.205 1.373 0 2.661-2.227 4.819-4.973 4.819-2.747 0-4.973-2.157-4.973-4.819 0-.477.072-.938.205-1.373h-1.469v6.759c0 .35.286.636.636.636h11.142c.35 0 .636-.286.636-.636v-6.759zm-6.176-1.915c-1.775 0-3.213 1.394-3.213 3.114s1.439 3.114 3.213 3.114c1.775 0 3.213-1.394 3.213-3.114s-1.439-3.114-3.213-3.114z" class="iconic-property-fill"/>
    </g>
  </g>
  <!-- LinkedIn -->
  <g data-width="16" data-height="16" class="iconic-sm iconic-container" display="none" transform="scale(8)">
    <g class="iconic-social-linkedin" display="none">
      <path d="M14.815 0h-13.634c-.652 0-1.181.517-1.181 1.153v13.693c0 .637.529 1.154 1.181 1.154h13.634c.652 0 1.185-.517 1.185-1.155v-13.693c0-.636-.533-1.153-1.185-1.153zm-10.07 13.634h-2.374v-7.635h2.374v7.635zm-1.187-8.679c-.761 0-1.376-.617-1.376-1.376 0-.759.615-1.376 1.376-1.376.759 0 1.375.617 1.375 1.376 0 .76-.617 1.376-1.375 1.376zm10.075 8.679h-2.37v-3.713c0-.886-.017-2.025-1.234-2.025-1.235 0-1.423.965-1.423 1.961v3.777h-2.372v-7.635h2.277v1.043h.032c.317-.6 1.091-1.233 2.246-1.233 2.401 0 2.845 1.581 2.845 3.638v4.188z" class="iconic-property-fill"/>
    </g>
  </g>
  <!-- Pinterest -->
  <g data-width="16" data-height="16" class="iconic-sm iconic-container" display="none" transform="scale(8)">
    <g class="iconic-social-pinterest" display="none">
      <path d="M8 0c-4.418 0-8 3.582-8 8 0 3.276 1.97 6.09 4.789 7.327-.022-.559-.004-1.229.139-1.837.154-.649 1.029-4.359 1.029-4.359s-.256-.511-.256-1.266c0-1.185.687-2.071 1.543-2.071.728 0 1.079.547 1.079 1.201 0 .732-.467 1.826-.707 2.839-.2.849.425 1.541 1.263 1.541 1.516 0 2.537-1.947 2.537-4.253 0-1.753-1.181-3.066-3.329-3.066-2.427 0-3.939 1.81-3.939 3.831 0 .697.205 1.188.527 1.569.148.175.169.245.115.446-.038.147-.127.502-.163.642-.053.203-.217.275-.401.2-1.118-.456-1.638-1.68-1.638-3.056 0-2.273 1.917-4.998 5.718-4.998 3.054 0 5.065 2.21 5.065 4.583 0 3.138-1.745 5.483-4.317 5.483-.864 0-1.676-.467-1.954-.997 0 0-.465 1.843-.563 2.199-.17.617-.502 1.233-.805 1.714.72.212 1.48.328 2.267.328 4.418 0 8-3.582 8-8s-3.582-8-8-8z" class="iconic-property-fill"/>
    </g>
  </g>
  <!-- Reddit -->
  <g data-width="12" data-height="16" class="iconic-sm iconic-container" display="none" transform="scale(8) translate(2)">
    <g class="iconic-social-reddit" display="none">
      <path d="M11.533 4.731c0-.732-.595-1.327-1.327-1.327-.34 0-.646.132-.88.344-.847-.549-1.973-.903-3.22-.962l.661-2.091 1.8.424c.013.594.498 1.074 1.095 1.074.605 0 1.096-.492 1.096-1.097s-.492-1.097-1.096-1.097c-.445 0-.826.267-.998.647l-2.004-.472c-.122-.029-.247.042-.285.162l-.772 2.442c-1.323.024-2.521.381-3.416.952-.231-.202-.53-.327-.861-.327-.731 0-1.326.595-1.326 1.327 0 .47.248.879.618 1.114-.021.125-.033.251-.033.379 0 1.27 1.034 2.378 2.566 2.977-.727.359-1.24 1.204-1.24 2.192 0 1.126.666 2.069 1.556 2.314.065.203.139.395.217.578-.024-.001-.048-.004-.072-.004-.806 0-1.462.552-1.462 1.231 0 .102.018.207.055.322.032.099.125.166.229.166h6.633c.105 0 .198-.07.23-.171.036-.113.053-.217.053-.317 0-.679-.656-1.231-1.462-1.231-.029 0-.058.004-.086.006.078-.182.151-.373.216-.575.899-.238 1.574-1.185 1.574-2.318 0-.991-.517-1.839-1.247-2.196 1.526-.6 2.556-1.706 2.556-2.973 0-.12-.01-.239-.028-.356.393-.23.66-.65.66-1.137zm-1.87-4.249c.339 0 .614.276.614.615s-.276.615-.614.615c-.339 0-.615-.276-.615-.615s.276-.615.615-.615zm-9.18 4.249c0-.466.379-.845.844-.845.166 0 .318.053.448.137-.474.382-.822.834-1.016 1.328-.169-.154-.277-.374-.277-.62zm7.365 4.639c.071.465.113.955.113 1.464 0 2.172-.703 4.125-1.678 4.685h-1.078c-.976-.56-1.678-2.512-1.678-4.685 0-.509.042-.999.113-1.464.643.193 1.355.303 2.104.303.75 0 1.461-.11 2.105-.304zm-5.455 2.023c0-.667.281-1.25.703-1.589-.033.332-.051.675-.051 1.03 0 .814.095 1.591.262 2.29-.536-.295-.913-.958-.913-1.731zm.239 4.125c0-.002 0-.004 0-.006 0-.413.44-.749.98-.749.118 0 .228.021.332.05.154.271.323.509.507.705h-1.819zm5.256-.755c.54 0 .98.336.98.749 0 .002 0 .004 0 .006h-1.833c.183-.195.351-.43.504-.7.109-.033.225-.055.349-.055zm1.222-3.37c0 .782-.385 1.453-.932 1.743.169-.702.265-1.483.265-2.302 0-.359-.019-.707-.053-1.043.431.336.721.926.721 1.602zm-3.367-2.202c-2.578 0-4.675-1.331-4.675-2.967 0-1.637 2.097-2.968 4.675-2.968 2.579 0 4.676 1.331 4.676 2.968 0 1.636-2.098 2.967-4.676 2.967zm4.997-3.807c-.188-.499-.534-.957-1.008-1.344.135-.095.296-.154.474-.154.466 0 .845.379.845.845 0 .263-.121.498-.311.653z" class="iconic-social-reddit-body iconic-property-fill"/>
      <circle cx="4.036" cy="5.598" r=".751" class="iconic-social-reddit-eye iconic-social-reddit-eye-left iconic-property-fill"/>
      <circle cx="7.5" cy="5.598" r=".751" class="iconic-social-reddit-eye iconic-social-reddit-eye-right iconic-property-fill"/>
      <path d="M7.635 7.531c-.094-.094-.246-.094-.341 0-.296.296-.794.44-1.522.44-.002 0-.004.001-.006.001s-.004-.001-.006-.001c-.728 0-1.226-.144-1.522-.44-.094-.094-.247-.094-.341 0-.094.094-.094.247 0 .341.391.391 1 .581 1.862.581.002 0 .004-.001.006-.001s.004.001.006.001c.862 0 1.471-.19 1.863-.581.094-.094.094-.247 0-.341z" class="iconic-social-reddit-mouth iconic-property-fill"/>
    </g>
  </g>
  <!-- Tumblr -->
  <g data-width="10" data-height="16" class="iconic-sm iconic-container" display="none" transform="scale(8) translate(3)">
    <g class="iconic-social-tumblr" display="none">
      <path d="M8.426 12.78c-.297.142-.867.265-1.291.276-1.281.034-1.529-.899-1.54-1.577v-4.981h3.213v-2.422h-3.201v-4.076s-2.305 0-2.344 0c-.038 0-.106.034-.115.12-.137 1.248-.721 3.437-3.148 4.312v2.067h1.619v5.228c0 1.79 1.321 4.332 4.806 4.273 1.176-.02 2.482-.513 2.771-.937l-.77-2.282z" class="iconic-property-fill"/>
    </g>
  </g>
  <!-- Twitter -->
  <g data-width="16" data-height="13" class="iconic-sm iconic-container" display="none" transform="scale(8) translate(0 1)">
    <g class="iconic-social-twitter">
      <path d="M5.032 13c-1.854 0-3.579-.543-5.032-1.474.257.03.518.046.783.046 1.538 0 2.953-.525 4.077-1.405-1.437-.027-2.649-.975-3.067-2.279.2.038.406.059.618.059.299 0 .589-.04.865-.115-1.502-.301-2.633-1.628-2.633-3.218 0-.014 0-.028 0-.041.443.246.949.393 1.487.41-.881-.589-1.46-1.593-1.46-2.732 0-.601.162-1.165.444-1.65 1.619 1.986 4.038 3.292 6.766 3.429-.056-.24-.085-.491-.085-.748 0-1.812 1.47-3.282 3.283-3.282.944 0 1.797.399 2.396 1.036.748-.147 1.45-.42 2.084-.796-.245.766-.766 1.409-1.443 1.816.664-.079 1.297-.256 1.885-.517-.44.658-.997 1.236-1.638 1.699.006.141.009.282.009.425 0 4.337-3.302 9.338-9.34 9.338" class="iconic-property-fill"/>
    </g>
  </g>
  <!-- Vimeo -->
  <g data-width="16" data-height="14" class="iconic-sm iconic-container" display="none" transform="scale(8) translate(0 1)">
    <g class="iconic-social-vimeo" display="none">
      <path d="M15.992 3.203c-.071 1.558-1.159 3.692-3.263 6.399-2.175 2.829-4.016 4.243-5.521 4.243-.932 0-1.722-.861-2.366-2.584-.431-1.579-.861-3.158-1.291-4.737-.479-1.722-.992-2.584-1.541-2.584-.12 0-.539.252-1.256.754l-.753-.97c.789-.694 1.569-1.388 2.335-2.083 1.053-.91 1.844-1.389 2.371-1.437 1.245-.12 2.012.732 2.299 2.554.311 1.966.526 3.19.647 3.668.359 1.632.754 2.446 1.185 2.446.335 0 .838-.529 1.509-1.587.67-1.058 1.029-1.864 1.077-2.417.096-.913-.264-1.371-1.077-1.371-.383 0-.778.088-1.184.263.786-2.576 2.289-3.828 4.506-3.757 1.644.048 2.419 1.115 2.325 3.2z" class="iconic-property-fill"/>
    </g>
  </g>
  <!-- YouTube -->
  <g data-width="16" data-height="7" class="iconic-sm iconic-container" display="none" transform="scale(8) translate(0 4)">
    <g class="iconic-social-youtube" display="none">
      <path d="M5.972 5.403h-.607v-.351c-.23.264-.425.397-.638.397-.186 0-.316-.088-.381-.247-.04-.097-.067-.248-.067-.469v-2.555h.607v2.395c0 .136 0 .192 0 .224.014.09.052.122.129.122.116 0 .221-.101.35-.282v-2.459h.607v3.225z" class="iconic-social-youtube-you iconic-social-youtube-you-u iconic-property-fill"/>
      <path d="M3.832 3.232c0-.345-.069-.604-.192-.766-.162-.221-.415-.311-.671-.311-.289 0-.509.09-.671.311-.124.163-.191.425-.191.769l-.001 1.147c0 .343.059.58.184.741.161.22.423.336.679.336s.522-.117.683-.336c.122-.161.179-.398.179-.741v-1.15zm-.607 1.213c.032.319-.067.478-.256.478-.188 0-.287-.159-.255-.478v-1.277c-.032-.319.067-.469.256-.469.188 0 .288.15.256.469v1.277z" class="iconic-social-youtube-you iconic-social-youtube-you-o iconic-property-fill"/>
      <path d="M1.437 3.647v1.756h-.639v-1.756s-.662-2.153-.798-2.555h.671l.448 1.682.446-1.682h.671l-.798 2.555z" class="iconic-social-youtube-you iconic-social-youtube-you-y iconic-property-fill"/>
      <path d="M12.454 3.104v1.373c0 .319-.075.442-.242.442-.095 0-.205-.049-.301-.146l.001-1.937c.097-.095.206-.146.301-.146.167 0 .242.094.242.413zm2.14-.029c0-.295-.076-.384-.268-.384-.193 0-.275.081-.275.38v.353l.543-.001v-.349zm1.406-.098v.72c0 .768-.095 1.536-.095 1.536s-.093.654-.379.942c-.363.378-.769.38-.956.402-1.334.096-3.338.099-3.338.099s-2.479-.023-3.242-.095c-.212-.04-.689-.028-1.051-.406-.286-.288-.379-.942-.379-.942s-.095-.768-.095-1.536v-.72c0-.768.095-1.536.095-1.536s.093-.654.379-.942c.363-.378.769-.38.955-.402 1.334-.096 3.336-.096 3.336-.096h.004s2.002 0 3.336.096c.186.022.593.024.956.402.286.288.379.942.379.942s.095.768.095 1.536zm-7.441-1.246h.702v-.607l-2.012.001v.606h.671v3.672h.639v-3.673zm2.299.479h-.607v2.427c-.128.181-.234.282-.35.282-.077 0-.115-.033-.129-.122 0-.032 0-.088 0-.224v-2.363h-.607v2.523c0 .222.028.373.067.469.065.159.194.247.381.247.213 0 .407-.133.638-.397v.351h.607v-3.193zm2.204.958c0-.302-.039-.509-.077-.637-.077-.239-.232-.372-.462-.372-.213 0-.424.131-.611.361l.001-1.395h-.575v4.279h.575l.001-.322c.193.239.404.363.609.363.23 0 .398-.123.476-.36.039-.135.064-.344.064-.639v-1.277zm.99 1.308v-.573h1.151v-.653c0-.341-.067-.591-.188-.752-.162-.218-.392-.334-.682-.334-.295 0-.525.116-.693.334-.123.161-.195.425-.195.766v1.118c0 .339.079.577.202.736.167.218.397.327.7.327.302 0 .539-.114.699-.346.07-.102.116-.218.135-.346.005-.058.021-.19.021-.376v-.09h-.607c0 .232.001.37-.004.401-.033.155-.116.232-.258.232-.198 0-.282-.148-.28-.443z" class="iconic-social-youtube-tube iconic-property-fill"/>
    </g>
  </g>


<script class="iconic-api" type="application/ecmascript">
//<![CDATA[
var iconicApis=window._Iconic?window._Iconic.smartIconApis:{};iconicApis["social"]=iconicApis["social"]||function(t){var e=function(e){t.setAttribute("data-type",e);var i,r,n,a,c,o,s,l,u,d,A,p,b,f,w=t.querySelectorAll(".iconic-social-dribbble"),y=t.querySelectorAll(".iconic-social-dropbox"),h=t.querySelectorAll(".iconic-social-facebook"),g=t.querySelectorAll(".iconic-social-flickr"),v=t.querySelectorAll(".iconic-social-github"),m=t.querySelectorAll(".iconic-social-google-plus"),S=t.querySelectorAll(".iconic-social-instagram"),q=t.querySelectorAll(".iconic-social-linkedin"),k=t.querySelectorAll(".iconic-social-pinterest"),I=t.querySelectorAll(".iconic-social-reddit"),_=t.querySelectorAll(".iconic-social-tumblr"),x=t.querySelectorAll(".iconic-social-twitter"),z=t.querySelectorAll(".iconic-social-vimeo"),j=t.querySelectorAll(".iconic-social-youtube");switch(i=r=n=a=c=o=s=l=u=d=A=p=b=f="none",e){case"dribbble":i="inline";break;case"dropbox":r="inline";break;case"facebook":n="inline";break;case"flickr":a="inline";break;case"github":c="inline";break;case"google-plus":o="inline";break;case"instagram":s="inline";break;case"linkedin":l="inline";break;case"pinterest":u="inline";break;case"reddit":d="inline";break;case"tumblr":A="inline";break;case"vimeo":b="inline";break;case"youtube":f="inline";break;default:p="inline"}for(var D=0;D<w.length;D++)w[D].setAttribute("display",i),y[D].setAttribute("display",r),h[D].setAttribute("display",n),g[D].setAttribute("display",a),v[D].setAttribute("display",c),m[D].setAttribute("display",o),S[D].setAttribute("display",s),q[D].setAttribute("display",l),k[D].setAttribute("display",u),I[D].setAttribute("display",d),_[D].setAttribute("display",A),x[D].setAttribute("display",p),z[D].setAttribute("display",b),j[D].setAttribute("display",f)},i=function(){var i=t.getAttribute("data-type");i&&e(i)};return{update:i,setType:e}};
//]]>
</script>
</svg>
