<svg xmlns="http://www.w3.org/2000/svg" viewBox="0 0 231.297 190.8081"><defs><style>.a{fill:#1fa67a;}</style></defs><title>fontawesome</title><path class="a" d="M73.9,66.8342v78.7773a1.9657,1.9657,0,0,1-1.9912,1.9912H67.9268a1.9657,1.9657,0,0,1-1.9912-1.9912V66.8342A7.965,7.965,0,1,1,73.9,66.8342Zm95.5781,44.6152a4.0448,4.0448,0,0,1-2.1777,3.5469c-0.249.125-.6221,0.3115-1.0576,0.5605-3.9824,2.1152-13.3789,7.2178-22.9619,7.2178a21.7591,21.7591,0,0,1-9.8311-2.1777l-1.7422-.8711c-6.2852-3.1738-11.2627-5.6621-18.917-5.6621-8.96,0-21.5918,4.667-28.8721,9.085a4.0828,4.0828,0,0,1-2.0537.56,4.4841,4.4841,0,0,1-1.9912-.498,4.046,4.046,0,0,1-1.9912-3.4844V73.5549a4.1047,4.1047,0,0,1,1.9287-3.4229c3.9824-2.3643,18.0459-10.1426,31.1133-10.1426,10.3916,0,18.8535,3.7959,26.01,7.28a12.2753,12.2753,0,0,0,5.5381,1.1826c7.3428,0,15.4316-4.667,19.29-6.97,0.8086-.4355,1.4932-0.8086,1.9287-1.0576a4.0457,4.0457,0,0,1,3.8584.124,4.1047,4.1047,0,0,1,1.9287,3.4229v47.4775Zm-7.9648-40.6953c-4.9785,2.6758-11.9473,5.6631-19.041,5.6631A19.6084,19.6084,0,0,1,133.45,74.426c-6.6582-3.2979-13.876-6.4717-22.5254-6.4717-8.0273,0-17.8594,3.92-25.0771,7.9023V113.13c8.2139-3.7959,18.668-7.0312,26.9434-7.0312,9.583,0,15.8057,3.1729,22.4639,6.4707l1.7422,0.8711a13.9761,13.9761,0,0,0,6.2842,1.3691c6.9072,0,14.374-3.6709,18.2324-5.7246V70.7541Z"/></svg>