<svg xmlns="http://www.w3.org/2000/svg" viewBox="0 0 231.297 190.8081"><defs><style>.a{fill:#ccc;}</style></defs><title>new-framework</title><path class="a" d="M71.9378,61.4413h64.4775a2.1456,2.1456,0,0,1,2.14,2.1392v42.7856a2.1459,2.1459,0,0,1-2.14,2.1392H72.2366a2.1457,2.1457,0,0,1-2.1387-2.1392V63.5375A2.1558,2.1558,0,0,1,71.9378,61.4413Zm2.4385,42.7852h59.9V65.72h-59.9v38.5068Zm36.3682,6.418v8.5571a2.1447,2.1447,0,0,0,2.1387,2.1392h4.2793a2.1458,2.1458,0,0,1,2.1387,2.14h-29.95a2.146,2.146,0,0,1,2.14-2.14h4.2783a2.1456,2.1456,0,0,0,2.14-2.1392v-8.5571h12.8359Z"/><path class="a" d="M160.3264,83.6078a1.1812,1.1812,0,0,1,.88,1.1069v40.94a1.1508,1.1508,0,0,1-.88,1.1069,50.0942,50.0942,0,0,1-20.9453,0,1.1508,1.1508,0,0,1-.88-1.1069v-40.94a1.18,1.18,0,0,1,.88-1.1069A48.2845,48.2845,0,0,1,160.3264,83.6078ZM139.92,122.1923h19.8672V86.7157H139.92v35.4766Zm5.6758-2.8379v1.4189H143.468l-0.71-.7095,0.71-.7095h2.1279Zm2.8389-34.7676a0.7024,0.7024,0,0,0,.709.71h1.4189a0.71,0.71,0,1,0,0-1.4194h-1.4189A0.7023,0.7023,0,0,0,148.4348,84.5868Zm2.8379,35.4771v0.7095h-2.8379v-0.7095l1.4189-.667Zm5.6758-.7095v1.4189h-2.8379v-1.4189h2.8379Z"/></svg>