<svg xmlns="http://www.w3.org/2000/svg" viewBox="0 0 231.297 190.8081"><defs><style>.a{fill:#ccc;}</style></defs><title>BC Pie</title><path class="a" d="M142.9855,72.4843c4.2783,5.605,4.7705,18.6118-10.29,24.1953-8.5781,3.1875-8.6855,10.5464-2.0742,14.3115,6.417,3.6367,7.1875,7.8726,5.9473,11.167-2.3535,6.2256-12.28,7.4233-20.8594,7.4233a34.2286,34.2286,0,1,1,0-68.457C128.5666,61.1244,137.1027,64.7611,142.9855,72.4843ZM89.9748,85.7265a3.209,3.209,0,1,0,3.209-3.209A3.204,3.204,0,0,0,89.9748,85.7265Zm0,17.1143a3.209,3.209,0,1,0,3.209-3.209A3.204,3.204,0,0,0,89.9748,102.8407Zm8.5566-29.95a3.209,3.209,0,1,0,3.209-3.209A3.2047,3.2047,0,0,0,98.5314,72.8905Zm2.1387,42.7856a3.209,3.209,0,1,0,3.209-3.209A3.2047,3.2047,0,0,0,100.67,115.6762Zm10.6973-47.064a3.209,3.209,0,1,0,3.209-3.209A3.2046,3.2046,0,0,0,111.3674,68.6122ZM113.506,92.144a5.3486,5.3486,0,1,0,5.3486-5.3481A5.351,5.351,0,0,0,113.506,92.144Zm2.14,27.811a3.209,3.209,0,1,0,3.209-3.209A3.204,3.204,0,0,0,115.6457,119.955Zm8.5576-47.0645a3.209,3.209,0,1,0,3.209-3.209A3.2041,3.2041,0,0,0,124.2033,72.8905Z"/></svg>