<svg xmlns="http://www.w3.org/2000/svg" viewBox="0 0 231.297 190.8081"><defs><style>.a{fill:#ccc;}</style></defs><title>BC Pie</title><path class="a" d="M110.2978,58.9853a1.0593,1.0593,0,0,1,1.0693,1.07V72.8905a1.0593,1.0593,0,0,1-1.0693,1.07H82.4873a1.06,1.06,0,0,1-1.07-1.07V60.0551a1.06,1.06,0,0,1,1.07-1.07h27.8105Zm0,23.5322a1.0592,1.0592,0,0,1,1.0693,1.0693v42.7856a1.0593,1.0593,0,0,1-1.0693,1.07H82.4873a1.06,1.06,0,0,1-1.07-1.07V83.5868a1.0594,1.0594,0,0,1,1.07-1.0693h27.8105Zm38.5068-23.5322a1.0593,1.0593,0,0,1,1.0693,1.07V98.5619a1.0593,1.0593,0,0,1-1.0693,1.07H120.9941a1.06,1.06,0,0,1-1.07-1.07V60.0551a1.06,1.06,0,0,1,1.07-1.07h27.8105Zm0,49.2036a1.0592,1.0592,0,0,1,1.0693,1.0693v17.1143a1.0593,1.0593,0,0,1-1.0693,1.07H120.9941a1.06,1.06,0,0,1-1.07-1.07V109.2582a1.0594,1.0594,0,0,1,1.07-1.0693h27.8105Z"/></svg>