<svg xmlns="http://www.w3.org/2000/svg" viewBox="0 0 231.297 190.8081"><defs><style>.a{fill:#ccc;}</style></defs><title>BC Pie</title><path class="a" d="M124.5238,81.1054l4.9424,4.9634a0.9848,0.9848,0,0,1,0,1.4546L88.1557,128.8544a1.0088,1.0088,0,0,1-1.4756,0l-4.9424-4.9634a0.9848,0.9848,0,0,1,0-1.4546l41.3105-41.3311a0.9289,0.9289,0,0,1,.7266-0.2568A0.9781,0.9781,0,0,1,124.5238,81.1054ZM116.0307,76.1h4.5566a1.07,1.07,0,1,1,0,2.1392H116.309c-0.042,0-.1279.0215-0.1709,0.0215A1.0826,1.0826,0,0,1,116.0307,76.1Zm1.07-14.9751h0.2129a1.2151,1.2151,0,0,1,.792.3423l8.5576,8.5571a1.1927,1.1927,0,0,1,.5137.8984,1.06,1.06,0,0,1-1.07,1.07,1.2334,1.2334,0,0,1-.92-0.5132L116.63,62.9213a1.1588,1.1588,0,0,1-.3428-0.77A1.055,1.055,0,0,1,117.101,61.1244Zm15.98,11.4238,4.9414,4.9634a0.9848,0.9848,0,0,1,0,1.4546l-4.9414,4.9629a1.0269,1.0269,0,0,1-1.4766,0l-5.0059-4.813a1.0851,1.0851,0,0,1,0-1.5405l5.0059-5.0273a0.9781,0.9781,0,0,1,.749-0.2568A0.9323,0.9323,0,0,1,133.0815,72.5483Zm0.0645,16.3867h0.0635c0.0645,0,.1279-0.021.1924-0.021a1.0594,1.0594,0,0,1,1.07,1.0693v4.3a1.07,1.07,0,0,1-2.14,0V89.9408A1.0538,1.0538,0,0,1,133.1459,88.935Zm0-27.8105h0.0635c0.0645,0,.1494-0.0215.2139-0.0215a1.06,1.06,0,0,1,1.07,1.07v4.3a1.07,1.07,0,1,1-2.14,0V62.1513A1.06,1.06,0,0,1,133.1459,61.1244Zm14.9746,0h0.0645c0.042,0,.1279-0.0215.17-0.0215a1.06,1.06,0,0,1,1.07,1.07,1.2257,1.2257,0,0,1-.2988.7485l-8.5576,8.5576a1.23,1.23,0,0,1-.92.5132,1.0593,1.0593,0,0,1-1.0693-1.07,1.1887,1.1887,0,0,1,.5127-0.8984l8.5576-8.5571A0.7818,0.7818,0,0,1,148.1205,61.1244Zm-8.5576,23.5322h0.0645c0.042,0,.1064-0.0215.1494-0.0215a1.2412,1.2412,0,0,1,.792.3638l8.5576,8.5571a1.1677,1.1677,0,0,1,.4912.8984,1.0593,1.0593,0,0,1-1.0693,1.07,1.1881,1.1881,0,0,1-.8984-0.5137l-8.5576-8.5571a1.1623,1.1623,0,0,1-.3418-0.77A1.0537,1.0537,0,0,1,139.5629,84.6567ZM143.8412,76.1h4.5352a1.07,1.07,0,1,1,0,2.1392H144.099c-0.043,0-.1074.0215-0.15,0.0215A1.0826,1.0826,0,0,1,143.8412,76.1Z"/></svg>