<svg xmlns="http://www.w3.org/2000/svg" viewBox="0 0 231.297 190.8081"><defs><style>.a{fill:#ccc;}</style></defs><title>BC Pie</title><path class="a" d="M121.8673,56.9623a7.7092,7.7092,0,0,1-1.3262,3.8721c-0.749,1.4541-2.9521,3.915-2.9521,5.7539v1.07a4.291,4.291,0,0,0,4.2783,4.2783h16.0439a1.0594,1.0594,0,0,1,1.07,1.0693v15.98A4.2912,4.2912,0,0,0,143.26,93.266h1.0693c1.8613,0,4.3213-2.1182,5.7549-2.9316a7.9407,7.9407,0,0,1,3.8721-1.3477,6.418,6.418,0,1,1,0,12.8359,7.73,7.73,0,0,1-3.8721-1.3477c-1.4121-.792-3.958-2.9307-5.7549-2.9307H143.26a4.29,4.29,0,0,0-4.2783,4.2783v16.1084a1.06,1.06,0,0,1-1.07,1.07H121.8673a4.291,4.291,0,0,1-4.2783-4.2783v-1.07a4.4,4.4,0,0,1,.5986-2.0107s2.332-3.7012,2.3535-3.7441a7.7028,7.7028,0,0,0,1.3262-3.8721,6.418,6.418,0,0,0-12.8359,0,7.913,7.913,0,0,0,1.3262,3.8721c0.7705,1.4336,2.9521,3.9365,2.9521,5.7549v1.07a4.291,4.291,0,0,1-4.2783,4.2783H92.9864a1.0594,1.0594,0,0,1-1.0693-1.07V73.0063a1.0592,1.0592,0,0,1,1.0693-1.0693h16.0449a4.291,4.291,0,0,0,4.2783-4.2783v-1.07c0-1.8184-2.1387-4.3213-2.9521-5.7539a7.92,7.92,0,0,1-1.3262-3.8721A6.418,6.418,0,1,1,121.8673,56.9623Z"/></svg>