<svg xmlns="http://www.w3.org/2000/svg" viewBox="0 0 231.297 190.8081"><defs><style>.a{fill:#ccc;}</style></defs><title>BC Pie</title><path class="a" d="M98.9583,82.45h24.6045a0.8186,0.8186,0,0,1,.8164.8164V99.594a0.8192,0.8192,0,0,1-.8164.8164h-24.49a0.8192,0.8192,0,0,1-.8164-0.8164V83.25A0.8231,0.8231,0,0,1,98.9583,82.45Zm0.9307,16.3271h22.8574V84.0832H99.8889V98.7776Zm13.8779,2.4482v3.2656a0.8186,0.8186,0,0,0,.8164.8164h1.6328a0.8192,0.8192,0,0,1,.8164.8164h-11.43a0.8192,0.8192,0,0,1,.8164-0.8164h1.6328a0.8186,0.8186,0,0,0,.8164-0.8164v-3.2656h4.8984Z"/><path class="a" d="M132.7044,90.9035a0.4509,0.4509,0,0,1,.3359.4229v15.6279a0.4387,0.4387,0,0,1-.3359.4219,19.1075,19.1075,0,0,1-7.9951,0,0.4387,0.4387,0,0,1-.3359-0.4219V91.3264a0.4509,0.4509,0,0,1,.3359-0.4229A18.442,18.442,0,0,1,132.7044,90.9035Zm-7.7891,14.7285h7.583V92.09h-7.583v13.542Zm2.166-1.083v0.542h-0.8125l-0.2705-.2715,0.2705-.2705h0.8125Zm1.084-13.2715a0.268,0.268,0,0,0,.2705.2705h0.542a0.2705,0.2705,0,0,0,0-.541h-0.542A0.268,0.268,0,0,0,128.1653,91.2776Zm1.083,13.542v0.2715h-1.083V104.82l0.542-.2539Zm2.167-.2705v0.542h-1.083v-0.542h1.083Z"/></svg>