<svg xmlns="http://www.w3.org/2000/svg" viewBox="0 0 231.297 190.8081"><defs><style>.a{fill:none;stroke:#ccc;stroke-miterlimit:10;}</style></defs><title>BC Pie</title><path class="a" d="M113.3359,79.6916a0.4571,0.4571,0,0,1,.4609.4619v5.5391a0.4568,0.4568,0,0,1-.4609.4609h-12.001a0.4571,0.4571,0,0,1-.4619-0.4609V80.1535a0.4573,0.4573,0,0,1,.4619-0.4619h12.001Zm0,10.1543a0.4571,0.4571,0,0,1,.4609.4619v18.4629a0.4571,0.4571,0,0,1-.4609.4619h-12.001a0.4573,0.4573,0,0,1-.4619-0.4619V90.3078a0.4573,0.4573,0,0,1,.4619-0.4619h12.001Zm16.6162-10.1543a0.4573,0.4573,0,0,1,.4619.4619V96.77a0.4573,0.4573,0,0,1-.4619.4619h-12.001A0.4571,0.4571,0,0,1,117.49,96.77V80.1535a0.4571,0.4571,0,0,1,.4609-0.4619h12.001Zm0,21.2324a0.4573,0.4573,0,0,1,.4619.4619v7.3848a0.4573,0.4573,0,0,1-.4619.4619h-12.001a0.4571,0.4571,0,0,1-.4609-0.4619v-7.3848a0.4571,0.4571,0,0,1,.4609-0.4619h12.001Z"/></svg>