<svg xmlns="http://www.w3.org/2000/svg" viewBox="0 0 231.297 190.8081"><defs><style>.a{fill:none;stroke:#ccc;stroke-miterlimit:10;}</style></defs><title>BC Pie</title><path class="a" d="M127.4416,85.5168c1.8467,2.4189,2.0586,8.0313-4.44,10.44-3.7021,1.376-3.748,4.5518-.8955,6.1768,2.77,1.5693,3.1016,3.3965,2.5664,4.8184-1.0156,2.6865-5.2988,3.2031-9.001,3.2031a14.7705,14.7705,0,1,1,0-29.541C121.22,80.6145,124.9025,82.1838,127.4416,85.5168Zm-22.876,5.7139a1.3848,1.3848,0,1,0,1.3848-1.3848A1.3831,1.3831,0,0,0,104.5656,91.2307Zm0,7.3857a1.3848,1.3848,0,1,0,1.3848-1.3848A1.3831,1.3831,0,0,0,104.5656,98.6164Zm3.6934-12.9238a1.3843,1.3843,0,1,0,1.3838-1.3848A1.382,1.382,0,0,0,108.259,85.6926Zm0.9229,18.4629a1.3848,1.3848,0,1,0,1.3848-1.3848A1.3831,1.3831,0,0,0,109.1818,104.1555Zm4.6152-20.31a1.3848,1.3848,0,1,0,1.3848-1.3848A1.3831,1.3831,0,0,0,113.797,83.8459ZM114.7209,94a2.3076,2.3076,0,1,0,2.3076-2.3076A2.3085,2.3085,0,0,0,114.7209,94Zm0.9229,12.001a1.3848,1.3848,0,1,0,1.3848-1.3848A1.3824,1.3824,0,0,0,115.6437,106.0012Zm3.6924-20.3086a1.3848,1.3848,0,1,0,1.3848-1.3848A1.3829,1.3829,0,0,0,119.3361,85.6926Z"/></svg>