<svg xmlns="http://www.w3.org/2000/svg" viewBox="0 0 231.297 190.8081"><defs><style>.a{fill:none;stroke:#ccc;stroke-miterlimit:10;}</style></defs><title>BC Pie</title><path class="a" d="M119.475,89.2375l2.1328,2.1416a0.4242,0.4242,0,0,1,0,.627L103.7816,109.842a0.4364,0.4364,0,0,1-.6377,0L101.0121,107.7a0.4253,0.4253,0,0,1,0-.6279l17.8262-17.835a0.3988,0.3988,0,0,1,.3135-0.1113A0.42,0.42,0,0,1,119.475,89.2375Zm-3.665-2.1611h1.9668a0.4619,0.4619,0,0,1,0,.9238H115.93c-0.0186,0-.0557.0088-0.0742,0.0088A0.4673,0.4673,0,0,1,115.81,87.0764Zm0.4619-6.4619h0.0918a0.5213,0.5213,0,0,1,.3418.1484l3.6924,3.6924a0.5118,0.5118,0,0,1,.2217.3877,0.4571,0.4571,0,0,1-.4609.4619,0.5321,0.5321,0,0,1-.3975-0.2217L116.0688,81.39a0.5009,0.5009,0,0,1-.1475-0.332A0.4552,0.4552,0,0,1,116.2719,80.6145Zm6.8955,4.93L125.3,87.6858a0.4253,0.4253,0,0,1,0,.6279l-2.1328,2.1416a0.4426,0.4426,0,0,1-.6367,0l-2.16-2.0771a0.4674,0.4674,0,0,1,0-.6641l2.16-2.17a0.4242,0.4242,0,0,1,.3232-0.11A0.4015,0.4015,0,0,1,123.1674,85.5442Zm0.0283,7.0713h0.0273c0.0273,0,.0557-0.0088.083-0.0088a0.4573,0.4573,0,0,1,.4619.4619V94.924a0.4619,0.4619,0,0,1-.9238,0V93.05A0.4555,0.4555,0,0,1,123.1957,92.6154Zm0-12.001h0.0273c0.0273,0,.0645-0.0088.0928-0.0088a0.4571,0.4571,0,0,1,.4609.4619v1.8555a0.4614,0.4614,0,0,1-.9229,0V81.0578A0.457,0.457,0,0,1,123.1957,80.6145Zm6.4619,0h0.0273c0.0186,0,.0557-0.0088.0742-0.0088a0.4565,0.4565,0,0,1,.4609.4619,0.5227,0.5227,0,0,1-.1289.3223l-3.6924,3.6934a0.5321,0.5321,0,0,1-.3975.2217,0.4571,0.4571,0,0,1-.4609-0.4619,0.5118,0.5118,0,0,1,.2217-0.3877l3.6924-3.6924A0.3369,0.3369,0,0,1,129.6576,80.6145ZM125.9652,90.77h0.0273c0.0186,0,.0459-0.01.0645-0.01a0.536,0.536,0,0,1,.3418.1572l3.6924,3.6924a0.5039,0.5039,0,0,1,.2129.3877,0.4573,0.4573,0,0,1-.4619.4619,0.5134,0.5134,0,0,1-.3877-0.2217l-3.6924-3.6924a0.504,0.504,0,0,1-.1484-0.332A0.4552,0.4552,0,0,1,125.9652,90.77Zm1.8457-3.6934h1.957a0.4619,0.4619,0,1,1,0,.9238h-1.8457c-0.0186,0-.0469.0088-0.0654,0.0088A0.4673,0.4673,0,0,1,127.8109,87.0764Z"/></svg>