<svg xmlns="http://www.w3.org/2000/svg" viewBox="0 0 231.297 190.8081"><defs><style>.a{fill:none;stroke:#ccc;stroke-miterlimit:10;}</style></defs><title>BC Pie</title><path class="a" d="M116.6866,79.1574a3.3206,3.3206,0,0,1-.5723,1.6709c-0.3232.6279-1.2734,1.6895-1.2734,2.4834v0.4609a1.852,1.852,0,0,0,1.8457,1.8467H123.61a0.4573,0.4573,0,0,1,.4619.4619v6.8955a1.8522,1.8522,0,0,0,1.8467,1.8467H126.38c0.8037,0,1.8652-.9141,2.4834-1.2646a3.4272,3.4272,0,0,1,1.6709-.582,2.77,2.77,0,1,1,0,5.5391,3.34,3.34,0,0,1-1.6709-.5811c-0.6094-.3418-1.708-1.2646-2.4834-1.2646H125.919a1.8513,1.8513,0,0,0-1.8467,1.8457v6.9512a0.4573,0.4573,0,0,1-.4619.4619h-6.9238a1.852,1.852,0,0,1-1.8457-1.8467v-0.4609a1.9118,1.9118,0,0,1,.2578-0.8682s1.0068-1.5967,1.0156-1.6152a3.3206,3.3206,0,0,0,.5723-1.6709,2.77,2.77,0,0,0-5.5391,0,3.4172,3.4172,0,0,0,.5732,1.6709c0.332,0.6182,1.2734,1.6982,1.2734,2.4834v0.4609a1.8522,1.8522,0,0,1-1.8467,1.8467h-6.9229a0.4573,0.4573,0,0,1-.4619-0.4619V86.0813a0.4573,0.4573,0,0,1,.4619-0.4619h6.9229a1.8522,1.8522,0,0,0,1.8467-1.8467V83.3117c0-.7852-0.9229-1.8652-1.2734-2.4834a3.4172,3.4172,0,0,1-.5732-1.6709A2.77,2.77,0,0,1,116.6866,79.1574Z"/></svg>