<svg xmlns="http://www.w3.org/2000/svg" xmlns:xlink="http://www.w3.org/1999/xlink" viewBox="0 0 231.297 190.8081"><defs><style>.a,.d{fill:none;}.b{clip-path:url(#a);}.c{fill:#c33333;fill-rule:evenodd;}.d{stroke:#fff;stroke-miterlimit:10;stroke-width:3.4634px;}.e{fill:#fff;}</style><clipPath id="a"><rect class="a" x="37.2509" y="17.0065" width="156.7952" height="156.7952"/></clipPath></defs><title>BC Pie</title><g class="b"><g class="b"><g class="b"><path class="c" d="M63.2791,17.0065h104.9A26.1909,26.1909,0,0,1,194.0463,43.109V148.0146a25.9239,25.9239,0,0,1-25.8674,25.7871h-104.9a26.065,26.065,0,0,1-26.028-25.7871V43.109a26.3318,26.3318,0,0,1,26.028-26.1026"/><path class="c" d="M66.47,20.8307h99.7772c19.68,0,23.9744,12.0809,23.9744,22.9036v99.7791c0,14.84-5.1035,26.464-23.9744,26.464H66.47c-18.7351,0-25.3951-8.6983-25.3951-26.464V43.7343c0-18.259,6.66-22.9036,25.3951-22.9036"/><path class="d" d="M66.47,20.8307h99.7772c19.68,0,23.9744,12.0809,23.9744,22.9036v99.7791c0,14.84-5.1035,26.464-23.9744,26.464H66.47c-18.7351,0-25.3951-8.6983-25.3951-26.464V43.7343C41.0746,25.4753,47.7346,20.8307,66.47,20.8307Z"/><path class="e" d="M60.1965,66.722v5.7364h56.8077c4.2641-1.9121,8.8-1.9121,13.6068-5.7364H60.1965Z"/><path class="e" d="M60.1965,76.2827v5.7364H104.86c2.3118-1.9121,4.788-1.9121,7.4057-5.7364H60.1965Z"/><path class="e" d="M60.1965,85.8434V91.58H96.9153c1.5393-1.9121,3.21-1.9121,4.9888-5.7364H60.1965Z"/><path class="e" d="M60.1965,95.4041V101.14H91.4313c1.0383-1.9121,2.1741-1.9121,3.4266-5.7364H60.1965Z"/><path class="e" d="M60.1965,104.9647v5.7364H87.672c0.6578-1.9121,1.4207-1.9121,2.2774-5.7364H60.1965Z"/><path class="e" d="M60.1965,114.5254v5.7364H85.58q0.5019-5.7364,1.2888-5.7364H60.1965Z"/><path class="e" d="M60.1965,124.0861v5.7364H84.735c0.0363-3.8243.1491-5.7364,0.3748-5.7364H60.1965Z"/><path class="e" d="M104.8518,129.8225c10.4766-15.2971,27.64-23.4868,46.3923-23.4868a7.9125,7.9125,0,0,0,.7343-0.566v11.9891c0,1.8662,1.6559,2.3118,2.807,1.01l22.9093-25.9114c1.153-1.3194,2.0938-3.4705.9675-4.8071L154.7911,60.6624c-1.109-1.3385-2.8128-.91-2.8128.9484v7.5453s-0.675-.0057-0.7343-0.0057c-31.7357,0-57.7389,26.3-57.7389,58.0353,0,0.6941-.2161-1.1874-0.1912,2.6368h11.5378Z"/></g></g></g></svg>