<svg xmlns="http://www.w3.org/2000/svg" viewBox="0 0 231.3 190.81"><defs><style>.a{fill:#ec1c24;}.b{fill:#231f20;}</style></defs><title>main</title><path class="a" d="M69.62,117.45a45.26,45.26,0,0,0,.69-41.79L28.43,96.59Z"/><path class="b" d="M96.15,103.65q0.39,6.07,6.22,6.07a5.87,5.87,0,0,0,4-1.32A4.33,4.33,0,0,0,107.9,105a4,4,0,0,0-1.25-3.19,12.09,12.09,0,0,0-4.82-1.94,39,39,0,0,1-4.39-1.36,9.45,9.45,0,0,1-2.68-1.67,8.37,8.37,0,0,1-3.11-6.92,9.59,9.59,0,0,1,2.84-7.19,10.2,10.2,0,0,1,7.43-2.76A11.37,11.37,0,0,1,108,81.6a8.27,8.27,0,0,1,3.66,4.32,9.62,9.62,0,0,1,.51,2.06,23.78,23.78,0,0,1,.12,2.68l-6.77-1.79Q104.55,86,102,86a3.1,3.1,0,0,0-2.33,1,3.3,3.3,0,0,0-.93,2.37,3,3,0,0,0,1.13,2.57,13.87,13.87,0,0,0,4.47,1.71q1.55,0.39,2.61.7t1.79,0.58a6.41,6.41,0,0,1,1.32.66q0.58,0.39,1.21.86A9.32,9.32,0,0,1,114,100a10.87,10.87,0,0,1,1,4.55,11,11,0,0,1-1,4.63,11.63,11.63,0,0,1-2.68,3.73,12.54,12.54,0,0,1-4,2.49,13.19,13.19,0,0,1-4.9.89,14.94,14.94,0,0,1-5.29-.93,13,13,0,0,1-4.28-2.57A12.41,12.41,0,0,1,90,108.94a10.77,10.77,0,0,1-1-4.74,8.51,8.51,0,0,1,.08-1q0.08-.62.23-1.4Z"/><path class="b" d="M155.1,96.18a26.35,26.35,0,0,1-.89,7.43,18.4,18.4,0,0,1-2.92,5.72,18.06,18.06,0,0,1-14.23,6.92,18.33,18.33,0,0,1-7.16-1.4,17.51,17.51,0,0,1-5.79-3.89,18.23,18.23,0,0,1-5.25-13,17.68,17.68,0,0,1,1.4-7,18.1,18.1,0,0,1,9.45-9.64,16.62,16.62,0,0,1,18.55,3.46V63.2h6.84v33ZM137,86.77a10.86,10.86,0,0,0-4.28.86,11,11,0,0,0-6.77,10.27,12,12,0,0,0,.86,4.59,10.82,10.82,0,0,0,2.37,3.62,11.54,11.54,0,0,0,3.54,2.41,10.83,10.83,0,0,0,4.43.89,10.37,10.37,0,0,0,4.32-.89,11.11,11.11,0,0,0,5.79-6,11.34,11.34,0,0,0,.86-4.39,11.55,11.55,0,0,0-.86-4.47,11,11,0,0,0-2.37-3.58,11.59,11.59,0,0,0-3.54-2.41A10.67,10.67,0,0,0,137,86.77Z"/><path class="b" d="M161.87,63.2h7V95.87l11.9-14.78h9L178.36,95A13.1,13.1,0,0,1,184,97.93a14.88,14.88,0,0,1,3.54,5.48,23.21,23.21,0,0,1,1.32,4.86,33.86,33.86,0,0,1,.47,5.64v1.17h-7.08v-1.17a24.29,24.29,0,0,0-.86-6.61,11.34,11.34,0,0,0-11-8.24h-0.66a6.72,6.72,0,0,0-.89.08v15.94h-7V63.2Z"/></svg>